ZillaSlab-MediumItalic.ufo
<glyph name="quotedbl" format="1">
  <advance width="369"/>
  <unicode hex="0022"/>
  <outline>
    <contour>
      <point x="144" y="377" type="line"/>
      <point x="179" y="650" type="line"/>
      <point x="93" y="650" type="line"/>
      <point x="69" y="377" type="line"/>
    </contour>
    <contour>
      <point x="320" y="377" type="line"/>
      <point x="355" y="650" type="line"/>
      <point x="269" y="650" type="line"/>
      <point x="245" y="377" type="line"/>
    </contour>
  </outline>
</glyph>
<glyph name="ampersand" format="1">
  <advance width="708"/>
  <unicode hex="0026"/>
  <outline>
    <contour>
      <point x="432" y="369" type="line"/>
      <point x="697" y="369" type="line"/>
      <point x="689" y="291" type="line"/>
      <point x="598" y="291" type="line"/>
      <point x="570" y="233"/>
      <point x="518" y="164"/>
      <point x="455" y="106" type="curve"/>
      <point x="491" y="86"/>
      <point x="528" y="74"/>
      <point x="566" y="74" type="curve" smooth="yes"/>
      <point x="592" y="74"/>
      <point x="619" y="81"/>
      <point x="642" y="93" type="curve"/>
      <point x="654" y="18" type="line"/>
      <point x="619" y="-1"/>
      <point x="581" y="-10"/>
      <point x="545" y="-10" type="curve" smooth="yes"/>
      <point x="487" y="-10"/>
      <point x="430" y="12"/>
      <point x="378" y="47" type="curve"/>
      <point x="323" y="12"/>
      <point x="263" y="-10"/>
      <point x="204" y="-10" type="curve" smooth="yes"/>
      <point x="109" y="-10"/>
      <point x="26" y="46"/>
      <point x="26" y="147" type="curve" smooth="yes"/>
      <point x="26" y="238"/>
      <point x="97" y="284"/>
      <point x="172" y="323" type="curve"/>
      <point x="156" y="367"/>
      <point x="148" y="411"/>
      <point x="148" y="451" type="curve" smooth="yes"/>
      <point x="148" y="568"/>
      <point x="221" y="660"/>
      <point x="346" y="660" type="curve" smooth="yes"/>
      <point x="439" y="660"/>
      <point x="500" y="609"/>
      <point x="500" y="528" type="curve" smooth="yes"/>
      <point x="500" y="424"/>
      <point x="389" y="376"/>
      <point x="271" y="319" type="curve"/>
      <point x="301" y="251"/>
      <point x="349" y="186"/>
      <point x="406" y="140" type="curve"/>
      <point x="448" y="178"/>
      <point x="483" y="231"/>
      <point x="504" y="291" type="curve"/>
      <point x="424" y="291" type="line"/>
    </contour>
    <contour>
      <point x="410" y="524" type="curve" smooth="yes"/>
      <point x="410" y="557"/>
      <point x="391" y="591"/>
      <point x="340" y="591" type="curve" smooth="yes"/>
      <point x="274" y="591"/>
      <point x="236" y="536"/>
      <point x="236" y="463" type="curve" smooth="yes"/>
      <point x="236" y="431"/>
      <point x="242" y="397"/>
      <point x="253" y="363" type="curve"/>
      <point x="344" y="410"/>
      <point x="410" y="460"/>
    </contour>
    <contour>
      <point x="191" y="276" type="curve"/>
      <point x="144" y="247"/>
      <point x="114" y="213"/>
      <point x="114" y="160" type="curve" smooth="yes"/>
      <point x="114" y="91"/>
      <point x="165" y="66"/>
      <point x="229" y="66" type="curve" smooth="yes"/>
      <point x="262" y="66"/>
      <point x="295" y="73"/>
      <point x="327" y="87" type="curve"/>
      <point x="270" y="139"/>
      <point x="223" y="207"/>
    </contour>
  </outline>
</glyph>
<glyph name="quotesingle" format="1">
  <advance width="193"/>
  <unicode hex="0027"/>
  <outline>
    <contour>
      <point x="144" y="377" type="line"/>
      <point x="179" y="650" type="line"/>
      <point x="93" y="650" type="line"/>
      <point x="69" y="377" type="line"/>
    </contour>
  </outline>
</glyph>
<glyph name="asterisk" format="1">
  <advance width="407"/>
  <unicode hex="002A"/>
  <outline>
    <contour>
      <point x="394" y="549" type="line"/>
      <point x="275" y="487" type="line"/>
      <point x="381" y="424" type="line"/>
      <point x="341" y="371" type="line"/>
      <point x="246" y="439" type="line"/>
      <point x="239" y="326" type="line"/>
      <point x="176" y="326" type="line"/>
      <point x="194" y="439" type="line"/>
      <point x="84" y="371" type="line"/>
      <point x="56" y="424" type="line"/>
      <point x="176" y="486" type="line"/>
      <point x="69" y="549" type="line"/>
      <point x="108" y="603" type="line"/>
      <point x="204" y="533" type="line"/>
      <point x="211" y="650" type="line"/>
      <point x="274" y="650" type="line"/>
      <point x="256" y="533" type="line"/>
      <point x="365" y="603" type="line"/>
    </contour>
  </outline>
</glyph>
<glyph name="plus" format="1">
  <advance width="408"/>
  <unicode hex="002B"/>
  <outline>
    <contour>
      <point x="31" y="249" type="line"/>
      <point x="173" y="249" type="line"/>
      <point x="158" y="108" type="line"/>
      <point x="220" y="108" type="line"/>
      <point x="235" y="249" type="line"/>
      <point x="371" y="249" type="line"/>
      <point x="377" y="313" type="line"/>
      <point x="242" y="313" type="line"/>
      <point x="257" y="455" type="line"/>
      <point x="195" y="455" type="line"/>
      <point x="180" y="313" type="line"/>
      <point x="37" y="313" type="line"/>
    </contour>
  </outline>
</glyph>
<glyph name="comma" format="1">
  <advance width="206"/>
  <unicode hex="002C"/>
  <outline>
    <contour>
      <point x="-21" y="-97" type="line"/>
      <point x="64" y="-97" type="line"/>
      <point x="141" y="124" type="line"/>
      <point x="57" y="124" type="line"/>
    </contour>
  </outline>
</glyph>
<glyph name="hyphen" format="1">
  <advance width="334"/>
  <unicode hex="002D"/>
  <outline>
    <contour>
      <point x="52" y="269" type="line"/>
      <point x="281" y="269" type="line"/>
      <point x="273" y="194" type="line"/>
      <point x="44" y="194" type="line"/>
    </contour>
  </outline>
</glyph>
<glyph name="period" format="1">
  <advance width="213"/>
  <unicode hex="002E"/>
  <outline>
    <contour>
      <point x="24" y="0" type="line"/>
      <point x="134" y="0" type="line"/>
      <point x="146" y="119" type="line"/>
      <point x="36" y="119" type="line"/>
    </contour>
  </outline>
</glyph>
<glyph name="slash" format="1">
  <advance width="380"/>
  <unicode hex="002F"/>
  <outline>
    <contour>
      <point x="385" y="688" type="line"/>
      <point x="100" y="0" type="line"/>
      <point x="19" y="0" type="line"/>
      <point x="303" y="688" type="line"/>
    </contour>
  </outline>
</glyph>
<glyph name="zero" format="1">
  <advance width="566"/>
  <unicode hex="0030"/>
  <outline>
    <contour>
      <point x="37" y="223" type="curve" smooth="yes"/>
      <point x="37" y="391"/>
      <point x="135" y="530"/>
      <point x="310" y="530" type="curve" smooth="yes"/>
      <point x="456" y="530"/>
      <point x="524" y="433"/>
      <point x="524" y="289" type="curve" smooth="yes"/>
      <point x="524" y="108"/>
      <point x="418" y="-10"/>
      <point x="253" y="-10" type="curve" smooth="yes"/>
      <point x="116" y="-10"/>
      <point x="37" y="73"/>
    </contour>
    <contour>
      <point x="133" y="233" type="curve" smooth="yes"/>
      <point x="133" y="130"/>
      <point x="167" y="70"/>
      <point x="261" y="70" type="curve" smooth="yes"/>
      <point x="363" y="70"/>
      <point x="430" y="143"/>
      <point x="430" y="289" type="curve" smooth="yes"/>
      <point x="430" y="391"/>
      <point x="396" y="449"/>
      <point x="300" y="449" type="curve" smooth="yes"/>
      <point x="192" y="449"/>
      <point x="133" y="371"/>
    </contour>
  </outline>
</glyph>
<glyph name="one" format="1">
  <advance width="381"/>
  <unicode hex="0031"/>
  <outline>
    <contour>
      <point x="28" y="79" type="line"/>
      <point x="144" y="79" type="line"/>
      <point x="182" y="442" type="line"/>
      <point x="67" y="442" type="line"/>
      <point x="75" y="521" type="line"/>
      <point x="280" y="521" type="line"/>
      <point x="233" y="79" type="line"/>
      <point x="343" y="79" type="line"/>
      <point x="334" y="0" type="line"/>
      <point x="20" y="0" type="line"/>
    </contour>
  </outline>
</glyph>
<glyph name="two" format="1">
  <advance width="511"/>
  <unicode hex="0032"/>
  <outline>
    <contour>
      <point x="131" y="352" type="line"/>
      <point x="156" y="432" type="line"/>
      <point x="187" y="446"/>
      <point x="229" y="453"/>
      <point x="255" y="453" type="curve" smooth="yes"/>
      <point x="317" y="453"/>
      <point x="354" y="425"/>
      <point x="354" y="374" type="curve" smooth="yes"/>
      <point x="354" y="276"/>
      <point x="219" y="196"/>
      <point x="21" y="71" type="curve"/>
      <point x="22" y="0" type="line"/>
      <point x="434" y="0" type="line"/>
      <point x="457" y="152" type="line"/>
      <point x="386" y="158" type="line"/>
      <point x="371" y="79" type="line"/>
      <point x="135" y="79" type="line"/>
      <point x="258" y="146"/>
      <point x="451" y="246"/>
      <point x="451" y="390" type="curve" smooth="yes"/>
      <point x="451" y="461"/>
      <point x="407" y="531"/>
      <point x="282" y="531" type="curve" smooth="yes"/>
      <point x="226" y="531"/>
      <point x="153" y="517"/>
      <point x="94" y="489" type="curve"/>
      <point x="62" y="360" type="line"/>
    </contour>
  </outline>
</glyph>
<glyph name="three" format="1">
  <advance width="510"/>
  <unicode hex="0033"/>
  <outline>
    <contour>
      <point x="142" y="352" type="line"/>
      <point x="168" y="432" type="line"/>
      <point x="195" y="445"/>
      <point x="232" y="453"/>
      <point x="258" y="453" type="curve" smooth="yes"/>
      <point x="327" y="453"/>
      <point x="360" y="421"/>
      <point x="360" y="367" type="curve" smooth="yes"/>
      <point x="360" y="324"/>
      <point x="334" y="246"/>
      <point x="197" y="241" type="curve"/>
      <point x="191" y="177" type="line"/>
      <point x="308" y="173"/>
      <point x="354" y="139"/>
      <point x="354" y="71" type="curve" smooth="yes"/>
      <point x="354" y="12"/>
      <point x="323" y="-63"/>
      <point x="216" y="-63" type="curve" smooth="yes"/>
      <point x="135" y="-63"/>
      <point x="100" y="-16"/>
      <point x="92" y="35" type="curve"/>
      <point x="19" y="11" type="line"/>
      <point x="22" y="-77"/>
      <point x="87" y="-141"/>
      <point x="213" y="-141" type="curve" smooth="yes"/>
      <point x="353" y="-141"/>
      <point x="449" y="-60"/>
      <point x="449" y="69" type="curve" smooth="yes"/>
      <point x="449" y="136"/>
      <point x="416" y="196"/>
      <point x="320" y="214" type="curve"/>
      <point x="321" y="218" type="line"/>
      <point x="424" y="252"/>
      <point x="456" y="319"/>
      <point x="456" y="387" type="curve" smooth="yes"/>
      <point x="456" y="483"/>
      <point x="380" y="531"/>
      <point x="281" y="531" type="curve" smooth="yes"/>
      <point x="222" y="531"/>
      <point x="154" y="510"/>
      <point x="104" y="483" type="curve"/>
      <point x="73" y="360" type="line"/>
    </contour>
  </outline>
</glyph>
<glyph name="nine" format="1">
  <advance width="526"/>
  <unicode hex="0039"/>
  <outline>
    <contour>
      <point x="44" y="288" type="curve" smooth="yes"/>
      <point x="44" y="191"/>
      <point x="88" y="112"/>
      <point x="205" y="112" type="curve" smooth="yes"/>
      <point x="300" y="112"/>
      <point x="358" y="165"/>
      <point x="383" y="215" type="curve"/>
      <point x="371" y="38"/>
      <point x="316" y="-62"/>
      <point x="205" y="-62" type="curve" smooth="yes"/>
      <point x="149" y="-62"/>
      <point x="103" y="-36"/>
      <point x="77" y="2" type="curve"/>
      <point x="20" y="-52" type="line"/>
      <point x="59" y="-111"/>
      <point x="119" y="-140"/>
      <point x="196" y="-140" type="curve" smooth="yes"/>
      <point x="409" y="-140"/>
      <point x="478" y="70"/>
      <point x="478" y="262" type="curve" smooth="yes"/>
      <point x="478" y="427"/>
      <point x="425" y="530"/>
      <point x="276" y="530" type="curve" smooth="yes"/>
      <point x="120" y="530"/>
      <point x="44" y="415"/>
    </contour>
    <contour>
      <point x="136" y="299" type="curve" smooth="yes"/>
      <point x="136" y="383"/>
      <point x="174" y="449"/>
      <point x="271" y="449" type="curve" smooth="yes"/>
      <point x="359" y="449"/>
      <point x="384" y="396"/>
      <point x="386" y="314" type="curve"/>
      <point x="374" y="255"/>
      <point x="332" y="188"/>
      <point x="237" y="188" type="curve" smooth="yes"/>
      <point x="164" y="188"/>
      <point x="136" y="228"/>
    </contour>
  </outline>
</glyph>
<glyph name="colon" format="1">
  <advance width="227"/>
  <unicode hex="003A"/>
  <outline>
    <contour>
      <point x="87" y="447" type="line"/>
      <point x="189" y="447" type="line"/>
      <point x="176" y="328" type="line"/>
      <point x="73" y="328" type="line"/>
    </contour>
    <contour>
      <point x="51" y="118" type="line"/>
      <point x="153" y="118" type="line"/>
      <point x="140" y="0" type="line"/>
      <point x="37" y="0" type="line"/>
    </contour>
  </outline>
</glyph>
<glyph name="semicolon" format="1">
  <advance width="236"/>
  <unicode hex="003B"/>
  <outline>
    <contour>
      <point x="-14" y="-97" type="line"/>
      <point x="71" y="-97" type="line"/>
      <point x="148" y="124" type="line"/>
      <point x="64" y="124" type="line"/>
    </contour>
    <contour>
      <point x="80" y="326" type="line"/>
      <point x="190" y="326" type="line"/>
      <point x="202" y="445" type="line"/>
      <point x="92" y="445" type="line"/>
    </contour>
  </outline>
</glyph>
<glyph name="less" format="1">
  <advance width="394"/>
  <unicode hex="003C"/>
  <outline>
    <contour>
      <point x="312" y="14" type="line"/>
      <point x="321" y="98" type="line"/>
      <point x="119" y="281" type="line"/>
      <point x="358" y="465" type="line"/>
      <point x="368" y="549" type="line"/>
      <point x="29" y="293" type="line"/>
      <point x="26" y="265" type="line"/>
    </contour>
  </outline>
</glyph>
<glyph name="equal" format="1">
  <advance width="556"/>
  <unicode hex="003D"/>
  <outline>
    <contour>
      <point x="62" y="359" type="line"/>
      <point x="510" y="359" type="line"/>
      <point x="518" y="423" type="line"/>
      <point x="70" y="423" type="line"/>
    </contour>
    <contour>
      <point x="39" y="138" type="line"/>
      <point x="487" y="138" type="line"/>
      <point x="494" y="201" type="line"/>
      <point x="46" y="201" type="line"/>
    </contour>
  </outline>
</glyph>
<glyph name="question" format="1">
  <advance width="448"/>
  <unicode hex="003F"/>
  <outline>
    <contour>
      <point x="127" y="459" type="line"/>
      <point x="151" y="548" type="line"/>
      <point x="179" y="569"/>
      <point x="215" y="580"/>
      <point x="252" y="580" type="curve" smooth="yes"/>
      <point x="311" y="580"/>
      <point x="346" y="554"/>
      <point x="346" y="512" type="curve" smooth="yes"/>
      <point x="346" y="406"/>
      <point x="128" y="397"/>
      <point x="128" y="268" type="curve" smooth="yes"/>
      <point x="128" y="215"/>
      <point x="165" y="180"/>
      <point x="260" y="188" type="curve"/>
      <point x="267" y="246" type="line"/>
      <point x="236" y="246"/>
      <point x="222" y="259"/>
      <point x="222" y="280" type="curve" smooth="yes"/>
      <point x="222" y="363"/>
      <point x="445" y="388"/>
      <point x="445" y="530" type="curve" smooth="yes"/>
      <point x="445" y="613"/>
      <point x="366" y="660"/>
      <point x="270" y="660" type="curve" smooth="yes"/>
      <point x="205" y="660"/>
      <point x="137" y="633"/>
      <point x="84" y="595" type="curve"/>
      <point x="58" y="465" type="line"/>
    </contour>
    <contour>
      <point x="129" y="0" type="line"/>
      <point x="234" y="0" type="line"/>
      <point x="245" y="111" type="line"/>
      <point x="140" y="111" type="line"/>
    </contour>
  </outline>
</glyph>
<glyph name="at" format="1">
  <advance width="887"/>
  <unicode hex="0040"/>
  <outline>
    <contour>
      <point x="624" y="302" type="curve"/>
      <point x="604" y="136" type="line" smooth="yes"/>
      <point x="604" y="133"/>
      <point x="602" y="118"/>
      <point x="602" y="113" type="curve" smooth="yes"/>
      <point x="601" y="79"/>
      <point x="614" y="51"/>
      <point x="653" y="51" type="curve" smooth="yes"/>
      <point x="737" y="51"/>
      <point x="773" y="173"/>
      <point x="773" y="289" type="curve" smooth="yes"/>
      <point x="773" y="517"/>
      <point x="634" y="587"/>
      <point x="488" y="587" type="curve" smooth="yes"/>
      <point x="264" y="587"/>
      <point x="102" y="423"/>
      <point x="102" y="190" type="curve" smooth="yes"/>
      <point x="102" y="-31"/>
      <point x="246" y="-135"/>
      <point x="417" y="-135" type="curve" smooth="yes"/>
      <point x="487" y="-135"/>
      <point x="567" y="-117"/>
      <point x="629" y="-76" type="curve"/>
      <point x="653" y="-130" type="line"/>
      <point x="584" y="-173"/>
      <point x="497" y="-202"/>
      <point x="404" y="-202" type="curve" smooth="yes"/>
      <point x="190" y="-202"/>
      <point x="29" y="-49"/>
      <point x="29" y="183" type="curve" smooth="yes"/>
      <point x="29" y="442"/>
      <point x="228" y="654"/>
      <point x="486" y="654" type="curve" smooth="yes"/>
      <point x="662" y="654"/>
      <point x="848" y="552"/>
      <point x="848" y="310" type="curve" smooth="yes"/>
      <point x="848" y="174"/>
      <point x="788" y="-10"/>
      <point x="632" y="-10" type="curve" smooth="yes"/>
      <point x="559" y="-10"/>
      <point x="518" y="33"/>
      <point x="515" y="88" type="curve"/>
      <point x="486" y="35"/>
      <point x="440" y="-10"/>
      <point x="366" y="-10" type="curve" smooth="yes"/>
      <point x="268" y="-10"/>
      <point x="217" y="67"/>
      <point x="217" y="180" type="curve" smooth="yes"/>
      <point x="217" y="296"/>
      <point x="272" y="456"/>
      <point x="424" y="456" type="curve" smooth="yes"/>
      <point x="490" y="456"/>
      <point x="535" y="424"/>
      <point x="554" y="371" type="curve"/>
      <point x="560" y="396"/>
      <point x="566" y="421"/>
      <point x="575" y="447" type="curve"/>
      <point x="657" y="447" type="line"/>
      <point x="643" y="402"/>
      <point x="629" y="349"/>
    </contour>
    <contour>
      <point x="433" y="387" type="curve" smooth="yes"/>
      <point x="339" y="387"/>
      <point x="308" y="278"/>
      <point x="308" y="191" type="curve" smooth="yes"/>
      <point x="308" y="105"/>
      <point x="338" y="59"/>
      <point x="395" y="59" type="curve" smooth="yes"/>
      <point x="464" y="59"/>
      <point x="512" y="132"/>
      <point x="525" y="192" type="curve"/>
      <point x="536" y="278" type="line"/>
      <point x="534" y="344"/>
      <point x="491" y="387"/>
    </contour>
  </outline>
</glyph>
<glyph name="B" format="1">
  <advance width="592"/>
  <unicode hex="0042"/>
  <outline>
    <contour>
      <point x="378" y="650" type="line" smooth="yes"/>
      <point x="493" y="650"/>
      <point x="555" y="595"/>
      <point x="555" y="512" type="curve" smooth="yes"/>
      <point x="555" y="433"/>
      <point x="503" y="370"/>
      <point x="430" y="356" type="curve"/>
      <point x="429" y="352" type="line"/>
      <point x="510" y="339"/>
      <point x="548" y="281"/>
      <point x="548" y="205" type="curve" smooth="yes"/>
      <point x="548" y="95"/>
      <point x="468" y="0"/>
      <point x="317" y="0" type="curve" smooth="yes"/>
      <point x="12" y="0" type="line"/>
      <point x="20" y="79" type="line"/>
      <point x="95" y="79" type="line"/>
      <point x="147" y="571" type="line"/>
      <point x="71" y="571" type="line"/>
      <point x="80" y="650" type="line"/>
    </contour>
    <contour>
      <point x="306" y="79" type="line" smooth="yes"/>
      <point x="397" y="79"/>
      <point x="454" y="124"/>
      <point x="454" y="203" type="curve" smooth="yes"/>
      <point x="454" y="265"/>
      <point x="419" y="298"/>
      <point x="348" y="298" type="curve" smooth="yes"/>
      <point x="206" y="298" type="line"/>
      <point x="183" y="79" type="line"/>
    </contour>
    <contour>
      <point x="328" y="371" type="line" smooth="yes"/>
      <point x="410" y="371"/>
      <point x="459" y="417"/>
      <point x="459" y="485" type="curve" smooth="yes"/>
      <point x="459" y="549"/>
      <point x="418" y="571"/>
      <point x="353" y="571" type="curve" smooth="yes"/>
      <point x="235" y="571" type="line"/>
      <point x="214" y="371" type="line"/>
    </contour>
  </outline>
</glyph>
<glyph name="H" format="1">
  <advance width="733"/>
  <unicode hex="0048"/>
  <outline>
    <contour>
      <point x="20" y="79" type="line"/>
      <point x="95" y="79" type="line"/>
      <point x="147" y="571" type="line"/>
      <point x="71" y="571" type="line"/>
      <point x="80" y="650" type="line"/>
      <point x="319" y="650" type="line"/>
      <point x="310" y="571" type="line"/>
      <point x="233" y="571" type="line"/>
      <point x="212" y="369" type="line"/>
      <point x="538" y="369" type="line"/>
      <point x="559" y="571" type="line"/>
      <point x="484" y="571" type="line"/>
      <point x="493" y="650" type="line"/>
      <point x="731" y="650" type="line"/>
      <point x="723" y="571" type="line"/>
      <point x="647" y="571" type="line"/>
      <point x="595" y="79" type="line"/>
      <point x="672" y="79" type="line"/>
      <point x="663" y="0" type="line"/>
      <point x="425" y="0" type="line"/>
      <point x="433" y="79" type="line"/>
      <point x="508" y="79" type="line"/>
      <point x="530" y="292" type="line"/>
      <point x="204" y="292" type="line"/>
      <point x="182" y="79" type="line"/>
      <point x="259" y="79" type="line"/>
      <point x="251" y="0" type="line"/>
      <point x="12" y="0" type="line"/>
    </contour>
  </outline>
</glyph>
<glyph name="L" format="1">
  <advance width="530"/>
  <unicode hex="004C"/>
  <outline>
    <contour>
      <point x="472" y="0" type="line"/>
      <point x="514" y="214" type="line"/>
      <point x="438" y="221" type="line"/>
      <point x="404" y="79" type="line"/>
      <point x="183" y="79" type="line"/>
      <point x="235" y="571" type="line"/>
      <point x="337" y="571" type="line"/>
      <point x="345" y="650" type="line"/>
      <point x="78" y="650" type="line"/>
      <point x="70" y="571" type="line"/>
      <point x="147" y="571" type="line"/>
      <point x="95" y="79" type="line"/>
      <point x="18" y="79" type="line"/>
      <point x="10" y="0" type="line"/>
    </contour>
  </outline>
</glyph>
<glyph name="N" format="1">
  <advance width="720"/>
  <unicode hex="004E"/>
  <outline>
    <contour>
      <point x="24" y="79" type="line"/>
      <point x="97" y="79" type="line"/>
      <point x="149" y="571" type="line"/>
      <point x="67" y="571" type="line"/>
      <point x="75" y="650" type="line"/>
      <point x="219" y="650" type="line"/>
      <point x="518" y="182" type="line"/>
      <point x="521" y="182" type="line"/>
      <point x="561" y="571" type="line"/>
      <point x="468" y="571" type="line"/>
      <point x="477" y="650" type="line"/>
      <point x="729" y="650" type="line"/>
      <point x="721" y="571" type="line"/>
      <point x="644" y="571" type="line"/>
      <point x="585" y="0" type="line"/>
      <point x="532" y="0" type="line"/>
      <point x="224" y="483" type="line"/>
      <point x="221" y="483" type="line"/>
      <point x="178" y="79" type="line"/>
      <point x="276" y="79" type="line"/>
      <point x="268" y="0" type="line"/>
      <point x="16" y="0" type="line"/>
    </contour>
    <contour>
      <point x="313" y="727" type="move" name="top"/>
    </contour>
  </outline>
</glyph>
<glyph name="P" format="1">
  <advance width="566"/>
  <unicode hex="0050"/>
  <outline>
    <contour>
      <point x="20" y="79" type="line"/>
      <point x="95" y="79" type="line"/>
      <point x="147" y="571" type="line"/>
      <point x="71" y="571" type="line"/>
      <point x="80" y="650" type="line"/>
      <point x="348" y="650" type="line" smooth="yes"/>
      <point x="491" y="650"/>
      <point x="558" y="570"/>
      <point x="558" y="464" type="curve" smooth="yes"/>
      <point x="558" y="316"/>
      <point x="452" y="235"/>
      <point x="315" y="235" type="curve" smooth="yes"/>
      <point x="200" y="235" type="line"/>
      <point x="183" y="79" type="line"/>
      <point x="288" y="79" type="line"/>
      <point x="280" y="0" type="line"/>
      <point x="12" y="0" type="line"/>
    </contour>
    <contour>
      <point x="309" y="313" type="line" smooth="yes"/>
      <point x="413" y="313"/>
      <point x="464" y="371"/>
      <point x="464" y="460" type="curve" smooth="yes"/>
      <point x="464" y="530"/>
      <point x="423" y="571"/>
      <point x="332" y="571" type="curve" smooth="yes"/>
      <point x="235" y="571" type="line"/>
      <point x="208" y="313" type="line"/>
    </contour>
  </outline>
</glyph>
<glyph name="S" format="1">
  <advance width="527"/>
  <unicode hex="0053"/>
  <outline>
    <contour>
      <point x="478" y="197" type="curve" smooth="yes"/>
      <point x="478" y="64"/>
      <point x="388" y="-10"/>
      <point x="232" y="-10" type="curve" smooth="yes"/>
      <point x="148" y="-10"/>
      <point x="62" y="12"/>
      <point x="21" y="47" type="curve"/>
      <point x="50" y="185" type="line"/>
      <point x="121" y="178" type="line"/>
      <point x="111" y="97" type="line"/>
      <point x="150" y="75"/>
      <point x="197" y="69"/>
      <point x="230" y="69" type="curve" smooth="yes"/>
      <point x="320" y="69"/>
      <point x="382" y="101"/>
      <point x="382" y="188" type="curve" smooth="yes"/>
      <point x="382" y="274"/>
      <point x="322" y="284"/>
      <point x="247" y="300" type="curve" smooth="yes"/>
      <point x="163" y="319"/>
      <point x="72" y="349"/>
      <point x="72" y="469" type="curve" smooth="yes"/>
      <point x="72" y="605"/>
      <point x="189" y="660"/>
      <point x="301" y="660" type="curve" smooth="yes"/>
      <point x="376" y="660"/>
      <point x="454" y="636"/>
      <point x="490" y="601" type="curve"/>
      <point x="482" y="468" type="line"/>
      <point x="410" y="461" type="line"/>
      <point x="409" y="552" type="line"/>
      <point x="373" y="574"/>
      <point x="333" y="580"/>
      <point x="301" y="580" type="curve" smooth="yes"/>
      <point x="220" y="580"/>
      <point x="166" y="544"/>
      <point x="166" y="478" type="curve" smooth="yes"/>
      <point x="166" y="410"/>
      <point x="221" y="395"/>
      <point x="288" y="379" type="curve" smooth="yes"/>
      <point x="383" y="357"/>
      <point x="478" y="333"/>
    </contour>
  </outline>
</glyph>
<glyph name="V" format="1">
  <advance width="640"/>
  <unicode hex="0056"/>
  <outline>
    <contour>
      <point x="668" y="571" type="line"/>
      <point x="610" y="571" type="line"/>
      <point x="324" y="0" type="line"/>
      <point x="258" y="0" type="line"/>
      <point x="92" y="571" type="line"/>
      <point x="30" y="571" type="line"/>
      <point x="38" y="650" type="line"/>
      <point x="275" y="650" type="line"/>
      <point x="267" y="571" type="line"/>
      <point x="188" y="571" type="line"/>
      <point x="308" y="137" type="line"/>
      <point x="312" y="137" type="line"/>
      <point x="520" y="571" type="line"/>
      <point x="440" y="571" type="line"/>
      <point x="448" y="650" type="line"/>
      <point x="677" y="650" type="line"/>
    </contour>
  </outline>
</glyph>
<glyph name="X" format="1">
  <advance width="623"/>
  <unicode hex="0058"/>
  <outline>
    <contour>
      <point x="587" y="0" type="line"/>
      <point x="356" y="0" type="line"/>
      <point x="364" y="79" type="line"/>
      <point x="433" y="79" type="line"/>
      <point x="308" y="274" type="line"/>
      <point x="149" y="79" type="line"/>
      <point x="216" y="79" type="line"/>
      <point x="208" y="0" type="line"/>
      <point x="-22" y="0" type="line"/>
      <point x="-13" y="79" type="line"/>
      <point x="51" y="79" type="line"/>
      <point x="270" y="335" type="line"/>
      <point x="112" y="571" type="line"/>
      <point x="50" y="571" type="line"/>
      <point x="58" y="650" type="line"/>
      <point x="284" y="650" type="line"/>
      <point x="275" y="571" type="line"/>
      <point x="213" y="571" type="line"/>
      <point x="327" y="397" type="line"/>
      <point x="470" y="571" type="line"/>
      <point x="412" y="571" type="line"/>
      <point x="421" y="650" type="line"/>
      <point x="644" y="650" type="line"/>
      <point x="635" y="571" type="line"/>
      <point x="569" y="571" type="line"/>
      <point x="366" y="337" type="line"/>
      <point x="537" y="79" type="line"/>
      <point x="595" y="79" type="line"/>
    </contour>
  </outline>
</glyph>
<glyph name="Y" format="1">
  <advance width="604"/>
  <unicode hex="0059"/>
  <outline>
    <contour>
      <point x="630" y="571" type="line"/>
      <point x="570" y="571" type="line"/>
      <point x="344" y="251" type="line"/>
      <point x="326" y="79" type="line"/>
      <point x="435" y="79" type="line"/>
      <point x="426" y="0" type="line"/>
      <point x="126" y="0" type="line"/>
      <point x="134" y="79" type="line"/>
      <point x="239" y="79" type="line"/>
      <point x="257" y="251" type="line"/>
      <point x="91" y="571" type="line"/>
      <point x="30" y="571" type="line"/>
      <point x="39" y="650" type="line"/>
      <point x="276" y="650" type="line"/>
      <point x="268" y="571" type="line"/>
      <point x="191" y="571" type="line"/>
      <point x="311" y="332" type="line"/>
      <point x="316" y="332" type="line"/>
      <point x="480" y="571" type="line"/>
      <point x="402" y="571" type="line"/>
      <point x="410" y="650" type="line"/>
      <point x="638" y="650" type="line"/>
    </contour>
  </outline>
</glyph>
<glyph name="bracketleft" format="1">
  <advance width="283"/>
  <unicode hex="005B"/>
  <outline>
    <contour>
      <point x="26" y="-223" type="line"/>
      <point x="212" y="-223" type="line"/>
      <point x="219" y="-161" type="line"/>
      <point x="107" y="-161" type="line"/>
      <point x="197" y="698" type="line"/>
      <point x="309" y="698" type="line"/>
      <point x="316" y="760" type="line"/>
      <point x="130" y="760" type="line"/>
    </contour>
  </outline>
</glyph>
<glyph name="backslash" format="1">
  <advance width="489"/>
  <unicode hex="005C"/>
  <outline>
    <contour>
      <point x="58" y="688" type="line"/>
      <point x="343" y="0" type="line"/>
      <point x="424" y="0" type="line"/>
      <point x="140" y="688" type="line"/>
    </contour>
  </outline>
</glyph>
<glyph name="bracketright" format="1">
  <advance width="282"/>
  <unicode hex="005D"/>
  <outline>
    <contour>
      <point x="255" y="760" type="line"/>
      <point x="69" y="760" type="line"/>
      <point x="62" y="698" type="line"/>
      <point x="174" y="698" type="line"/>
      <point x="84" y="-161" type="line"/>
      <point x="-28" y="-161" type="line"/>
      <point x="-35" y="-223" type="line"/>
      <point x="151" y="-223" type="line"/>
    </contour>
  </outline>
</glyph>
<glyph name="asciicircum" format="1">
  <advance width="450"/>
  <unicode hex="005E"/>
  <outline>
    <contour>
      <point x="236" y="654" type="line"/>
      <point x="48" y="371" type="line"/>
      <point x="128" y="371" type="line"/>
      <point x="255" y="569" type="line"/>
      <point x="345" y="371" type="line"/>
      <point x="424" y="371" type="line"/>
      <point x="291" y="654" type="line"/>
    </contour>
  </outline>
</glyph>
<glyph name="underscore" format="1">
  <advance width="517"/>
  <unicode hex="005F"/>
  <outline>
    <contour>
      <point x="11" y="-72" type="line"/>
      <point x="435" y="-72" type="line"/>
      <point x="429" y="-133" type="line"/>
      <point x="5" y="-133" type="line"/>
    </contour>
  </outline>
</glyph>
<glyph name="b" format="1">
  <advance width="507"/>
  <unicode hex="0062"/>
  <outline>
    <contour>
      <point x="48" y="667" type="line"/>
      <point x="72" y="688" type="line"/>
      <point x="204" y="688" type="line"/>
      <point x="164" y="362" type="line"/>
      <point x="193" y="414"/>
      <point x="238" y="456"/>
      <point x="311" y="456" type="curve" smooth="yes"/>
      <point x="414" y="456"/>
      <point x="469" y="377"/>
      <point x="469" y="266" type="curve" smooth="yes"/>
      <point x="469" y="147"/>
      <point x="411" y="-10"/>
      <point x="258" y="-10" type="curve" smooth="yes"/>
      <point x="192" y="-10"/>
      <point x="144" y="20"/>
      <point x="124" y="71" type="curve"/>
      <point x="118" y="47"/>
      <point x="112" y="24"/>
      <point x="105" y="0" type="curve"/>
      <point x="22" y="0" type="line"/>
      <point x="34" y="41"/>
      <point x="47" y="88"/>
      <point x="52" y="132" type="curve" smooth="yes"/>
      <point x="110" y="619" type="line"/>
      <point x="42" y="619" type="line"/>
    </contour>
    <contour>
      <point x="249" y="59" type="curve" smooth="yes"/>
      <point x="343" y="59"/>
      <point x="378" y="174"/>
      <point x="378" y="255" type="curve" smooth="yes"/>
      <point x="378" y="336"/>
      <point x="347" y="387"/>
      <point x="284" y="387" type="curve" smooth="yes"/>
      <point x="213" y="387"/>
      <point x="166" y="319"/>
      <point x="152" y="256" type="curve"/>
      <point x="141" y="167" type="line"/>
      <point x="143" y="104"/>
      <point x="186" y="59"/>
    </contour>
    <contour>
      <point x="225" y="566" type="move" name="top"/>
    </contour>
  </outline>
</glyph>
<glyph name="c" format="1">
  <advance width="440"/>
  <unicode hex="0063"/>
  <outline>
    <contour>
      <point x="248" y="387" type="curve" smooth="yes"/>
      <point x="157" y="387"/>
      <point x="117" y="295"/>
      <point x="117" y="193" type="curve" smooth="yes"/>
      <point x="117" y="111"/>
      <point x="143" y="59"/>
      <point x="213" y="59" type="curve" smooth="yes"/>
      <point x="272" y="59"/>
      <point x="306" y="97"/>
      <point x="328" y="170" type="curve"/>
      <point x="396" y="155" type="line"/>
      <point x="377" y="75"/>
      <point x="320" y="-10"/>
      <point x="201" y="-10" type="curve" smooth="yes"/>
      <point x="91" y="-10"/>
      <point x="26" y="64"/>
      <point x="26" y="188" type="curve" smooth="yes"/>
      <point x="26" y="310"/>
      <point x="88" y="456"/>
      <point x="249" y="456" type="curve"/>
      <point x="303" y="456"/>
      <point x="353" y="443"/>
      <point x="396" y="412" type="curve"/>
      <point x="401" y="297" type="line"/>
      <point x="330" y="289" type="line"/>
      <point x="322" y="366" type="line"/>
      <point x="297" y="382"/>
      <point x="274" y="387"/>
    </contour>
  </outline>
</glyph>
<glyph name="l" format="1">
  <advance width="244"/>
  <unicode hex="006C"/>
  <outline>
    <contour>
      <point x="50" y="667" type="line"/>
      <point x="74" y="688" type="line"/>
      <point x="210" y="688" type="line"/>
      <point x="134" y="69" type="line"/>
      <point x="204" y="69" type="line"/>
      <point x="197" y="19" type="line"/>
      <point x="174" y="0" type="line"/>
      <point x="41" y="0" type="line"/>
      <point x="116" y="619" type="line"/>
      <point x="44" y="619" type="line"/>
    </contour>
    <contour>
      <point x="234" y="566" type="move" name="top"/>
    </contour>
  </outline>
</glyph>
<glyph name="p" format="1">
  <advance width="524"/>
  <unicode hex="0070"/>
  <outline>
    <contour>
      <point x="210" y="-192" type="line"/>
      <point x="185" y="-213" type="line"/>
      <point x="-35" y="-213" type="line"/>
      <point x="-29" y="-166" type="line"/>
      <point x="-5" y="-144" type="line"/>
      <point x="35" y="-144" type="line"/>
      <point x="99" y="378" type="line"/>
      <point x="27" y="378" type="line"/>
      <point x="33" y="425" type="line"/>
      <point x="57" y="447" type="line"/>
      <point x="179" y="447" type="line"/>
      <point x="177" y="353" type="line"/>
      <point x="206" y="409"/>
      <point x="252" y="456"/>
      <point x="328" y="456" type="curve" smooth="yes"/>
      <point x="431" y="456"/>
      <point x="486" y="377"/>
      <point x="486" y="266" type="curve" smooth="yes"/>
      <point x="486" y="147"/>
      <point x="429" y="-10"/>
      <point x="274" y="-10" type="curve" smooth="yes"/>
      <point x="212" y="-10"/>
      <point x="167" y="17"/>
      <point x="145" y="63" type="curve"/>
      <point x="119" y="-144" type="line"/>
      <point x="215" y="-144" type="line"/>
    </contour>
    <contour>
      <point x="266" y="59" type="curve" smooth="yes"/>
      <point x="360" y="59"/>
      <point x="395" y="174"/>
      <point x="395" y="255" type="curve" smooth="yes"/>
      <point x="395" y="336"/>
      <point x="362" y="387"/>
      <point x="301" y="387" type="curve" smooth="yes"/>
      <point x="226" y="387"/>
      <point x="179" y="310"/>
      <point x="167" y="245" type="curve"/>
      <point x="159" y="176" type="line"/>
      <point x="157" y="109"/>
      <point x="199" y="59"/>
    </contour>
    <contour>
      <point x="266" y="566" type="move" name="top"/>
    </contour>
  </outline>
</glyph>
<glyph name="y" format="1">
  <advance width="472"/>
  <unicode hex="0079"/>
  <outline>
    <contour>
      <point x="238" y="101" type="line"/>
      <point x="244" y="101" type="line"/>
      <point x="322" y="193"/>
      <point x="360" y="270"/>
      <point x="360" y="354" type="curve" smooth="yes"/>
      <point x="360" y="383"/>
      <point x="355" y="414"/>
      <point x="341" y="447" type="curve"/>
      <point x="438" y="447" type="line"/>
      <point x="457" y="365"/>
      <point x="446" y="278"/>
      <point x="384" y="186" type="curve" smooth="yes"/>
      <point x="356" y="143"/>
      <point x="306" y="82"/>
      <point x="255" y="30" type="curve"/>
      <point x="231" y="-144" type="line"/>
      <point x="304" y="-144" type="line"/>
      <point x="299" y="-192" type="line"/>
      <point x="274" y="-213" type="line"/>
      <point x="64" y="-213" type="line"/>
      <point x="70" y="-166" type="line"/>
      <point x="94" y="-144" type="line"/>
      <point x="147" y="-144" type="line"/>
      <point x="172" y="33" type="line"/>
      <point x="65" y="378" type="line"/>
      <point x="11" y="378" type="line"/>
      <point x="17" y="425" type="line"/>
      <point x="41" y="447" type="line"/>
      <point x="237" y="447" type="line"/>
      <point x="231" y="398" type="line"/>
      <point x="207" y="378" type="line"/>
      <point x="154" y="378" type="line"/>
    </contour>
  </outline>
</glyph>
<glyph name="braceleft" format="1">
  <advance width="282"/>
  <unicode hex="007B"/>
  <outline>
    <contour>
      <point x="110" y="267" type="curve"/>
      <point x="193" y="279"/>
      <point x="223" y="320"/>
      <point x="223" y="361" type="curve" smooth="yes"/>
      <point x="223" y="423"/>
      <point x="166" y="538"/>
      <point x="166" y="620" type="curve" smooth="yes"/>
      <point x="166" y="674"/>
      <point x="190" y="698"/>
      <point x="236" y="698" type="curve" smooth="yes"/>
      <point x="299" y="698" type="line"/>
      <point x="305" y="760" type="line"/>
      <point x="242" y="760" type="line" smooth="yes"/>
      <point x="142" y="760"/>
      <point x="95" y="701"/>
      <point x="95" y="617" type="curve" smooth="yes"/>
      <point x="95" y="524"/>
      <point x="149" y="411"/>
      <point x="149" y="355" type="curve" smooth="yes"/>
      <point x="149" y="299"/>
      <point x="77" y="289"/>
      <point x="46" y="289" type="curve" smooth="yes"/>
      <point x="28" y="289" type="line"/>
      <point x="23" y="245" type="line"/>
      <point x="41" y="245" type="line" smooth="yes"/>
      <point x="71" y="245"/>
      <point x="131" y="236"/>
      <point x="131" y="189" type="curve" smooth="yes"/>
      <point x="131" y="128"/>
      <point x="17" y="-4"/>
      <point x="17" y="-113" type="curve" smooth="yes"/>
      <point x="17" y="-175"/>
      <point x="54" y="-223"/>
      <point x="139" y="-223" type="curve" smooth="yes"/>
      <point x="202" y="-223" type="line"/>
      <point x="209" y="-160" type="line"/>
      <point x="146" y="-160" type="line" smooth="yes"/>
      <point x="109" y="-160"/>
      <point x="90" y="-143"/>
      <point x="90" y="-106" type="curve" smooth="yes"/>
      <point x="90" y="-14"/>
      <point x="204" y="118"/>
      <point x="204" y="186" type="curve" smooth="yes"/>
      <point x="204" y="222"/>
      <point x="179" y="256"/>
    </contour>
  </outline>
</glyph>
<glyph name="bar" format="1">
  <advance width="232"/>
  <unicode hex="007C"/>
  <outline>
    <contour>
      <point x="201" y="730" type="line"/>
      <point x="116" y="-80" type="line"/>
      <point x="41" y="-80" type="line"/>
      <point x="126" y="730" type="line"/>
    </contour>
  </outline>
</glyph>
<glyph name="asciitilde" format="1">
  <advance width="590"/>
  <unicode hex="007E"/>
  <outline>
    <contour>
      <point x="390" y="193" type="curve" smooth="yes"/>
      <point x="455" y="193"/>
      <point x="508" y="235"/>
      <point x="557" y="311" type="curve"/>
      <point x="505" y="348" type="line"/>
      <point x="465" y="289"/>
      <point x="438" y="273"/>
      <point x="398" y="273" type="curve" smooth="yes"/>
      <point x="314" y="273"/>
      <point x="273" y="343"/>
      <point x="193" y="343" type="curve" smooth="yes"/>
      <point x="138" y="343"/>
      <point x="81" y="308"/>
      <point x="35" y="232" type="curve"/>
      <point x="82" y="199" type="line"/>
      <point x="121" y="253"/>
      <point x="152" y="263"/>
      <point x="181" y="263" type="curve" smooth="yes"/>
      <point x="259" y="263"/>
      <point x="303" y="193"/>
    </contour>
  </outline>
</glyph>
<glyph name="exclamdown" format="1">
  <advance width="226"/>
  <unicode hex="00A1"/>
  <outline>
    <contour>
      <point x="12" y="-200" type="line"/>
      <point x="78" y="247" type="line"/>
      <point x="142" y="247" type="line"/>
      <point x="114" y="-200" type="line"/>
    </contour>
    <contour>
      <point x="180" y="450" type="line"/>
      <point x="75" y="450" type="line"/>
      <point x="64" y="339" type="line"/>
      <point x="168" y="339" type="line"/>
    </contour>
  </outline>
</glyph>
<glyph name="cent" format="1">
  <advance width="452"/>
  <unicode hex="00A2"/>
  <outline>
    <contour>
      <point x="170" y="-84" type="line"/>
      <point x="178" y="-8" type="line"/>
      <point x="85" y="3"/>
      <point x="31" y="75"/>
      <point x="31" y="188" type="curve" smooth="yes"/>
      <point x="31" y="302"/>
      <point x="86" y="438"/>
      <point x="226" y="454" type="curve"/>
      <point x="234" y="529" type="line"/>
      <point x="286" y="529" type="line"/>
      <point x="278" y="455" type="line"/>
      <point x="323" y="451"/>
      <point x="364" y="438"/>
      <point x="401" y="412" type="curve"/>
      <point x="406" y="297" type="line"/>
      <point x="335" y="289" type="line"/>
      <point x="327" y="366" type="line"/>
      <point x="308" y="378"/>
      <point x="290" y="384"/>
      <point x="271" y="386" type="curve"/>
      <point x="237" y="60" type="line"/>
      <point x="284" y="68"/>
      <point x="313" y="105"/>
      <point x="333" y="170" type="curve"/>
      <point x="401" y="155" type="line"/>
      <point x="383" y="80"/>
      <point x="333" y="2"/>
      <point x="230" y="-8" type="curve"/>
      <point x="222" y="-84" type="line"/>
    </contour>
    <contour>
      <point x="122" y="193" type="curve" smooth="yes"/>
      <point x="122" y="125"/>
      <point x="139" y="78"/>
      <point x="185" y="63" type="curve"/>
      <point x="218" y="382" type="line"/>
      <point x="152" y="361"/>
      <point x="122" y="281"/>
    </contour>
  </outline>
</glyph>
<glyph name="sterling" format="1">
  <advance width="494"/>
  <unicode hex="00A3"/>
  <outline>
    <contour>
      <point x="44" y="283" type="line"/>
      <point x="107" y="283" type="line"/>
      <point x="112" y="334" type="line" smooth="yes"/>
      <point x="126" y="473"/>
      <point x="213" y="529"/>
      <point x="300" y="529" type="curve" smooth="yes"/>
      <point x="355" y="529"/>
      <point x="404" y="515"/>
      <point x="437" y="486" type="curve"/>
      <point x="440" y="369" type="line"/>
      <point x="370" y="363" type="line"/>
      <point x="363" y="444" type="line"/>
      <point x="343" y="456"/>
      <point x="322" y="459"/>
      <point x="304" y="459" type="curve" smooth="yes"/>
      <point x="244" y="459"/>
      <point x="207" y="427"/>
      <point x="198" y="335" type="curve" smooth="yes"/>
      <point x="193" y="283" type="line"/>
      <point x="357" y="283" type="line"/>
      <point x="351" y="228" type="line"/>
      <point x="187" y="228" type="line"/>
      <point x="185" y="205" type="line" smooth="yes"/>
      <point x="180" y="159"/>
      <point x="167" y="102"/>
      <point x="109" y="68" type="curve"/>
      <point x="277" y="68" type="line" smooth="yes"/>
      <point x="336" y="68"/>
      <point x="368" y="93"/>
      <point x="396" y="124" type="curve"/>
      <point x="433" y="83" type="line"/>
      <point x="418" y="56"/>
      <point x="364" y="0"/>
      <point x="287" y="0" type="curve" smooth="yes"/>
      <point x="13" y="0" type="line"/>
      <point x="20" y="66" type="line"/>
      <point x="80" y="95"/>
      <point x="93" y="146"/>
      <point x="99" y="205" type="curve" smooth="yes"/>
      <point x="101" y="228" type="line"/>
      <point x="38" y="228" type="line"/>
    </contour>
  </outline>
</glyph>
<glyph name="currency" format="1">
  <advance width="493"/>
  <unicode hex="00A4"/>
  <outline>
    <contour>
      <point x="97" y="254" type="curve" smooth="yes"/>
      <point x="97" y="228"/>
      <point x="103" y="203"/>
      <point x="115" y="183" type="curve"/>
      <point x="16" y="91" type="line"/>
      <point x="47" y="56" type="line"/>
      <point x="146" y="146" type="line"/>
      <point x="168" y="128"/>
      <point x="197" y="117"/>
      <point x="230" y="117" type="curve" smooth="yes"/>
      <point x="262" y="117"/>
      <point x="294" y="128"/>
      <point x="320" y="146" type="curve"/>
      <point x="400" y="56" type="line"/>
      <point x="438" y="91" type="line"/>
      <point x="359" y="182" type="line"/>
      <point x="380" y="210"/>
      <point x="394" y="244"/>
      <point x="394" y="281" type="curve" smooth="yes"/>
      <point x="394" y="306"/>
      <point x="387" y="330"/>
      <point x="376" y="350" type="curve"/>
      <point x="475" y="441" type="line"/>
      <point x="444" y="476" type="line"/>
      <point x="347" y="387" type="line"/>
      <point x="324" y="407"/>
      <point x="294" y="419"/>
      <point x="260" y="419" type="curve" smooth="yes"/>
      <point x="227" y="419"/>
      <point x="195" y="407"/>
      <point x="168" y="388" type="curve"/>
      <point x="91" y="476" type="line"/>
      <point x="53" y="441" type="line"/>
      <point x="130" y="351" type="line"/>
      <point x="110" y="324"/>
      <point x="97" y="290"/>
    </contour>
    <contour>
      <point x="171" y="263" type="curve" smooth="yes"/>
      <point x="173" y="314"/>
      <point x="212" y="350"/>
      <point x="254" y="350" type="curve" smooth="yes"/>
      <point x="293" y="350"/>
      <point x="320" y="320"/>
      <point x="320" y="277" type="curve" smooth="yes"/>
      <point x="320" y="225"/>
      <point x="282" y="187"/>
      <point x="238" y="187" type="curve" smooth="yes"/>
      <point x="199" y="187"/>
      <point x="170" y="217"/>
    </contour>
  </outline>
</glyph>
<glyph name="section" format="1">
  <advance width="590"/>
  <unicode hex="00A7"/>
  <outline>
    <contour>
      <point x="487" y="151" type="curve" smooth="yes"/>
      <point x="487" y="170"/>
      <point x="483" y="185"/>
      <point x="475" y="196" type="curve"/>
      <point x="524" y="220"/>
      <point x="560" y="256"/>
      <point x="560" y="309" type="curve" smooth="yes"/>
      <point x="560" y="415"/>
      <point x="414" y="422"/>
      <point x="314" y="440" type="curve" smooth="yes"/>
      <point x="248" y="452"/>
      <point x="197" y="468"/>
      <point x="197" y="520" type="curve" smooth="yes"/>
      <point x="197" y="573"/>
      <point x="251" y="596"/>
      <point x="318" y="596" type="curve" smooth="yes"/>
      <point x="358" y="596"/>
      <point x="404" y="587"/>
      <point x="435" y="571" type="curve"/>
      <point x="436" y="485" type="line"/>
      <point x="507" y="492" type="line"/>
      <point x="511" y="620" type="line"/>
      <point x="453" y="649"/>
      <point x="384" y="660"/>
      <point x="327" y="660" type="curve" smooth="yes"/>
      <point x="195" y="660"/>
      <point x="109" y="602"/>
      <point x="109" y="509" type="curve" smooth="yes"/>
      <point x="109" y="479"/>
      <point x="118" y="458"/>
      <point x="132" y="442" type="curve"/>
      <point x="80" y="420"/>
      <point x="42" y="385"/>
      <point x="42" y="335" type="curve" smooth="yes"/>
      <point x="42" y="246"/>
      <point x="162" y="228"/>
      <point x="260" y="216" type="curve"/>
      <point x="344" y="203"/>
      <point x="401" y="197"/>
      <point x="401" y="140" type="curve" smooth="yes"/>
      <point x="401" y="82"/>
      <point x="344" y="54"/>
      <point x="273" y="54" type="curve" smooth="yes"/>
      <point x="234" y="54"/>
      <point x="171" y="62"/>
      <point x="135" y="81" type="curve"/>
      <point x="146" y="153" type="line"/>
      <point x="79" y="161" type="line"/>
      <point x="52" y="44" type="line"/>
      <point x="108" y="8"/>
      <point x="203" y="-10"/>
      <point x="272" y="-10" type="curve" smooth="yes"/>
      <point x="402" y="-10"/>
      <point x="487" y="54"/>
    </contour>
    <contour>
      <point x="479" y="293" type="curve" smooth="yes"/>
      <point x="479" y="269"/>
      <point x="463" y="254"/>
      <point x="435" y="243" type="curve"/>
      <point x="399" y="263"/>
      <point x="352" y="271"/>
      <point x="297" y="279" type="curve" smooth="yes"/>
      <point x="179" y="297"/>
      <point x="124" y="306"/>
      <point x="124" y="349" type="curve" smooth="yes"/>
      <point x="124" y="376"/>
      <point x="145" y="395"/>
      <point x="174" y="406" type="curve"/>
      <point x="203" y="391"/>
      <point x="241" y="383"/>
      <point x="276" y="377" type="curve" smooth="yes"/>
      <point x="363" y="363"/>
      <point x="479" y="356"/>
    </contour>
  </outline>
</glyph>
<glyph name="dieresis" format="1">
  <advance width="392"/>
  <unicode hex="00A8"/>
  <outline>
    <contour>
      <point x="117" y="548" type="line"/>
      <point x="209" y="548" type="line"/>
      <point x="220" y="647" type="line"/>
      <point x="127" y="647" type="line"/>
    </contour>
    <contour>
      <point x="289" y="548" type="line"/>
      <point x="382" y="548" type="line"/>
      <point x="392" y="647" type="line"/>
      <point x="299" y="647" type="line"/>
    </contour>
  </outline>
</glyph>
<glyph name="copyright" format="1">
  <advance width="604"/>
  <unicode hex="00A9"/>
  <outline>
    <contour>
      <point x="594" y="285" type="curve" smooth="yes"/>
      <point x="594" y="421"/>
      <point x="497" y="529"/>
      <point x="357" y="529" type="curve" smooth="yes"/>
      <point x="202" y="529"/>
      <point x="65" y="396"/>
      <point x="65" y="236" type="curve" smooth="yes"/>
      <point x="65" y="99"/>
      <point x="165" y="-7"/>
      <point x="303" y="-7" type="curve" smooth="yes"/>
      <point x="455" y="-7"/>
      <point x="594" y="123"/>
    </contour>
    <contour>
      <point x="544" y="283" type="curve" smooth="yes"/>
      <point x="544" y="150"/>
      <point x="438" y="41"/>
      <point x="306" y="41" type="curve" smooth="yes"/>
      <point x="189" y="41"/>
      <point x="115" y="128"/>
      <point x="115" y="239" type="curve" smooth="yes"/>
      <point x="115" y="369"/>
      <point x="217" y="480"/>
      <point x="352" y="480" type="curve" smooth="yes"/>
      <point x="472" y="480"/>
      <point x="544" y="392"/>
    </contour>
    <contour>
      <point x="429" y="132" type="curve"/>
      <point x="444" y="199" type="line"/>
      <point x="405" y="203" type="line"/>
      <point x="391" y="154" type="line"/>
      <point x="372" y="144"/>
      <point x="350" y="140"/>
      <point x="330" y="140" type="curve" smooth="yes"/>
      <point x="260" y="140"/>
      <point x="228" y="178"/>
      <point x="228" y="247" type="curve" smooth="yes"/>
      <point x="228" y="329"/>
      <point x="273" y="386"/>
      <point x="348" y="386" type="curve" smooth="yes"/>
      <point x="379" y="386"/>
      <point x="399" y="378"/>
      <point x="415" y="366" type="curve"/>
      <point x="418" y="319" type="line"/>
      <point x="459" y="323" type="line"/>
      <point x="457" y="390" type="line"/>
      <point x="433" y="414"/>
      <point x="393" y="427"/>
      <point x="351" y="427" type="curve" smooth="yes"/>
      <point x="247" y="427"/>
      <point x="175" y="345"/>
      <point x="175" y="242" type="curve" smooth="yes"/>
      <point x="175" y="153"/>
      <point x="230" y="99"/>
      <point x="318" y="99" type="curve" smooth="yes"/>
      <point x="357" y="99"/>
      <point x="402" y="110"/>
    </contour>
  </outline>
</glyph>
<glyph name="ordfeminine" format="1">
  <advance width="383"/>
  <unicode hex="00AA"/>
  <outline>
    <contour>
      <point x="364" y="696" type="line"/>
      <point x="354" y="664"/>
      <point x="345" y="631"/>
      <point x="341" y="598" type="curve" smooth="yes"/>
      <point x="323" y="458" type="line"/>
      <point x="364" y="458" type="line"/>
      <point x="360" y="420" type="line"/>
      <point x="343" y="405" type="line"/>
      <point x="263" y="405" type="line"/>
      <point x="263" y="465" type="line"/>
      <point x="244" y="428"/>
      <point x="213" y="398"/>
      <point x="162" y="398" type="curve" smooth="yes"/>
      <point x="96" y="398"/>
      <point x="62" y="450"/>
      <point x="62" y="522" type="curve" smooth="yes"/>
      <point x="62" y="600"/>
      <point x="100" y="702"/>
      <point x="201" y="702" type="curve" smooth="yes"/>
      <point x="245" y="702"/>
      <point x="275" y="681"/>
      <point x="288" y="648" type="curve"/>
      <point x="292" y="664"/>
      <point x="296" y="680"/>
      <point x="302" y="696" type="curve"/>
    </contour>
    <contour>
      <point x="210" y="650" type="curve" smooth="yes"/>
      <point x="151" y="650"/>
      <point x="131" y="587"/>
      <point x="131" y="531" type="curve" smooth="yes"/>
      <point x="131" y="480"/>
      <point x="149" y="451"/>
      <point x="185" y="451" type="curve" smooth="yes"/>
      <point x="227" y="451"/>
      <point x="258" y="490"/>
      <point x="268" y="526" type="curve"/>
      <point x="275" y="581" type="line"/>
      <point x="275" y="624"/>
      <point x="246" y="650"/>
    </contour>
  </outline>
</glyph>
<glyph name="guillemotleft" format="1">
  <advance width="447"/>
  <unicode hex="00AB"/>
  <outline>
    <contour>
      <point x="217" y="25" type="line"/>
      <point x="119" y="271" type="line"/>
      <point x="268" y="511" type="line"/>
      <point x="195" y="511" type="line"/>
      <point x="35" y="271" type="line"/>
      <point x="144" y="25" type="line"/>
    </contour>
    <contour>
      <point x="379" y="25" type="line"/>
      <point x="282" y="271" type="line"/>
      <point x="430" y="511" type="line"/>
      <point x="358" y="511" type="line"/>
      <point x="198" y="271" type="line"/>
      <point x="307" y="25" type="line"/>
    </contour>
  </outline>
</glyph>
<glyph name="logicalnot" format="1">
  <advance width="581"/>
  <unicode hex="00AC"/>
  <outline>
    <contour>
      <point x="444" y="92" type="line"/>
      <point x="505" y="92" type="line"/>
      <point x="528" y="313" type="line"/>
      <point x="57" y="313" type="line"/>
      <point x="51" y="250" type="line"/>
      <point x="460" y="250" type="line"/>
    </contour>
  </outline>
</glyph>
<glyph name="degree" format="1">
  <advance width="381"/>
  <unicode hex="00B0"/>
  <outline>
    <contour>
      <point x="197" y="342" type="curve" smooth="yes"/>
      <point x="301" y="342"/>
      <point x="371" y="420"/>
      <point x="371" y="518" type="curve" smooth="yes"/>
      <point x="371" y="597"/>
      <point x="323" y="660"/>
      <point x="231" y="660" type="curve" smooth="yes"/>
      <point x="130" y="660"/>
      <point x="56" y="582"/>
      <point x="56" y="483" type="curve" smooth="yes"/>
      <point x="56" y="403"/>
      <point x="107" y="342"/>
    </contour>
    <contour>
      <point x="204" y="406" type="curve"/>
      <point x="158" y="406"/>
      <point x="127" y="434"/>
      <point x="127" y="488" type="curve" smooth="yes"/>
      <point x="127" y="559"/>
      <point x="171" y="596"/>
      <point x="224" y="596" type="curve" smooth="yes"/>
      <point x="268" y="596"/>
      <point x="299" y="568"/>
      <point x="299" y="513" type="curve" smooth="yes"/>
      <point x="299" y="443"/>
      <point x="257" y="406"/>
    </contour>
  </outline>
</glyph>
<glyph name="threesuperior" format="1">
  <advance width="338"/>
  <unicode hex="00B3"/>
  <outline>
    <contour>
      <point x="138" y="669" type="line"/>
      <point x="154" y="716" type="line"/>
      <point x="172" y="726"/>
      <point x="189" y="730"/>
      <point x="207" y="730" type="curve" smooth="yes"/>
      <point x="242" y="730"/>
      <point x="259" y="715"/>
      <point x="259" y="688" type="curve" smooth="yes"/>
      <point x="259" y="650"/>
      <point x="229" y="628"/>
      <point x="171" y="625" type="curve"/>
      <point x="167" y="583" type="line"/>
      <point x="229" y="580"/>
      <point x="256" y="565"/>
      <point x="256" y="527" type="curve" smooth="yes"/>
      <point x="256" y="491"/>
      <point x="231" y="462"/>
      <point x="184" y="462" type="curve" smooth="yes"/>
      <point x="137" y="462"/>
      <point x="115" y="490"/>
      <point x="111" y="521" type="curve"/>
      <point x="58" y="506" type="line"/>
      <point x="62" y="440"/>
      <point x="115" y="408"/>
      <point x="185" y="408" type="curve" smooth="yes"/>
      <point x="267" y="408"/>
      <point x="331" y="451"/>
      <point x="331" y="523" type="curve" smooth="yes"/>
      <point x="331" y="563"/>
      <point x="311" y="597"/>
      <point x="257" y="607" type="curve"/>
      <point x="257" y="609" type="line"/>
      <point x="312" y="628"/>
      <point x="335" y="663"/>
      <point x="335" y="700" type="curve" smooth="yes"/>
      <point x="335" y="751"/>
      <point x="291" y="784"/>
      <point x="223" y="784" type="curve" smooth="yes"/>
      <point x="185" y="784"/>
      <point x="137" y="773"/>
      <point x="104" y="751" type="curve"/>
      <point x="86" y="674" type="line"/>
    </contour>
  </outline>
</glyph>
<glyph name="paragraph" format="1">
  <advance width="618"/>
  <unicode hex="00B6"/>
  <outline>
    <contour>
      <point x="618" y="650" type="line"/>
      <point x="610" y="574" type="line"/>
      <point x="539" y="574" type="line"/>
      <point x="478" y="0" type="line"/>
      <point x="398" y="0" type="line"/>
      <point x="458" y="574" type="line"/>
      <point x="403" y="574" type="line"/>
      <point x="342" y="0" type="line"/>
      <point x="261" y="0" type="line"/>
      <point x="294" y="310" type="line"/>
      <point x="240" y="310" type="line" smooth="yes"/>
      <point x="131" y="310"/>
      <point x="48" y="352"/>
      <point x="48" y="464" type="curve" smooth="yes"/>
      <point x="48" y="566"/>
      <point x="128" y="650"/>
      <point x="282" y="650" type="curve" smooth="yes"/>
    </contour>
  </outline>
</glyph>
<glyph name="periodcentered" format="1">
  <advance width="219"/>
  <unicode hex="00B7"/>
  <outline>
    <contour>
      <point x="52" y="255" type="line"/>
      <point x="162" y="255" type="line"/>
      <point x="174" y="374" type="line"/>
      <point x="64" y="374" type="line"/>
    </contour>
  </outline>
</glyph>
<glyph name="cedilla" format="1">
  <advance width="251"/>
  <unicode hex="00B8"/>
  <outline>
    <contour>
      <point x="173" y="6" type="line"/>
      <point x="166" y="-45" type="line"/>
      <point x="174" y="-45" type="line" smooth="yes"/>
      <point x="231" y="-45"/>
      <point x="253" y="-76"/>
      <point x="253" y="-117" type="curve" smooth="yes"/>
      <point x="253" y="-182"/>
      <point x="193" y="-209"/>
      <point x="131" y="-209" type="curve" smooth="yes"/>
      <point x="92" y="-209"/>
      <point x="55" y="-199"/>
      <point x="35" y="-179" type="curve"/>
      <point x="58" y="-130" type="line"/>
      <point x="73" y="-141"/>
      <point x="99" y="-153"/>
      <point x="130" y="-153" type="curve" smooth="yes"/>
      <point x="161" y="-153"/>
      <point x="179" y="-141"/>
      <point x="179" y="-115" type="curve" smooth="yes"/>
      <point x="179" y="-89"/>
      <point x="163" y="-82"/>
      <point x="132" y="-82" type="curve" smooth="yes"/>
      <point x="101" y="-82" type="line"/>
      <point x="112" y="6" type="line"/>
    </contour>
  </outline>
</glyph>
<glyph name="onesuperior" format="1">
  <advance width="260"/>
  <unicode hex="00B9"/>
  <outline>
    <contour>
      <point x="52" y="469" type="line"/>
      <point x="124" y="469" type="line"/>
      <point x="151" y="725" type="line"/>
      <point x="79" y="725" type="line"/>
      <point x="84" y="779" type="line"/>
      <point x="227" y="779" type="line"/>
      <point x="194" y="469" type="line"/>
      <point x="263" y="469" type="line"/>
      <point x="257" y="415" type="line"/>
      <point x="46" y="415" type="line"/>
    </contour>
  </outline>
</glyph>
<glyph name="ordmasculine" format="1">
  <advance width="350"/>
  <unicode hex="00BA"/>
  <outline>
    <contour>
      <point x="61" y="529" type="curve" smooth="yes"/>
      <point x="61" y="620"/>
      <point x="113" y="702"/>
      <point x="219" y="702" type="curve" smooth="yes"/>
      <point x="308" y="702"/>
      <point x="345" y="645"/>
      <point x="345" y="569" type="curve" smooth="yes"/>
      <point x="345" y="469"/>
      <point x="284" y="398"/>
      <point x="185" y="398" type="curve" smooth="yes"/>
      <point x="104" y="398"/>
      <point x="61" y="447"/>
    </contour>
    <contour>
      <point x="130" y="535" type="curve" smooth="yes"/>
      <point x="130" y="484"/>
      <point x="144" y="451"/>
      <point x="192" y="451" type="curve" smooth="yes"/>
      <point x="253" y="451"/>
      <point x="277" y="504"/>
      <point x="277" y="566" type="curve" smooth="yes"/>
      <point x="277" y="620"/>
      <point x="260" y="650"/>
      <point x="213" y="650" type="curve" smooth="yes"/>
      <point x="157" y="650"/>
      <point x="130" y="607"/>
    </contour>
    <contour>
      <point x="163" y="338" type="move" name="top"/>
    </contour>
  </outline>
</glyph>
<glyph name="guillemotright" format="1">
  <advance width="448"/>
  <unicode hex="00BB"/>
  <outline>
    <contour>
      <point x="250" y="25" type="line"/>
      <point x="412" y="271" type="line"/>
      <point x="301" y="511" type="line"/>
      <point x="229" y="511" type="line"/>
      <point x="327" y="271" type="line"/>
      <point x="178" y="25" type="line"/>
    </contour>
    <contour>
      <point x="88" y="25" type="line"/>
      <point x="249" y="271" type="line"/>
      <point x="139" y="511" type="line"/>
      <point x="66" y="511" type="line"/>
      <point x="164" y="271" type="line"/>
      <point x="15" y="25" type="line"/>
    </contour>
  </outline>
</glyph>
<glyph name="onequarter" format="1">
  <advance width="702"/>
  <unicode hex="00BC"/>
  <outline>
    <contour>
      <point x="517" y="0" type="line"/>
      <point x="585" y="0" type="line"/>
      <point x="594" y="93" type="line"/>
      <point x="650" y="93" type="line"/>
      <point x="661" y="143" type="line"/>
      <point x="600" y="143" type="line"/>
      <point x="623" y="364" type="line"/>
      <point x="497" y="364" type="line"/>
      <point x="353" y="145" type="line"/>
      <point x="354" y="93" type="line"/>
      <point x="527" y="93" type="line"/>
    </contour>
    <contour>
      <point x="600" y="650" type="line"/>
      <point x="381" y="325" type="line"/>
      <point x="168" y="0" type="line"/>
      <point x="106" y="0" type="line"/>
      <point x="334" y="337" type="line"/>
      <point x="539" y="650" type="line"/>
    </contour>
    <contour>
      <point x="46" y="340" type="line"/>
      <point x="118" y="340" type="line"/>
      <point x="145" y="596" type="line"/>
      <point x="73" y="596" type="line"/>
      <point x="78" y="650" type="line"/>
      <point x="221" y="650" type="line"/>
      <point x="188" y="340" type="line"/>
      <point x="257" y="340" type="line"/>
      <point x="251" y="286" type="line"/>
      <point x="40" y="286" type="line"/>
    </contour>
    <contour>
      <point x="522" y="310" type="line"/>
      <point x="550" y="310" type="line"/>
      <point x="532" y="143" type="line"/>
      <point x="413" y="143" type="line"/>
    </contour>
  </outline>
</glyph>
<glyph name="onehalf" format="1">
  <advance width="742"/>
  <unicode hex="00BD"/>
  <outline>
    <contour>
      <point x="486" y="248" type="line"/>
      <point x="504" y="301" type="line"/>
      <point x="522" y="312"/>
      <point x="539" y="316"/>
      <point x="558" y="316" type="curve" smooth="yes"/>
      <point x="600" y="316"/>
      <point x="616" y="297"/>
      <point x="616" y="271" type="curve" smooth="yes"/>
      <point x="616" y="201"/>
      <point x="496" y="119"/>
      <point x="404" y="49" type="curve"/>
      <point x="405" y="0" type="line"/>
      <point x="683" y="0" type="line"/>
      <point x="700" y="99" type="line"/>
      <point x="642" y="106" type="line"/>
      <point x="631" y="54" type="line"/>
      <point x="492" y="54" type="line"/>
      <point x="548" y="95"/>
      <point x="694" y="186"/>
      <point x="694" y="280" type="curve" smooth="yes"/>
      <point x="694" y="326"/>
      <point x="658" y="370"/>
      <point x="574" y="370" type="curve" smooth="yes"/>
      <point x="531" y="370"/>
      <point x="487" y="358"/>
      <point x="454" y="336" type="curve"/>
      <point x="433" y="253" type="line"/>
    </contour>
    <contour>
      <point x="596" y="650" type="line"/>
      <point x="377" y="325" type="line"/>
      <point x="164" y="0" type="line"/>
      <point x="102" y="0" type="line"/>
      <point x="330" y="337" type="line"/>
      <point x="535" y="650" type="line"/>
    </contour>
    <contour>
      <point x="44" y="340" type="line"/>
      <point x="116" y="340" type="line"/>
      <point x="143" y="596" type="line"/>
      <point x="71" y="596" type="line"/>
      <point x="76" y="650" type="line"/>
      <point x="219" y="650" type="line"/>
      <point x="186" y="340" type="line"/>
      <point x="255" y="340" type="line"/>
      <point x="249" y="286" type="line"/>
      <point x="38" y="286" type="line"/>
    </contour>
  </outline>
</glyph>
<glyph name="questiondown" format="1">
  <advance width="440"/>
  <unicode hex="00BF"/>
  <outline>
    <contour>
      <point x="306" y="-9" type="line"/>
      <point x="282" y="-98" type="line"/>
      <point x="254" y="-119"/>
      <point x="218" y="-130"/>
      <point x="181" y="-130" type="curve" smooth="yes"/>
      <point x="122" y="-130"/>
      <point x="87" y="-104"/>
      <point x="87" y="-62" type="curve" smooth="yes"/>
      <point x="87" y="44"/>
      <point x="305" y="53"/>
      <point x="305" y="182" type="curve" smooth="yes"/>
      <point x="305" y="235"/>
      <point x="268" y="270"/>
      <point x="173" y="262" type="curve"/>
      <point x="166" y="204" type="line"/>
      <point x="197" y="204"/>
      <point x="211" y="191"/>
      <point x="211" y="170" type="curve" smooth="yes"/>
      <point x="211" y="87"/>
      <point x="-12" y="62"/>
      <point x="-12" y="-80" type="curve" smooth="yes"/>
      <point x="-12" y="-163"/>
      <point x="67" y="-210"/>
      <point x="163" y="-210" type="curve" smooth="yes"/>
      <point x="228" y="-210"/>
      <point x="296" y="-183"/>
      <point x="349" y="-145" type="curve"/>
      <point x="375" y="-15" type="line"/>
    </contour>
    <contour>
      <point x="304" y="450" type="line"/>
      <point x="199" y="450" type="line"/>
      <point x="188" y="339" type="line"/>
      <point x="293" y="339" type="line"/>
    </contour>
  </outline>
</glyph>
<glyph name="Acircumflex" format="1">
  <advance width="641"/>
  <unicode hex="00C2"/>
  <outline>
    <contour>
      <point x="-14" y="79" type="line"/>
      <point x="46" y="79" type="line"/>
      <point x="296" y="571" type="line"/>
      <point x="199" y="571" type="line"/>
      <point x="207" y="650" type="line"/>
      <point x="396" y="650" type="line"/>
      <point x="564" y="79" type="line"/>
      <point x="625" y="79" type="line"/>
      <point x="617" y="0" type="line"/>
      <point x="386" y="0" type="line"/>
      <point x="394" y="79" type="line"/>
      <point x="468" y="79" type="line"/>
      <point x="440" y="187" type="line"/>
      <point x="188" y="187" type="line"/>
      <point x="135" y="79" type="line"/>
      <point x="216" y="79" type="line"/>
      <point x="208" y="0" type="line"/>
      <point x="-21" y="0" type="line"/>
    </contour>
    <contour>
      <point x="349" y="519" type="line"/>
      <point x="221" y="255" type="line"/>
      <point x="422" y="255" type="line"/>
      <point x="354" y="519" type="line"/>
    </contour>
    <contour>
      <point x="393" y="831" type="line"/>
      <point x="365" y="831" type="line"/>
      <point x="227" y="734" type="line"/>
      <point x="247" y="696" type="line"/>
      <point x="369" y="758" type="line"/>
      <point x="484" y="697" type="line"/>
      <point x="509" y="736" type="line"/>
    </contour>
  </outline>
</glyph>
<glyph name="Atilde" format="1">
  <advance width="641"/>
  <unicode hex="00C3"/>
  <outline>
    <contour>
      <point x="-14" y="79" type="line"/>
      <point x="46" y="79" type="line"/>
      <point x="296" y="571" type="line"/>
      <point x="199" y="571" type="line"/>
      <point x="207" y="650" type="line"/>
      <point x="396" y="650" type="line"/>
      <point x="564" y="79" type="line"/>
      <point x="625" y="79" type="line"/>
      <point x="617" y="0" type="line"/>
      <point x="386" y="0" type="line"/>
      <point x="394" y="79" type="line"/>
      <point x="468" y="79" type="line"/>
      <point x="440" y="187" type="line"/>
      <point x="188" y="187" type="line"/>
      <point x="135" y="79" type="line"/>
      <point x="216" y="79" type="line"/>
      <point x="208" y="0" type="line"/>
      <point x="-21" y="0" type="line"/>
    </contour>
    <contour>
      <point x="349" y="519" type="line"/>
      <point x="221" y="255" type="line"/>
      <point x="422" y="255" type="line"/>
      <point x="354" y="519" type="line"/>
    </contour>
    <contour>
      <point x="249" y="703" type="line"/>
      <point x="262" y="733"/>
      <point x="282" y="741"/>
      <point x="301" y="741" type="curve" smooth="yes"/>
      <point x="341" y="741"/>
      <point x="370" y="707"/>
      <point x="419" y="707" type="curve" smooth="yes"/>
      <point x="471" y="707"/>
      <point x="495" y="749"/>
      <point x="507" y="804" type="curve"/>
      <point x="467" y="814" type="line"/>
      <point x="454" y="780"/>
      <point x="435" y="773"/>
      <point x="417" y="773" type="curve" smooth="yes"/>
      <point x="374" y="773"/>
      <point x="349" y="807"/>
      <point x="305" y="807" type="curve" smooth="yes"/>
      <point x="250" y="807"/>
      <point x="220" y="752"/>
      <point x="214" y="717" type="curve"/>
    </contour>
  </outline>
</glyph>
<glyph name="Ccedilla" format="1">
  <advance width="625"/>
  <unicode hex="00C7"/>
  <outline>
    <contour>
      <point x="545" y="56" type="line"/>
      <point x="495" y="14"/>
      <point x="406" y="-9"/>
      <point x="329" y="-10" type="curve"/>
      <point x="324" y="-45" type="line"/>
      <point x="332" y="-45" type="line" smooth="yes"/>
      <point x="389" y="-45"/>
      <point x="411" y="-76"/>
      <point x="411" y="-117" type="curve" smooth="yes"/>
      <point x="411" y="-182"/>
      <point x="351" y="-209"/>
      <point x="289" y="-209" type="curve" smooth="yes"/>
      <point x="250" y="-209"/>
      <point x="213" y="-199"/>
      <point x="193" y="-179" type="curve"/>
      <point x="216" y="-130" type="line"/>
      <point x="231" y="-141"/>
      <point x="257" y="-153"/>
      <point x="288" y="-153" type="curve" smooth="yes"/>
      <point x="319" y="-153"/>
      <point x="337" y="-141"/>
      <point x="337" y="-115" type="curve" smooth="yes"/>
      <point x="337" y="-89"/>
      <point x="321" y="-82"/>
      <point x="290" y="-82" type="curve" smooth="yes"/>
      <point x="259" y="-82" type="line"/>
      <point x="268" y="-6" type="line"/>
      <point x="119" y="17"/>
      <point x="38" y="133"/>
      <point x="38" y="288" type="curve" smooth="yes"/>
      <point x="38" y="478"/>
      <point x="160" y="660"/>
      <point x="388" y="660" type="curve" smooth="yes"/>
      <point x="488" y="660"/>
      <point x="560" y="625"/>
      <point x="602" y="583" type="curve"/>
      <point x="605" y="451" type="line"/>
      <point x="530" y="443" type="line"/>
      <point x="522" y="536" type="line"/>
      <point x="487" y="562"/>
      <point x="438" y="579"/>
      <point x="380" y="579" type="curve" smooth="yes"/>
      <point x="233" y="579"/>
      <point x="131" y="473"/>
      <point x="131" y="297" type="curve" smooth="yes"/>
      <point x="131" y="150"/>
      <point x="203" y="71"/>
      <point x="341" y="71" type="curve" smooth="yes"/>
      <point x="392" y="71"/>
      <point x="440" y="82"/>
      <point x="473" y="100" type="curve"/>
      <point x="500" y="196" type="line"/>
      <point x="574" y="188" type="line"/>
    </contour>
  </outline>
</glyph>
<glyph name="Edieresis" format="1">
  <advance width="572"/>
  <unicode hex="00CB"/>
  <outline>
    <contour>
      <point x="231" y="715" type="line"/>
      <point x="324" y="715" type="line"/>
      <point x="334" y="813" type="line"/>
      <point x="241" y="813" type="line"/>
    </contour>
    <contour>
      <point x="402" y="715" type="line"/>
      <point x="496" y="715" type="line"/>
      <point x="506" y="813" type="line"/>
      <point x="413" y="813" type="line"/>
    </contour>
    <contour>
      <point x="486" y="0" type="line"/>
      <point x="11" y="0" type="line"/>
      <point x="19" y="79" type="line"/>
      <point x="96" y="79" type="line"/>
      <point x="148" y="571" type="line"/>
      <point x="71" y="571" type="line"/>
      <point x="79" y="650" type="line"/>
      <point x="549" y="650" type="line"/>
      <point x="549" y="464" type="line"/>
      <point x="473" y="457" type="line"/>
      <point x="465" y="571" type="line"/>
      <point x="235" y="571" type="line"/>
      <point x="213" y="368" type="line"/>
      <point x="506" y="368" type="line"/>
      <point x="498" y="290" type="line"/>
      <point x="205" y="290" type="line"/>
      <point x="183" y="79" type="line"/>
      <point x="418" y="79" type="line"/>
      <point x="450" y="193" type="line"/>
      <point x="524" y="186" type="line"/>
    </contour>
  </outline>
</glyph>
<glyph name="Igrave" format="1">
  <advance width="319"/>
  <unicode hex="00CC"/>
  <outline>
    <contour>
      <point x="19" y="79" type="line"/>
      <point x="95" y="79" type="line"/>
      <point x="147" y="571" type="line"/>
      <point x="71" y="571" type="line"/>
      <point x="79" y="650" type="line"/>
      <point x="318" y="650" type="line"/>
      <point x="310" y="571" type="line"/>
      <point x="234" y="571" type="line"/>
      <point x="182" y="79" type="line"/>
      <point x="259" y="79" type="line"/>
      <point x="250" y="0" type="line"/>
      <point x="11" y="0" type="line"/>
    </contour>
    <contour>
      <point x="265" y="699" type="line"/>
      <point x="275" y="742" type="line"/>
      <point x="75" y="819" type="line"/>
      <point x="56" y="737" type="line"/>
    </contour>
  </outline>
</glyph>
<glyph name="Icircumflex" format="1">
  <advance width="319"/>
  <unicode hex="00CE"/>
  <outline>
    <contour>
      <point x="19" y="79" type="line"/>
      <point x="95" y="79" type="line"/>
      <point x="147" y="571" type="line"/>
      <point x="71" y="571" type="line"/>
      <point x="79" y="650" type="line"/>
      <point x="318" y="650" type="line"/>
      <point x="310" y="571" type="line"/>
      <point x="234" y="571" type="line"/>
      <point x="182" y="79" type="line"/>
      <point x="259" y="79" type="line"/>
      <point x="250" y="0" type="line"/>
      <point x="11" y="0" type="line"/>
    </contour>
    <contour>
      <point x="233" y="831" type="line"/>
      <point x="205" y="831" type="line"/>
      <point x="67" y="734" type="line"/>
      <point x="87" y="696" type="line"/>
      <point x="209" y="758" type="line"/>
      <point x="324" y="697" type="line"/>
      <point x="349" y="736" type="line"/>
    </contour>
  </outline>
</glyph>
<glyph name="Idieresis" format="1">
  <advance width="319"/>
  <unicode hex="00CF"/>
  <outline>
    <contour>
      <point x="19" y="79" type="line"/>
      <point x="95" y="79" type="line"/>
      <point x="147" y="571" type="line"/>
      <point x="71" y="571" type="line"/>
      <point x="79" y="650" type="line"/>
      <point x="318" y="650" type="line"/>
      <point x="310" y="571" type="line"/>
      <point x="234" y="571" type="line"/>
      <point x="182" y="79" type="line"/>
      <point x="259" y="79" type="line"/>
      <point x="250" y="0" type="line"/>
      <point x="11" y="0" type="line"/>
    </contour>
    <contour>
      <point x="244" y="715" type="line"/>
      <point x="338" y="715" type="line"/>
      <point x="348" y="813" type="line"/>
      <point x="255" y="813" type="line"/>
    </contour>
    <contour>
      <point x="73" y="715" type="line"/>
      <point x="166" y="715" type="line"/>
      <point x="176" y="813" type="line"/>
      <point x="83" y="813" type="line"/>
    </contour>
  </outline>
</glyph>
<glyph name="Oacute" format="1">
  <advance width="703"/>
  <unicode hex="00D3"/>
  <outline>
    <contour>
      <point x="548" y="737" type="line"/>
      <point x="529" y="819" type="line"/>
      <point x="330" y="742" type="line"/>
      <point x="340" y="699" type="line"/>
    </contour>
    <contour>
      <point x="389" y="660" type="curve" smooth="yes"/>
      <point x="190" y="660"/>
      <point x="37" y="495"/>
      <point x="37" y="291" type="curve" smooth="yes"/>
      <point x="37" y="125"/>
      <point x="141" y="-10"/>
      <point x="321" y="-10" type="curve" smooth="yes"/>
      <point x="526" y="-10"/>
      <point x="676" y="159"/>
      <point x="676" y="359" type="curve" smooth="yes"/>
      <point x="676" y="526"/>
      <point x="567" y="660"/>
    </contour>
    <contour>
      <point x="334" y="71" type="curve" smooth="yes"/>
      <point x="193" y="71"/>
      <point x="132" y="178"/>
      <point x="132" y="299" type="curve" smooth="yes"/>
      <point x="132" y="451"/>
      <point x="231" y="579"/>
      <point x="380" y="579" type="curve" smooth="yes"/>
      <point x="507" y="579"/>
      <point x="581" y="488"/>
      <point x="581" y="353" type="curve" smooth="yes"/>
      <point x="581" y="205"/>
      <point x="490" y="71"/>
    </contour>
  </outline>
</glyph>
<glyph name="Uacute" format="1">
  <advance width="694"/>
  <unicode hex="00DA"/>
  <outline>
    <contour>
      <point x="474" y="650" type="line"/>
      <point x="700" y="650" type="line"/>
      <point x="692" y="571" type="line"/>
      <point x="631" y="571" type="line"/>
      <point x="600" y="267" type="line"/>
      <point x="585" y="129"/>
      <point x="519" y="-10"/>
      <point x="323" y="-10" type="curve" smooth="yes"/>
      <point x="134" y="-10"/>
      <point x="77" y="116"/>
      <point x="92" y="256" type="curve" smooth="yes"/>
      <point x="125" y="571" type="line"/>
      <point x="63" y="571" type="line"/>
      <point x="71" y="650" type="line"/>
      <point x="305" y="650" type="line"/>
      <point x="296" y="571" type="line"/>
      <point x="213" y="571" type="line"/>
      <point x="180" y="259" type="line"/>
      <point x="169" y="143"/>
      <point x="213" y="71"/>
      <point x="331" y="71" type="curve" smooth="yes"/>
      <point x="442" y="71"/>
      <point x="504" y="141"/>
      <point x="518" y="267" type="curve"/>
      <point x="549" y="571" type="line"/>
      <point x="466" y="571" type="line"/>
    </contour>
    <contour>
      <point x="554" y="737" type="line"/>
      <point x="535" y="819" type="line"/>
      <point x="336" y="742" type="line"/>
      <point x="346" y="699" type="line"/>
    </contour>
  </outline>
</glyph>
<glyph name="Thorn" format="1">
  <advance width="560"/>
  <unicode hex="00DE"/>
  <outline>
    <contour>
      <point x="19" y="79" type="line"/>
      <point x="95" y="79" type="line"/>
      <point x="147" y="571" type="line"/>
      <point x="71" y="571" type="line"/>
      <point x="79" y="650" type="line"/>
      <point x="318" y="650" type="line"/>
      <point x="310" y="571" type="line"/>
      <point x="234" y="571" type="line"/>
      <point x="229" y="522" type="line"/>
      <point x="338" y="522" type="line" smooth="yes"/>
      <point x="483" y="522"/>
      <point x="547" y="458"/>
      <point x="547" y="356" type="curve" smooth="yes"/>
      <point x="547" y="213"/>
      <point x="441" y="143"/>
      <point x="304" y="143" type="curve" smooth="yes"/>
      <point x="189" y="143" type="line"/>
      <point x="182" y="79" type="line"/>
      <point x="259" y="79" type="line"/>
      <point x="250" y="0" type="line"/>
      <point x="11" y="0" type="line"/>
    </contour>
    <contour>
      <point x="296" y="203" type="line" smooth="yes"/>
      <point x="401" y="203"/>
      <point x="452" y="262"/>
      <point x="452" y="350" type="curve" smooth="yes"/>
      <point x="452" y="421"/>
      <point x="414" y="461"/>
      <point x="323" y="461" type="curve" smooth="yes"/>
      <point x="222" y="461" type="line"/>
      <point x="195" y="203" type="line"/>
    </contour>
  </outline>
</glyph>
<glyph name="aacute" format="1">
  <advance width="509"/>
  <unicode hex="00E1"/>
  <outline>
    <contour>
      <point x="467" y="447" type="line"/>
      <point x="453" y="398"/>
      <point x="440" y="351"/>
      <point x="434" y="302" type="curve" smooth="yes"/>
      <point x="405" y="69" type="line"/>
      <point x="469" y="69" type="line"/>
      <point x="464" y="19" type="line"/>
      <point x="440" y="0" type="line"/>
      <point x="326" y="0" type="line"/>
      <point x="327" y="91" type="line"/>
      <point x="298" y="37"/>
      <point x="252" y="-10"/>
      <point x="176" y="-10" type="curve" smooth="yes"/>
      <point x="78" y="-10"/>
      <point x="27" y="67"/>
      <point x="27" y="180" type="curve" smooth="yes"/>
      <point x="27" y="296"/>
      <point x="82" y="456"/>
      <point x="234" y="456" type="curve" smooth="yes"/>
      <point x="300" y="456"/>
      <point x="346" y="425"/>
      <point x="365" y="372" type="curve"/>
      <point x="370" y="397"/>
      <point x="377" y="422"/>
      <point x="385" y="447" type="curve"/>
    </contour>
    <contour>
      <point x="245" y="387" type="curve" smooth="yes"/>
      <point x="148" y="387"/>
      <point x="118" y="278"/>
      <point x="118" y="191" type="curve" smooth="yes"/>
      <point x="118" y="105"/>
      <point x="148" y="59"/>
      <point x="205" y="59" type="curve" smooth="yes"/>
      <point x="273" y="59"/>
      <point x="321" y="130"/>
      <point x="335" y="190" type="curve"/>
      <point x="346" y="271" type="line"/>
      <point x="347" y="340"/>
      <point x="303" y="387"/>
    </contour>
    <contour>
      <point x="448" y="617" type="line"/>
      <point x="405" y="688" type="line"/>
      <point x="238" y="553" type="line"/>
      <point x="259" y="516" type="line"/>
    </contour>
  </outline>
</glyph>
<glyph name="igrave" format="1">
  <advance width="261"/>
  <unicode hex="00EC"/>
  <outline>
    <contour>
      <point x="35" y="425" type="line"/>
      <point x="59" y="447" type="line"/>
      <point x="195" y="447" type="line"/>
      <point x="148" y="69" type="line"/>
      <point x="218" y="69" type="line"/>
      <point x="212" y="19" type="line"/>
      <point x="188" y="0" type="line"/>
      <point x="56" y="0" type="line"/>
      <point x="101" y="378" type="line"/>
      <point x="29" y="378" type="line"/>
    </contour>
    <contour>
      <point x="203" y="516" type="line"/>
      <point x="225" y="553" type="line"/>
      <point x="57" y="688" type="line"/>
      <point x="15" y="617" type="line"/>
    </contour>
  </outline>
</glyph>
<glyph name="icircumflex" format="1">
  <advance width="261"/>
  <unicode hex="00EE"/>
  <outline>
    <contour>
      <point x="35" y="425" type="line"/>
      <point x="59" y="447" type="line"/>
      <point x="195" y="447" type="line"/>
      <point x="148" y="69" type="line"/>
      <point x="218" y="69" type="line"/>
      <point x="212" y="19" type="line"/>
      <point x="188" y="0" type="line"/>
      <point x="56" y="0" type="line"/>
      <point x="101" y="378" type="line"/>
      <point x="29" y="378" type="line"/>
    </contour>
    <contour>
      <point x="185" y="674" type="line"/>
      <point x="157" y="674" type="line"/>
      <point x="21" y="552" type="line"/>
      <point x="46" y="515" type="line"/>
      <point x="160" y="597" type="line"/>
      <point x="264" y="516" type="line"/>
      <point x="296" y="552" type="line"/>
    </contour>
  </outline>
</glyph>
<glyph name="ntilde" format="1">
  <advance width="528"/>
  <unicode hex="00F1"/>
  <outline>
    <contour>
      <point x="57" y="447" type="line"/>
      <point x="178" y="447" type="line"/>
      <point x="179" y="361" type="line"/>
      <point x="211" y="418"/>
      <point x="259" y="456"/>
      <point x="328" y="456" type="curve" smooth="yes"/>
      <point x="411" y="456"/>
      <point x="470" y="405"/>
      <point x="456" y="291" type="curve" smooth="yes"/>
      <point x="429" y="69" type="line"/>
      <point x="499" y="69" type="line"/>
      <point x="493" y="19" type="line"/>
      <point x="469" y="0" type="line"/>
      <point x="338" y="0" type="line"/>
      <point x="369" y="261" type="line" smooth="yes"/>
      <point x="380" y="352"/>
      <point x="351" y="387"/>
      <point x="291" y="387" type="curve" smooth="yes"/>
      <point x="222" y="387"/>
      <point x="181" y="331"/>
      <point x="170" y="268" type="curve"/>
      <point x="138" y="0" type="line"/>
      <point x="54" y="0" type="line"/>
      <point x="99" y="378" type="line"/>
      <point x="26" y="378" type="line"/>
      <point x="32" y="425" type="line"/>
    </contour>
    <contour>
      <point x="185" y="539" type="line"/>
      <point x="198" y="570"/>
      <point x="218" y="582"/>
      <point x="238" y="582" type="curve" smooth="yes"/>
      <point x="275" y="582"/>
      <point x="304" y="543"/>
      <point x="355" y="543" type="curve" smooth="yes"/>
      <point x="406" y="543"/>
      <point x="430" y="591"/>
      <point x="442" y="646" type="curve"/>
      <point x="402" y="656" type="line"/>
      <point x="390" y="622"/>
      <point x="371" y="614"/>
      <point x="353" y="614" type="curve" smooth="yes"/>
      <point x="310" y="614"/>
      <point x="284" y="651"/>
      <point x="241" y="651" type="curve" smooth="yes"/>
      <point x="187" y="651"/>
      <point x="155" y="588"/>
      <point x="149" y="552" type="curve"/>
    </contour>
  </outline>
</glyph>
<glyph name="otilde" format="1">
  <advance width="482"/>
  <unicode hex="00F5"/>
  <outline>
    <contour>
      <point x="26" y="191" type="curve" smooth="yes"/>
      <point x="26" y="330"/>
      <point x="104" y="456"/>
      <point x="260" y="456" type="curve" smooth="yes"/>
      <point x="391" y="456"/>
      <point x="443" y="366"/>
      <point x="443" y="252" type="curve" smooth="yes"/>
      <point x="443" y="102"/>
      <point x="354" y="-10"/>
      <point x="209" y="-10" type="curve" smooth="yes"/>
      <point x="87" y="-10"/>
      <point x="26" y="69"/>
    </contour>
    <contour>
      <point x="118" y="197" type="curve" smooth="yes"/>
      <point x="118" y="115"/>
      <point x="140" y="59"/>
      <point x="217" y="59" type="curve" smooth="yes"/>
      <point x="313" y="59"/>
      <point x="352" y="146"/>
      <point x="352" y="249" type="curve" smooth="yes"/>
      <point x="352" y="335"/>
      <point x="326" y="387"/>
      <point x="250" y="387" type="curve" smooth="yes"/>
      <point x="162" y="387"/>
      <point x="118" y="313"/>
    </contour>
    <contour>
      <point x="166" y="539" type="line"/>
      <point x="179" y="570"/>
      <point x="199" y="582"/>
      <point x="219" y="582" type="curve" smooth="yes"/>
      <point x="256" y="582"/>
      <point x="285" y="543"/>
      <point x="336" y="543" type="curve" smooth="yes"/>
      <point x="387" y="543"/>
      <point x="411" y="591"/>
      <point x="423" y="646" type="curve"/>
      <point x="383" y="656" type="line"/>
      <point x="371" y="622"/>
      <point x="352" y="614"/>
      <point x="334" y="614" type="curve" smooth="yes"/>
      <point x="291" y="614"/>
      <point x="265" y="651"/>
      <point x="222" y="651" type="curve" smooth="yes"/>
      <point x="168" y="651"/>
      <point x="136" y="588"/>
      <point x="130" y="552" type="curve"/>
    </contour>
  </outline>
</glyph>
<glyph name="thorn" format="1">
  <advance width="505"/>
  <unicode hex="00FE"/>
  <outline>
    <contour>
      <point x="190" y="-192" type="line"/>
      <point x="165" y="-213" type="line"/>
      <point x="-54" y="-213" type="line"/>
      <point x="-48" y="-166" type="line"/>
      <point x="-24" y="-144" type="line"/>
      <point x="16" y="-144" type="line"/>
      <point x="110" y="619" type="line"/>
      <point x="37" y="619" type="line"/>
      <point x="44" y="667" type="line"/>
      <point x="67" y="688" type="line"/>
      <point x="203" y="688" type="line"/>
      <point x="187" y="551" type="line"/>
      <point x="163" y="362" type="line"/>
      <point x="192" y="414"/>
      <point x="237" y="456"/>
      <point x="309" y="456" type="curve" smooth="yes"/>
      <point x="412" y="456"/>
      <point x="467" y="377"/>
      <point x="467" y="266" type="curve" smooth="yes"/>
      <point x="467" y="147"/>
      <point x="409" y="-10"/>
      <point x="255" y="-10" type="curve" smooth="yes"/>
      <point x="193" y="-10"/>
      <point x="148" y="16"/>
      <point x="126" y="62" type="curve"/>
      <point x="100" y="-144" type="line"/>
      <point x="196" y="-144" type="line"/>
    </contour>
    <contour>
      <point x="247" y="59" type="curve" smooth="yes"/>
      <point x="340" y="59"/>
      <point x="376" y="174"/>
      <point x="376" y="255" type="curve" smooth="yes"/>
      <point x="376" y="335"/>
      <point x="342" y="387"/>
      <point x="282" y="387" type="curve" smooth="yes"/>
      <point x="211" y="387"/>
      <point x="166" y="320"/>
      <point x="150" y="259" type="curve"/>
      <point x="140" y="174" type="line"/>
      <point x="139" y="107"/>
      <point x="180" y="59"/>
    </contour>
  </outline>
</glyph>
<glyph name="abreve" format="1">
  <advance width="509"/>
  <unicode hex="0103"/>
  <outline>
    <contour>
      <point x="467" y="447" type="line"/>
      <point x="453" y="398"/>
      <point x="440" y="351"/>
      <point x="434" y="302" type="curve" smooth="yes"/>
      <point x="405" y="69" type="line"/>
      <point x="469" y="69" type="line"/>
      <point x="464" y="19" type="line"/>
      <point x="440" y="0" type="line"/>
      <point x="326" y="0" type="line"/>
      <point x="327" y="91" type="line"/>
      <point x="298" y="37"/>
      <point x="252" y="-10"/>
      <point x="176" y="-10" type="curve" smooth="yes"/>
      <point x="78" y="-10"/>
      <point x="27" y="67"/>
      <point x="27" y="180" type="curve" smooth="yes"/>
      <point x="27" y="296"/>
      <point x="82" y="456"/>
      <point x="234" y="456" type="curve" smooth="yes"/>
      <point x="300" y="456"/>
      <point x="346" y="425"/>
      <point x="365" y="372" type="curve"/>
      <point x="370" y="397"/>
      <point x="377" y="422"/>
      <point x="385" y="447" type="curve"/>
    </contour>
    <contour>
      <point x="245" y="387" type="curve" smooth="yes"/>
      <point x="148" y="387"/>
      <point x="118" y="278"/>
      <point x="118" y="191" type="curve" smooth="yes"/>
      <point x="118" y="105"/>
      <point x="148" y="59"/>
      <point x="205" y="59" type="curve" smooth="yes"/>
      <point x="273" y="59"/>
      <point x="321" y="130"/>
      <point x="335" y="190" type="curve"/>
      <point x="346" y="271" type="line"/>
      <point x="347" y="340"/>
      <point x="303" y="387"/>
    </contour>
    <contour>
      <point x="353" y="654" type="curve"/>
      <point x="423" y="654" type="line"/>
      <point x="414" y="568"/>
      <point x="362" y="527"/>
      <point x="284" y="527" type="curve" smooth="yes"/>
      <point x="205" y="527"/>
      <point x="165" y="570"/>
      <point x="174" y="654" type="curve"/>
      <point x="244" y="654" type="line"/>
      <point x="238" y="606"/>
      <point x="255" y="584"/>
      <point x="291" y="584" type="curve" smooth="yes"/>
      <point x="329" y="584"/>
      <point x="348" y="609"/>
    </contour>
  </outline>
</glyph>
<glyph name="Aogonek" format="1">
  <advance width="640"/>
  <unicode hex="0104"/>
  <outline>
    <contour>
      <point x="-14" y="79" type="line"/>
      <point x="46" y="79" type="line"/>
      <point x="296" y="571" type="line"/>
      <point x="199" y="571" type="line"/>
      <point x="207" y="650" type="line"/>
      <point x="396" y="650" type="line"/>
      <point x="564" y="79" type="line"/>
      <point x="625" y="79" type="line"/>
      <point x="617" y="0" type="line"/>
      <point x="563" y="0" type="line"/>
      <point x="509" y="-32"/>
      <point x="496" y="-69"/>
      <point x="496" y="-98" type="curve" smooth="yes"/>
      <point x="496" y="-134"/>
      <point x="514" y="-144"/>
      <point x="544" y="-144" type="curve" smooth="yes"/>
      <point x="560" y="-144"/>
      <point x="578" y="-140"/>
      <point x="596" y="-130" type="curve"/>
      <point x="598" y="-189" type="line"/>
      <point x="575" y="-200"/>
      <point x="547" y="-209"/>
      <point x="515" y="-209" type="curve" smooth="yes"/>
      <point x="457" y="-209"/>
      <point x="418" y="-181"/>
      <point x="418" y="-126" type="curve" smooth="yes"/>
      <point x="418" y="-73"/>
      <point x="455" y="-27"/>
      <point x="502" y="0" type="curve"/>
      <point x="386" y="0" type="line"/>
      <point x="394" y="79" type="line"/>
      <point x="468" y="79" type="line"/>
      <point x="440" y="187" type="line"/>
      <point x="188" y="187" type="line"/>
      <point x="135" y="79" type="line"/>
      <point x="216" y="79" type="line"/>
      <point x="208" y="0" type="line"/>
      <point x="-21" y="0" type="line"/>
    </contour>
    <contour>
      <point x="349" y="519" type="line"/>
      <point x="221" y="255" type="line"/>
      <point x="422" y="255" type="line"/>
      <point x="354" y="519" type="line"/>
    </contour>
  </outline>
</glyph>
<glyph name="Ccaron" format="1">
  <advance width="626"/>
  <unicode hex="010C"/>
  <outline>
    <contour>
      <point x="546" y="56" type="line"/>
      <point x="495" y="13"/>
      <point x="403" y="-10"/>
      <point x="325" y="-10" type="curve" smooth="yes"/>
      <point x="141" y="-10"/>
      <point x="39" y="115"/>
      <point x="39" y="288" type="curve" smooth="yes"/>
      <point x="39" y="478"/>
      <point x="161" y="660"/>
      <point x="389" y="660" type="curve" smooth="yes"/>
      <point x="489" y="660"/>
      <point x="561" y="625"/>
      <point x="603" y="583" type="curve"/>
      <point x="606" y="451" type="line"/>
      <point x="531" y="443" type="line"/>
      <point x="523" y="536" type="line"/>
      <point x="488" y="562"/>
      <point x="439" y="579"/>
      <point x="381" y="579" type="curve" smooth="yes"/>
      <point x="234" y="579"/>
      <point x="132" y="473"/>
      <point x="132" y="297" type="curve" smooth="yes"/>
      <point x="132" y="150"/>
      <point x="204" y="71"/>
      <point x="342" y="71" type="curve" smooth="yes"/>
      <point x="393" y="71"/>
      <point x="441" y="82"/>
      <point x="474" y="100" type="curve"/>
      <point x="501" y="196" type="line"/>
      <point x="575" y="188" type="line"/>
    </contour>
    <contour>
      <point x="370" y="696" type="line"/>
      <point x="398" y="696" type="line"/>
      <point x="535" y="792" type="line"/>
      <point x="516" y="831" type="line"/>
      <point x="393" y="767" type="line"/>
      <point x="278" y="829" type="line"/>
      <point x="254" y="790" type="line"/>
    </contour>
  </outline>
</glyph>
<glyph name="ccaron" format="1">
  <advance width="440"/>
  <unicode hex="010D"/>
  <outline>
    <contour>
      <point x="241" y="515" type="line"/>
      <point x="269" y="515" type="line"/>
      <point x="405" y="636" type="line"/>
      <point x="380" y="674" type="line"/>
      <point x="265" y="593" type="line"/>
      <point x="163" y="672" type="line"/>
      <point x="131" y="636" type="line"/>
    </contour>
    <contour>
      <point x="248" y="387" type="curve" smooth="yes"/>
      <point x="157" y="387"/>
      <point x="117" y="295"/>
      <point x="117" y="193" type="curve" smooth="yes"/>
      <point x="117" y="111"/>
      <point x="143" y="59"/>
      <point x="213" y="59" type="curve" smooth="yes"/>
      <point x="272" y="59"/>
      <point x="306" y="97"/>
      <point x="328" y="170" type="curve"/>
      <point x="396" y="155" type="line"/>
      <point x="377" y="75"/>
      <point x="320" y="-10"/>
      <point x="201" y="-10" type="curve" smooth="yes"/>
      <point x="91" y="-10"/>
      <point x="26" y="64"/>
      <point x="26" y="188" type="curve" smooth="yes"/>
      <point x="26" y="310"/>
      <point x="88" y="456"/>
      <point x="249" y="456" type="curve"/>
      <point x="303" y="456"/>
      <point x="353" y="443"/>
      <point x="396" y="412" type="curve"/>
      <point x="401" y="297" type="line"/>
      <point x="330" y="289" type="line"/>
      <point x="322" y="366" type="line"/>
      <point x="297" y="382"/>
      <point x="274" y="387"/>
    </contour>
  </outline>
</glyph>
<glyph name="Dcroat" format="1">
  <advance width="684"/>
  <unicode hex="0110"/>
  <outline>
    <contour>
      <point x="49" y="376" type="line"/>
      <point x="129" y="376" type="line"/>
      <point x="150" y="572" type="line"/>
      <point x="73" y="572" type="line"/>
      <point x="81" y="650" type="line"/>
      <point x="364" y="650" type="line" smooth="yes"/>
      <point x="557" y="650"/>
      <point x="656" y="534"/>
      <point x="656" y="361" type="curve" smooth="yes"/>
      <point x="656" y="154"/>
      <point x="517" y="0"/>
      <point x="301" y="0" type="curve" smooth="yes"/>
      <point x="13" y="0" type="line"/>
      <point x="22" y="78" type="line"/>
      <point x="98" y="78" type="line"/>
      <point x="122" y="306" type="line"/>
      <point x="41" y="306" type="line"/>
    </contour>
    <contour>
      <point x="304" y="78" type="line" smooth="yes"/>
      <point x="465" y="78"/>
      <point x="563" y="187"/>
      <point x="563" y="353" type="curve" smooth="yes"/>
      <point x="563" y="491"/>
      <point x="493" y="572"/>
      <point x="355" y="572" type="curve" smooth="yes"/>
      <point x="236" y="572" type="line"/>
      <point x="215" y="376" type="line"/>
      <point x="339" y="376" type="line"/>
      <point x="332" y="306" type="line"/>
      <point x="208" y="306" type="line"/>
      <point x="184" y="78" type="line"/>
    </contour>
  </outline>
</glyph>
<glyph name="dcroat" format="1">
  <advance width="513"/>
  <unicode hex="0111"/>
  <outline>
    <contour>
      <point x="303" y="667" type="line"/>
      <point x="327" y="688" type="line"/>
      <point x="487" y="688" type="line"/>
      <point x="471" y="564" type="line"/>
      <point x="534" y="564" type="line"/>
      <point x="529" y="534" type="line"/>
      <point x="502" y="511" type="line"/>
      <point x="465" y="511" type="line"/>
      <point x="410" y="69" type="line"/>
      <point x="481" y="69" type="line"/>
      <point x="476" y="19" type="line"/>
      <point x="452" y="0" type="line"/>
      <point x="331" y="0" type="line"/>
      <point x="332" y="93" type="line"/>
      <point x="301" y="38"/>
      <point x="251" y="-10"/>
      <point x="174" y="-10" type="curve" smooth="yes"/>
      <point x="76" y="-10"/>
      <point x="26" y="68"/>
      <point x="26" y="177" type="curve" smooth="yes"/>
      <point x="26" y="297"/>
      <point x="87" y="456"/>
      <point x="238" y="456" type="curve" smooth="yes"/>
      <point x="299" y="456"/>
      <point x="343" y="429"/>
      <point x="365" y="383" type="curve"/>
      <point x="380" y="511" type="line"/>
      <point x="212" y="511" type="line"/>
      <point x="216" y="540" type="line"/>
      <point x="242" y="564" type="line"/>
      <point x="387" y="564" type="line"/>
      <point x="393" y="619" type="line"/>
      <point x="297" y="619" type="line"/>
    </contour>
    <contour>
      <point x="249" y="387" type="curve" smooth="yes"/>
      <point x="152" y="387"/>
      <point x="117" y="280"/>
      <point x="117" y="188" type="curve" smooth="yes"/>
      <point x="117" y="107"/>
      <point x="145" y="59"/>
      <point x="204" y="59" type="curve" smooth="yes"/>
      <point x="273" y="59"/>
      <point x="328" y="133"/>
      <point x="341" y="194" type="curve"/>
      <point x="351" y="276" type="line"/>
      <point x="351" y="342"/>
      <point x="306" y="387"/>
    </contour>
  </outline>
</glyph>
<glyph name="ebreve" format="1">
  <advance width="439"/>
  <unicode hex="0115"/>
  <outline>
    <contour>
      <point x="217" y="59" type="curve" smooth="yes"/>
      <point x="280" y="59"/>
      <point x="311" y="99"/>
      <point x="328" y="144" type="curve"/>
      <point x="396" y="129" type="line"/>
      <point x="379" y="54"/>
      <point x="311" y="-10"/>
      <point x="204" y="-10" type="curve" smooth="yes"/>
      <point x="96" y="-10"/>
      <point x="26" y="56"/>
      <point x="26" y="186" type="curve" smooth="yes"/>
      <point x="26" y="335"/>
      <point x="115" y="456"/>
      <point x="256" y="456" type="curve" smooth="yes"/>
      <point x="341" y="456"/>
      <point x="406" y="411"/>
      <point x="406" y="341" type="curve" smooth="yes"/>
      <point x="406" y="275"/>
      <point x="362" y="228"/>
      <point x="246" y="203" type="curve" smooth="yes"/>
      <point x="208" y="195"/>
      <point x="164" y="187"/>
      <point x="117" y="181" type="curve"/>
      <point x="119" y="105"/>
      <point x="146" y="59"/>
    </contour>
    <contour>
      <point x="207" y="252" type="curve"/>
      <point x="302" y="273"/>
      <point x="316" y="304"/>
      <point x="316" y="335" type="curve" smooth="yes"/>
      <point x="316" y="376"/>
      <point x="287" y="391"/>
      <point x="247" y="391" type="curve" smooth="yes"/>
      <point x="164" y="391"/>
      <point x="129" y="315"/>
      <point x="119" y="238" type="curve"/>
      <point x="156" y="243"/>
      <point x="184" y="248"/>
    </contour>
    <contour>
      <point x="336" y="654" type="curve"/>
      <point x="406" y="654" type="line"/>
      <point x="397" y="568"/>
      <point x="345" y="527"/>
      <point x="267" y="527" type="curve" smooth="yes"/>
      <point x="188" y="527"/>
      <point x="148" y="570"/>
      <point x="157" y="654" type="curve"/>
      <point x="227" y="654" type="line"/>
      <point x="221" y="606"/>
      <point x="238" y="584"/>
      <point x="274" y="584" type="curve" smooth="yes"/>
      <point x="312" y="584"/>
      <point x="331" y="609"/>
    </contour>
  </outline>
</glyph>
<glyph name="eogonek" format="1">
  <advance width="439"/>
  <unicode hex="0119"/>
  <outline>
    <contour>
      <point x="305" y="-189" type="line"/>
      <point x="282" y="-200"/>
      <point x="254" y="-209"/>
      <point x="222" y="-209" type="curve" smooth="yes"/>
      <point x="164" y="-209"/>
      <point x="125" y="-181"/>
      <point x="125" y="-126" type="curve" smooth="yes"/>
      <point x="125" y="-79"/>
      <point x="154" y="-37"/>
      <point x="193" y="-10" type="curve"/>
      <point x="91" y="-6"/>
      <point x="26" y="60"/>
      <point x="26" y="186" type="curve" smooth="yes"/>
      <point x="26" y="335"/>
      <point x="115" y="456"/>
      <point x="256" y="456" type="curve" smooth="yes"/>
      <point x="341" y="456"/>
      <point x="406" y="411"/>
      <point x="406" y="341" type="curve" smooth="yes"/>
      <point x="406" y="275"/>
      <point x="362" y="228"/>
      <point x="246" y="203" type="curve" smooth="yes"/>
      <point x="208" y="195"/>
      <point x="164" y="187"/>
      <point x="117" y="181" type="curve"/>
      <point x="119" y="105"/>
      <point x="146" y="59"/>
      <point x="217" y="59" type="curve" smooth="yes"/>
      <point x="280" y="59"/>
      <point x="311" y="99"/>
      <point x="328" y="144" type="curve"/>
      <point x="396" y="129" type="line"/>
      <point x="382" y="70"/>
      <point x="338" y="18"/>
      <point x="268" y="-1" type="curve"/>
      <point x="215" y="-33"/>
      <point x="203" y="-70"/>
      <point x="203" y="-98" type="curve" smooth="yes"/>
      <point x="203" y="-134"/>
      <point x="221" y="-144"/>
      <point x="251" y="-144" type="curve" smooth="yes"/>
      <point x="267" y="-144"/>
      <point x="285" y="-140"/>
      <point x="303" y="-130" type="curve"/>
    </contour>
    <contour>
      <point x="207" y="252" type="curve"/>
      <point x="302" y="273"/>
      <point x="316" y="304"/>
      <point x="316" y="335" type="curve" smooth="yes"/>
      <point x="316" y="376"/>
      <point x="287" y="391"/>
      <point x="247" y="391" type="curve" smooth="yes"/>
      <point x="164" y="391"/>
      <point x="129" y="315"/>
      <point x="119" y="238" type="curve"/>
      <point x="156" y="243"/>
      <point x="184" y="248"/>
    </contour>
  </outline>
</glyph>
<glyph name="Gcircumflex" format="1">
  <advance width="669"/>
  <unicode hex="011C"/>
  <outline>
    <contour>
      <point x="642" y="263" type="line"/>
      <point x="651" y="342" type="line"/>
      <point x="373" y="342" type="line"/>
      <point x="364" y="263" type="line"/>
      <point x="509" y="263" type="line"/>
      <point x="505" y="220" type="line" smooth="yes"/>
      <point x="494" y="140"/>
      <point x="431" y="71"/>
      <point x="321" y="71" type="curve" smooth="yes"/>
      <point x="205" y="71"/>
      <point x="131" y="149"/>
      <point x="131" y="296" type="curve" smooth="yes"/>
      <point x="131" y="470"/>
      <point x="235" y="579"/>
      <point x="383" y="579" type="curve" smooth="yes"/>
      <point x="447" y="579"/>
      <point x="499" y="559"/>
      <point x="529" y="536" type="curve"/>
      <point x="539" y="448" type="line"/>
      <point x="614" y="456" type="line"/>
      <point x="610" y="583" type="line"/>
      <point x="568" y="628"/>
      <point x="484" y="660"/>
      <point x="390" y="660" type="curve" smooth="yes"/>
      <point x="174" y="660"/>
      <point x="38" y="493"/>
      <point x="38" y="290" type="curve" smooth="yes"/>
      <point x="38" y="116"/>
      <point x="137" y="-10"/>
      <point x="299" y="-10" type="curve" smooth="yes"/>
      <point x="388" y="-10"/>
      <point x="458" y="29"/>
      <point x="501" y="82" type="curve"/>
      <point x="502" y="0" type="line"/>
      <point x="570" y="0" type="line"/>
      <point x="598" y="263" type="line"/>
    </contour>
    <contour>
      <point x="408" y="831" type="line"/>
      <point x="380" y="831" type="line"/>
      <point x="242" y="734" type="line"/>
      <point x="262" y="696" type="line"/>
      <point x="384" y="758" type="line"/>
      <point x="499" y="697" type="line"/>
      <point x="524" y="736" type="line"/>
    </contour>
  </outline>
</glyph>
<glyph name="hcircumflex" format="1">
  <advance width="510"/>
  <unicode hex="0125"/>
  <outline>
    <contour>
      <point x="45" y="667" type="line"/>
      <point x="70" y="688" type="line"/>
      <point x="202" y="688" type="line"/>
      <point x="163" y="367" type="line"/>
      <point x="194" y="421"/>
      <point x="241" y="456"/>
      <point x="308" y="456" type="curve" smooth="yes"/>
      <point x="392" y="456"/>
      <point x="451" y="405"/>
      <point x="437" y="291" type="curve" smooth="yes"/>
      <point x="410" y="69" type="line"/>
      <point x="480" y="69" type="line"/>
      <point x="474" y="19" type="line"/>
      <point x="450" y="0" type="line"/>
      <point x="318" y="0" type="line"/>
      <point x="350" y="261" type="line" smooth="yes"/>
      <point x="361" y="352"/>
      <point x="329" y="387"/>
      <point x="272" y="387" type="curve" smooth="yes"/>
      <point x="204" y="387"/>
      <point x="163" y="334"/>
      <point x="151" y="274" type="curve"/>
      <point x="151" y="273" type="line"/>
      <point x="118" y="0" type="line"/>
      <point x="34" y="0" type="line"/>
      <point x="109" y="619" type="line"/>
      <point x="39" y="619" type="line"/>
    </contour>
    <contour>
      <point x="179" y="870" type="line"/>
      <point x="151" y="870" type="line"/>
      <point x="15" y="748" type="line"/>
      <point x="40" y="711" type="line"/>
      <point x="154" y="793" type="line"/>
      <point x="258" y="712" type="line"/>
      <point x="290" y="748" type="line"/>
    </contour>
  </outline>
</glyph>
<glyph name="Itilde" format="1">
  <advance width="319"/>
  <unicode hex="0128"/>
  <outline>
    <contour>
      <point x="19" y="79" type="line"/>
      <point x="95" y="79" type="line"/>
      <point x="147" y="571" type="line"/>
      <point x="71" y="571" type="line"/>
      <point x="79" y="650" type="line"/>
      <point x="318" y="650" type="line"/>
      <point x="310" y="571" type="line"/>
      <point x="234" y="571" type="line"/>
      <point x="182" y="79" type="line"/>
      <point x="259" y="79" type="line"/>
      <point x="250" y="0" type="line"/>
      <point x="11" y="0" type="line"/>
    </contour>
    <contour>
      <point x="104" y="703" type="line"/>
      <point x="117" y="733"/>
      <point x="137" y="741"/>
      <point x="156" y="741" type="curve" smooth="yes"/>
      <point x="196" y="741"/>
      <point x="225" y="707"/>
      <point x="274" y="707" type="curve" smooth="yes"/>
      <point x="326" y="707"/>
      <point x="350" y="749"/>
      <point x="362" y="804" type="curve"/>
      <point x="322" y="814" type="line"/>
      <point x="309" y="780"/>
      <point x="290" y="773"/>
      <point x="272" y="773" type="curve" smooth="yes"/>
      <point x="229" y="773"/>
      <point x="204" y="807"/>
      <point x="160" y="807" type="curve" smooth="yes"/>
      <point x="105" y="807"/>
      <point x="75" y="752"/>
      <point x="69" y="717" type="curve"/>
    </contour>
  </outline>
</glyph>
<glyph name="ibreve" format="1">
  <advance width="261"/>
  <unicode hex="012D"/>
  <outline>
    <contour>
      <point x="35" y="425" type="line"/>
      <point x="59" y="447" type="line"/>
      <point x="195" y="447" type="line"/>
      <point x="148" y="69" type="line"/>
      <point x="218" y="69" type="line"/>
      <point x="212" y="19" type="line"/>
      <point x="188" y="0" type="line"/>
      <point x="56" y="0" type="line"/>
      <point x="101" y="378" type="line"/>
      <point x="29" y="378" type="line"/>
    </contour>
    <contour>
      <point x="227" y="654" type="curve"/>
      <point x="297" y="654" type="line"/>
      <point x="288" y="568"/>
      <point x="236" y="527"/>
      <point x="158" y="527" type="curve" smooth="yes"/>
      <point x="79" y="527"/>
      <point x="39" y="570"/>
      <point x="48" y="654" type="curve"/>
      <point x="118" y="654" type="line"/>
      <point x="112" y="606"/>
      <point x="129" y="584"/>
      <point x="165" y="584" type="curve" smooth="yes"/>
      <point x="203" y="584"/>
      <point x="222" y="609"/>
    </contour>
  </outline>
</glyph>
<glyph name="iogonek" format="1">
  <advance width="261"/>
  <unicode hex="012F"/>
  <outline>
    <contour>
      <point x="195" y="-189" type="line"/>
      <point x="172" y="-200"/>
      <point x="144" y="-209"/>
      <point x="112" y="-209" type="curve" smooth="yes"/>
      <point x="54" y="-209"/>
      <point x="15" y="-181"/>
      <point x="15" y="-126" type="curve" smooth="yes"/>
      <point x="15" y="-73"/>
      <point x="52" y="-27"/>
      <point x="99" y="0" type="curve"/>
      <point x="56" y="0" type="line"/>
      <point x="101" y="378" type="line"/>
      <point x="29" y="378" type="line"/>
      <point x="35" y="425" type="line"/>
      <point x="59" y="447" type="line"/>
      <point x="195" y="447" type="line"/>
      <point x="148" y="69" type="line"/>
      <point x="218" y="69" type="line"/>
      <point x="212" y="19" type="line"/>
      <point x="188" y="0" type="line"/>
      <point x="160" y="0" type="line"/>
      <point x="106" y="-32"/>
      <point x="93" y="-69"/>
      <point x="93" y="-98" type="curve" smooth="yes"/>
      <point x="93" y="-134"/>
      <point x="111" y="-144"/>
      <point x="141" y="-144" type="curve" smooth="yes"/>
      <point x="157" y="-144"/>
      <point x="175" y="-140"/>
      <point x="193" y="-130" type="curve"/>
    </contour>
    <contour>
      <point x="121" y="552" type="line"/>
      <point x="208" y="552" type="line"/>
      <point x="219" y="655" type="line"/>
      <point x="132" y="655" type="line"/>
    </contour>
  </outline>
</glyph>
<glyph name="Idotaccent" format="1">
  <advance width="319"/>
  <unicode hex="0130"/>
  <outline>
    <contour>
      <point x="19" y="79" type="line"/>
      <point x="95" y="79" type="line"/>
      <point x="147" y="571" type="line"/>
      <point x="71" y="571" type="line"/>
      <point x="79" y="650" type="line"/>
      <point x="318" y="650" type="line"/>
      <point x="310" y="571" type="line"/>
      <point x="234" y="571" type="line"/>
      <point x="182" y="79" type="line"/>
      <point x="259" y="79" type="line"/>
      <point x="250" y="0" type="line"/>
      <point x="11" y="0" type="line"/>
    </contour>
    <contour>
      <point x="158" y="715" type="line"/>
      <point x="251" y="715" type="line"/>
      <point x="261" y="813" type="line"/>
      <point x="168" y="813" type="line"/>
    </contour>
  </outline>
</glyph>
<glyph name="dotlessi" format="1">
  <advance width="261"/>
  <unicode hex="0131"/>
  <outline>
    <contour>
      <point x="35" y="425" type="line"/>
      <point x="59" y="447" type="line"/>
      <point x="195" y="447" type="line"/>
      <point x="148" y="69" type="line"/>
      <point x="218" y="69" type="line"/>
      <point x="212" y="19" type="line"/>
      <point x="188" y="0" type="line"/>
      <point x="56" y="0" type="line"/>
      <point x="101" y="378" type="line"/>
      <point x="29" y="378" type="line"/>
    </contour>
    <contour>
      <point x="248" y="566" type="move" name="top"/>
    </contour>
  </outline>
</glyph>
<glyph name="ij" format="1">
  <advance width="508"/>
  <unicode hex="0133"/>
  <outline>
    <contour>
      <point x="285" y="425" type="line"/>
      <point x="309" y="447" type="line"/>
      <point x="463" y="447" type="line"/>
      <point x="407" y="-8" type="line"/>
      <point x="390" y="-140"/>
      <point x="343" y="-220"/>
      <point x="264" y="-223" type="curve"/>
      <point x="231" y="-223"/>
      <point x="203" y="-214"/>
      <point x="179" y="-201" type="curve"/>
      <point x="182" y="-141" type="line"/>
      <point x="251" y="-169"/>
      <point x="305" y="-152"/>
      <point x="323" y="-8" type="curve" smooth="yes"/>
      <point x="370" y="378" type="line"/>
      <point x="279" y="378" type="line"/>
    </contour>
    <contour>
      <point x="35" y="425" type="line"/>
      <point x="59" y="447" type="line"/>
      <point x="195" y="447" type="line"/>
      <point x="148" y="69" type="line"/>
      <point x="218" y="69" type="line"/>
      <point x="212" y="19" type="line"/>
      <point x="188" y="0" type="line"/>
      <point x="56" y="0" type="line"/>
      <point x="101" y="378" type="line"/>
      <point x="29" y="378" type="line"/>
    </contour>
    <contour>
      <point x="121" y="552" type="line"/>
      <point x="208" y="552" type="line"/>
      <point x="219" y="655" type="line"/>
      <point x="132" y="655" type="line"/>
    </contour>
    <contour>
      <point x="384" y="552" type="line"/>
      <point x="471" y="552" type="line"/>
      <point x="482" y="655" type="line"/>
      <point x="395" y="655" type="line"/>
    </contour>
  </outline>
</glyph>
<glyph name="jcircumflex" format="1">
  <advance width="249"/>
  <unicode hex="0135"/>
  <outline>
    <contour>
      <point x="25" y="425" type="line"/>
      <point x="49" y="447" type="line"/>
      <point x="203" y="447" type="line"/>
      <point x="147" y="-8" type="line" smooth="yes"/>
      <point x="131" y="-141"/>
      <point x="83" y="-221"/>
      <point x="2" y="-223" type="curve"/>
      <point x="-29" y="-223"/>
      <point x="-57" y="-214"/>
      <point x="-81" y="-201" type="curve"/>
      <point x="-77" y="-141" type="line"/>
      <point x="-10" y="-169"/>
      <point x="46" y="-152"/>
      <point x="64" y="-8" type="curve"/>
      <point x="110" y="378" type="line"/>
      <point x="19" y="378" type="line"/>
    </contour>
    <contour>
      <point x="177" y="674" type="line"/>
      <point x="149" y="674" type="line"/>
      <point x="13" y="552" type="line"/>
      <point x="38" y="515" type="line"/>
      <point x="152" y="597" type="line"/>
      <point x="256" y="516" type="line"/>
      <point x="288" y="552" type="line"/>
    </contour>
  </outline>
</glyph>
<glyph name="lcommaaccent" format="1">
  <advance width="244"/>
  <unicode hex="013C"/>
  <outline>
    <contour>
      <point x="50" y="667" type="line"/>
      <point x="74" y="688" type="line"/>
      <point x="210" y="688" type="line"/>
      <point x="134" y="69" type="line"/>
      <point x="204" y="69" type="line"/>
      <point x="197" y="19" type="line"/>
      <point x="174" y="0" type="line"/>
      <point x="41" y="0" type="line"/>
      <point x="116" y="619" type="line"/>
      <point x="44" y="619" type="line"/>
    </contour>
    <contour>
      <point x="142" y="-62" type="line"/>
      <point x="60" y="-62" type="line"/>
      <point x="38" y="-216" type="line"/>
      <point x="105" y="-216" type="line"/>
    </contour>
  </outline>
</glyph>
<glyph name="lcaron" format="1">
  <advance width="256"/>
  <unicode hex="013E"/>
  <outline>
    <contour>
      <point x="50" y="667" type="line"/>
      <point x="74" y="688" type="line"/>
      <point x="210" y="688" type="line"/>
      <point x="134" y="69" type="line"/>
      <point x="204" y="69" type="line"/>
      <point x="197" y="19" type="line"/>
      <point x="174" y="0" type="line"/>
      <point x="41" y="0" type="line"/>
      <point x="116" y="619" type="line"/>
      <point x="44" y="619" type="line"/>
    </contour>
    <contour>
      <point x="365" y="681" type="line"/>
      <point x="284" y="681" type="line"/>
      <point x="248" y="457" type="line"/>
      <point x="315" y="457" type="line"/>
    </contour>
  </outline>
</glyph>
<glyph name="Lslash" format="1">
  <advance width="531"/>
  <unicode hex="0141"/>
  <outline>
    <contour>
      <point x="474" y="0" type="line"/>
      <point x="516" y="214" type="line"/>
      <point x="440" y="221" type="line"/>
      <point x="406" y="79" type="line"/>
      <point x="185" y="79" type="line"/>
      <point x="208" y="298" type="line"/>
      <point x="361" y="353" type="line"/>
      <point x="368" y="424" type="line"/>
      <point x="215" y="369" type="line"/>
      <point x="237" y="571" type="line"/>
      <point x="339" y="571" type="line"/>
      <point x="347" y="650" type="line"/>
      <point x="80" y="650" type="line"/>
      <point x="72" y="571" type="line"/>
      <point x="149" y="571" type="line"/>
      <point x="124" y="336" type="line"/>
      <point x="41" y="306" type="line"/>
      <point x="34" y="235" type="line"/>
      <point x="116" y="265" type="line"/>
      <point x="97" y="79" type="line"/>
      <point x="20" y="79" type="line"/>
      <point x="12" y="0" type="line"/>
    </contour>
  </outline>
</glyph>
<glyph name="Ncommaaccent" format="1">
  <advance width="720"/>
  <unicode hex="0145"/>
  <outline>
    <contour>
      <point x="24" y="79" type="line"/>
      <point x="97" y="79" type="line"/>
      <point x="149" y="571" type="line"/>
      <point x="67" y="571" type="line"/>
      <point x="75" y="650" type="line"/>
      <point x="219" y="650" type="line"/>
      <point x="518" y="182" type="line"/>
      <point x="521" y="182" type="line"/>
      <point x="561" y="571" type="line"/>
      <point x="468" y="571" type="line"/>
      <point x="477" y="650" type="line"/>
      <point x="729" y="650" type="line"/>
      <point x="721" y="571" type="line"/>
      <point x="644" y="571" type="line"/>
      <point x="585" y="0" type="line"/>
      <point x="532" y="0" type="line"/>
      <point x="224" y="483" type="line"/>
      <point x="221" y="483" type="line"/>
      <point x="178" y="79" type="line"/>
      <point x="276" y="79" type="line"/>
      <point x="268" y="0" type="line"/>
      <point x="16" y="0" type="line"/>
    </contour>
    <contour>
      <point x="379" y="-62" type="line"/>
      <point x="297" y="-62" type="line"/>
      <point x="275" y="-216" type="line"/>
      <point x="342" y="-216" type="line"/>
    </contour>
  </outline>
</glyph>
<glyph name="Eng" format="1">
  <advance width="719"/>
  <unicode hex="014A"/>
  <outline>
    <contour>
      <point x="267" y="0" type="line"/>
      <point x="15" y="0" type="line"/>
      <point x="24" y="79" type="line"/>
      <point x="96" y="79" type="line"/>
      <point x="147" y="571" type="line"/>
      <point x="66" y="571" type="line"/>
      <point x="74" y="650" type="line"/>
      <point x="219" y="650" type="line"/>
      <point x="517" y="182" type="line"/>
      <point x="520" y="182" type="line"/>
      <point x="561" y="571" type="line"/>
      <point x="468" y="571" type="line"/>
      <point x="476" y="650" type="line"/>
      <point x="728" y="650" type="line"/>
      <point x="720" y="571" type="line"/>
      <point x="644" y="571" type="line"/>
      <point x="583" y="-20" type="line" smooth="yes"/>
      <point x="572" y="-139"/>
      <point x="499" y="-202"/>
      <point x="391" y="-202" type="curve" smooth="yes"/>
      <point x="299" y="-202"/>
      <point x="254" y="-158"/>
      <point x="233" y="-96" type="curve"/>
      <point x="302" y="-48" type="line"/>
      <point x="322" y="-103"/>
      <point x="351" y="-118"/>
      <point x="391" y="-118" type="curve" smooth="yes"/>
      <point x="457" y="-118"/>
      <point x="489" y="-76"/>
      <point x="493" y="-21" type="curve" smooth="yes"/>
      <point x="500" y="46" type="line"/>
      <point x="224" y="483" type="line"/>
      <point x="221" y="483" type="line"/>
      <point x="178" y="79" type="line"/>
      <point x="275" y="79" type="line"/>
    </contour>
  </outline>
</glyph>
<glyph name="omacron" format="1">
  <advance width="482"/>
  <unicode hex="014D"/>
  <outline>
    <contour>
      <point x="165" y="625" type="line"/>
      <point x="412" y="625" type="line"/>
      <point x="405" y="556" type="line"/>
      <point x="158" y="556" type="line"/>
    </contour>
    <contour>
      <point x="26" y="191" type="curve" smooth="yes"/>
      <point x="26" y="330"/>
      <point x="104" y="456"/>
      <point x="260" y="456" type="curve" smooth="yes"/>
      <point x="391" y="456"/>
      <point x="443" y="366"/>
      <point x="443" y="252" type="curve" smooth="yes"/>
      <point x="443" y="102"/>
      <point x="354" y="-10"/>
      <point x="209" y="-10" type="curve" smooth="yes"/>
      <point x="87" y="-10"/>
      <point x="26" y="69"/>
    </contour>
    <contour>
      <point x="118" y="197" type="curve" smooth="yes"/>
      <point x="118" y="115"/>
      <point x="140" y="59"/>
      <point x="217" y="59" type="curve" smooth="yes"/>
      <point x="313" y="59"/>
      <point x="352" y="146"/>
      <point x="352" y="249" type="curve" smooth="yes"/>
      <point x="352" y="335"/>
      <point x="326" y="387"/>
      <point x="250" y="387" type="curve" smooth="yes"/>
      <point x="162" y="387"/>
      <point x="118" y="313"/>
    </contour>
  </outline>
</glyph>
<glyph name="Obreve" format="1">
  <advance width="703"/>
  <unicode hex="014E"/>
  <outline>
    <contour>
      <point x="473" y="821" type="curve"/>
      <point x="543" y="821" type="line"/>
      <point x="534" y="735"/>
      <point x="483" y="698"/>
      <point x="405" y="698" type="curve" smooth="yes"/>
      <point x="326" y="698"/>
      <point x="285" y="737"/>
      <point x="294" y="821" type="curve"/>
      <point x="363" y="821" type="line"/>
      <point x="358" y="773"/>
      <point x="375" y="754"/>
      <point x="411" y="754" type="curve" smooth="yes"/>
      <point x="450" y="754"/>
      <point x="468" y="777"/>
    </contour>
    <contour>
      <point x="389" y="660" type="curve" smooth="yes"/>
      <point x="190" y="660"/>
      <point x="37" y="495"/>
      <point x="37" y="291" type="curve" smooth="yes"/>
      <point x="37" y="125"/>
      <point x="141" y="-10"/>
      <point x="321" y="-10" type="curve" smooth="yes"/>
      <point x="526" y="-10"/>
      <point x="676" y="159"/>
      <point x="676" y="359" type="curve" smooth="yes"/>
      <point x="676" y="526"/>
      <point x="567" y="660"/>
    </contour>
    <contour>
      <point x="334" y="71" type="curve" smooth="yes"/>
      <point x="193" y="71"/>
      <point x="132" y="178"/>
      <point x="132" y="299" type="curve" smooth="yes"/>
      <point x="132" y="451"/>
      <point x="231" y="579"/>
      <point x="380" y="579" type="curve" smooth="yes"/>
      <point x="507" y="579"/>
      <point x="581" y="488"/>
      <point x="581" y="353" type="curve" smooth="yes"/>
      <point x="581" y="205"/>
      <point x="490" y="71"/>
    </contour>
  </outline>
</glyph>
<glyph name="Ohungarumlaut" format="1">
  <advance width="703"/>
  <unicode hex="0150"/>
  <outline>
    <contour>
      <point x="389" y="660" type="curve" smooth="yes"/>
      <point x="190" y="660"/>
      <point x="37" y="495"/>
      <point x="37" y="291" type="curve" smooth="yes"/>
      <point x="37" y="125"/>
      <point x="141" y="-10"/>
      <point x="321" y="-10" type="curve" smooth="yes"/>
      <point x="526" y="-10"/>
      <point x="676" y="159"/>
      <point x="676" y="359" type="curve" smooth="yes"/>
      <point x="676" y="526"/>
      <point x="567" y="660"/>
    </contour>
    <contour>
      <point x="334" y="71" type="curve" smooth="yes"/>
      <point x="193" y="71"/>
      <point x="132" y="178"/>
      <point x="132" y="299" type="curve" smooth="yes"/>
      <point x="132" y="451"/>
      <point x="231" y="579"/>
      <point x="380" y="579" type="curve" smooth="yes"/>
      <point x="507" y="579"/>
      <point x="581" y="488"/>
      <point x="581" y="353" type="curve" smooth="yes"/>
      <point x="581" y="205"/>
      <point x="490" y="71"/>
    </contour>
    <contour>
      <point x="636" y="737" type="line"/>
      <point x="617" y="817" type="line"/>
      <point x="426" y="741" type="line"/>
      <point x="436" y="699" type="line"/>
    </contour>
    <contour>
      <point x="497" y="830" type="line"/>
      <point x="446" y="889" type="line"/>
      <point x="298" y="729" type="line"/>
      <point x="326" y="699" type="line"/>
    </contour>
  </outline>
</glyph>
<glyph name="OE" format="1">
  <advance width="979"/>
  <unicode hex="0152"/>
  <outline>
    <contour>
      <point x="898" y="0" type="line"/>
      <point x="937" y="186" type="line"/>
      <point x="862" y="193" type="line"/>
      <point x="830" y="79" type="line"/>
      <point x="586" y="79" type="line"/>
      <point x="608" y="290" type="line"/>
      <point x="900" y="290" type="line"/>
      <point x="908" y="368" type="line"/>
      <point x="616" y="368" type="line"/>
      <point x="638" y="571" type="line"/>
      <point x="878" y="571" type="line"/>
      <point x="885" y="457" type="line"/>
      <point x="961" y="464" type="line"/>
      <point x="961" y="650" type="line"/>
      <point x="557" y="650" type="line"/>
      <point x="553" y="613" type="line"/>
      <point x="510" y="642"/>
      <point x="461" y="660"/>
      <point x="395" y="660" type="curve" smooth="yes"/>
      <point x="187" y="660"/>
      <point x="38" y="501"/>
      <point x="38" y="299" type="curve" smooth="yes"/>
      <point x="38" y="130"/>
      <point x="145" y="-10"/>
      <point x="327" y="-10" type="curve" smooth="yes"/>
      <point x="393" y="-10"/>
      <point x="446" y="7"/>
      <point x="492" y="35" type="curve"/>
      <point x="489" y="0" type="line"/>
    </contour>
    <contour>
      <point x="341" y="71" type="curve" smooth="yes"/>
      <point x="201" y="71"/>
      <point x="134" y="178"/>
      <point x="134" y="304" type="curve" smooth="yes"/>
      <point x="134" y="452"/>
      <point x="224" y="579"/>
      <point x="389" y="579" type="curve" smooth="yes"/>
      <point x="453" y="579"/>
      <point x="505" y="559"/>
      <point x="543" y="519" type="curve"/>
      <point x="502" y="130" type="line"/>
      <point x="465" y="93"/>
      <point x="406" y="71"/>
    </contour>
  </outline>
</glyph>
<glyph name="oe" format="1">
  <advance width="764"/>
  <unicode hex="0153"/>
  <outline>
    <contour>
      <point x="26" y="191" type="curve" smooth="yes"/>
      <point x="26" y="330"/>
      <point x="104" y="456"/>
      <point x="260" y="456" type="curve" smooth="yes"/>
      <point x="336" y="456"/>
      <point x="385" y="425"/>
      <point x="413" y="378" type="curve"/>
      <point x="453" y="426"/>
      <point x="511" y="456"/>
      <point x="581" y="456" type="curve" smooth="yes"/>
      <point x="666" y="456"/>
      <point x="731" y="411"/>
      <point x="731" y="341" type="curve" smooth="yes"/>
      <point x="731" y="275"/>
      <point x="687" y="228"/>
      <point x="571" y="203" type="curve" smooth="yes"/>
      <point x="533" y="195"/>
      <point x="489" y="187"/>
      <point x="442" y="181" type="curve"/>
      <point x="444" y="105"/>
      <point x="471" y="59"/>
      <point x="542" y="59" type="curve" smooth="yes"/>
      <point x="605" y="59"/>
      <point x="636" y="99"/>
      <point x="653" y="144" type="curve"/>
      <point x="721" y="129" type="line"/>
      <point x="704" y="54"/>
      <point x="636" y="-10"/>
      <point x="529" y="-10" type="curve" smooth="yes"/>
      <point x="462" y="-10"/>
      <point x="410" y="15"/>
      <point x="380" y="65" type="curve"/>
      <point x="340" y="18"/>
      <point x="281" y="-10"/>
      <point x="209" y="-10" type="curve" smooth="yes"/>
      <point x="87" y="-10"/>
      <point x="26" y="69"/>
    </contour>
    <contour>
      <point x="118" y="197" type="curve" smooth="yes"/>
      <point x="118" y="115"/>
      <point x="140" y="59"/>
      <point x="217" y="59" type="curve" smooth="yes"/>
      <point x="313" y="59"/>
      <point x="352" y="146"/>
      <point x="352" y="249" type="curve" smooth="yes"/>
      <point x="352" y="335"/>
      <point x="326" y="387"/>
      <point x="250" y="387" type="curve" smooth="yes"/>
      <point x="162" y="387"/>
      <point x="118" y="313"/>
    </contour>
    <contour>
      <point x="532" y="252" type="curve"/>
      <point x="627" y="273"/>
      <point x="641" y="304"/>
      <point x="641" y="335" type="curve" smooth="yes"/>
      <point x="641" y="376"/>
      <point x="612" y="391"/>
      <point x="572" y="391" type="curve" smooth="yes"/>
      <point x="489" y="391"/>
      <point x="454" y="315"/>
      <point x="444" y="238" type="curve"/>
      <point x="481" y="242"/>
      <point x="509" y="248"/>
    </contour>
  </outline>
</glyph>
<glyph name="racute" format="1">
  <advance width="347"/>
  <unicode hex="0155"/>
  <outline>
    <contour>
      <point x="183" y="447" type="line"/>
      <point x="184" y="340" type="line"/>
      <point x="207" y="401"/>
      <point x="245" y="457"/>
      <point x="299" y="457" type="curve" smooth="yes"/>
      <point x="319" y="457"/>
      <point x="335" y="451"/>
      <point x="352" y="439" type="curve"/>
      <point x="337" y="350" type="line"/>
      <point x="316" y="361"/>
      <point x="300" y="365"/>
      <point x="284" y="365" type="curve" smooth="yes"/>
      <point x="234" y="365"/>
      <point x="195" y="316"/>
      <point x="181" y="257" type="curve"/>
      <point x="157" y="69" type="line"/>
      <point x="247" y="69" type="line"/>
      <point x="241" y="21" type="line"/>
      <point x="217" y="0" type="line"/>
      <point x="-3" y="0" type="line"/>
      <point x="4" y="47" type="line"/>
      <point x="27" y="69" type="line"/>
      <point x="71" y="69" type="line"/>
      <point x="109" y="378" type="line"/>
      <point x="37" y="378" type="line"/>
      <point x="43" y="425" type="line"/>
      <point x="67" y="447" type="line"/>
    </contour>
    <contour>
      <point x="400" y="617" type="line"/>
      <point x="357" y="688" type="line"/>
      <point x="190" y="553" type="line"/>
      <point x="211" y="516" type="line"/>
    </contour>
  </outline>
</glyph>
<glyph name="Tcaron" format="1">
  <advance width="612"/>
  <unicode hex="0164"/>
  <outline>
    <contour>
      <point x="330" y="696" type="line"/>
      <point x="358" y="696" type="line"/>
      <point x="495" y="792" type="line"/>
      <point x="476" y="831" type="line"/>
      <point x="353" y="767" type="line"/>
      <point x="238" y="829" type="line"/>
      <point x="214" y="790" type="line"/>
    </contour>
    <contour>
      <point x="607" y="446" type="line"/>
      <point x="609" y="650" type="line"/>
      <point x="79" y="650" type="line"/>
      <point x="40" y="446" type="line"/>
      <point x="116" y="439" type="line"/>
      <point x="149" y="571" type="line"/>
      <point x="293" y="571" type="line"/>
      <point x="242" y="79" type="line"/>
      <point x="135" y="79" type="line"/>
      <point x="127" y="0" type="line"/>
      <point x="430" y="0" type="line"/>
      <point x="438" y="79" type="line"/>
      <point x="329" y="79" type="line"/>
      <point x="380" y="571" type="line"/>
      <point x="523" y="571" type="line"/>
      <point x="529" y="439" type="line"/>
    </contour>
  </outline>
</glyph>
<glyph name="Utilde" format="1">
  <advance width="694"/>
  <unicode hex="0168"/>
  <outline>
    <contour>
      <point x="474" y="650" type="line"/>
      <point x="700" y="650" type="line"/>
      <point x="692" y="571" type="line"/>
      <point x="631" y="571" type="line"/>
      <point x="600" y="267" type="line"/>
      <point x="585" y="129"/>
      <point x="519" y="-10"/>
      <point x="323" y="-10" type="curve" smooth="yes"/>
      <point x="134" y="-10"/>
      <point x="77" y="116"/>
      <point x="92" y="256" type="curve" smooth="yes"/>
      <point x="125" y="571" type="line"/>
      <point x="63" y="571" type="line"/>
      <point x="71" y="650" type="line"/>
      <point x="305" y="650" type="line"/>
      <point x="296" y="571" type="line"/>
      <point x="213" y="571" type="line"/>
      <point x="180" y="259" type="line"/>
      <point x="169" y="143"/>
      <point x="213" y="71"/>
      <point x="331" y="71" type="curve" smooth="yes"/>
      <point x="442" y="71"/>
      <point x="504" y="141"/>
      <point x="518" y="267" type="curve"/>
      <point x="549" y="571" type="line"/>
      <point x="466" y="571" type="line"/>
    </contour>
    <contour>
      <point x="292" y="703" type="line"/>
      <point x="305" y="733"/>
      <point x="325" y="741"/>
      <point x="344" y="741" type="curve" smooth="yes"/>
      <point x="384" y="741"/>
      <point x="413" y="707"/>
      <point x="462" y="707" type="curve" smooth="yes"/>
      <point x="514" y="707"/>
      <point x="538" y="749"/>
      <point x="550" y="804" type="curve"/>
      <point x="510" y="814" type="line"/>
      <point x="497" y="780"/>
      <point x="478" y="773"/>
      <point x="460" y="773" type="curve" smooth="yes"/>
      <point x="417" y="773"/>
      <point x="392" y="807"/>
      <point x="348" y="807" type="curve" smooth="yes"/>
      <point x="293" y="807"/>
      <point x="263" y="752"/>
      <point x="257" y="717" type="curve"/>
    </contour>
  </outline>
</glyph>
<glyph name="Ubreve" format="1">
  <advance width="694"/>
  <unicode hex="016C"/>
  <outline>
    <contour>
      <point x="474" y="650" type="line"/>
      <point x="700" y="650" type="line"/>
      <point x="692" y="571" type="line"/>
      <point x="631" y="571" type="line"/>
      <point x="600" y="267" type="line"/>
      <point x="585" y="129"/>
      <point x="519" y="-10"/>
      <point x="323" y="-10" type="curve" smooth="yes"/>
      <point x="134" y="-10"/>
      <point x="77" y="116"/>
      <point x="92" y="256" type="curve" smooth="yes"/>
      <point x="125" y="571" type="line"/>
      <point x="63" y="571" type="line"/>
      <point x="71" y="650" type="line"/>
      <point x="305" y="650" type="line"/>
      <point x="296" y="571" type="line"/>
      <point x="213" y="571" type="line"/>
      <point x="180" y="259" type="line"/>
      <point x="169" y="143"/>
      <point x="213" y="71"/>
      <point x="331" y="71" type="curve" smooth="yes"/>
      <point x="442" y="71"/>
      <point x="504" y="141"/>
      <point x="518" y="267" type="curve"/>
      <point x="549" y="571" type="line"/>
      <point x="466" y="571" type="line"/>
    </contour>
    <contour>
      <point x="460" y="821" type="curve"/>
      <point x="530" y="821" type="line"/>
      <point x="521" y="735"/>
      <point x="470" y="698"/>
      <point x="392" y="698" type="curve" smooth="yes"/>
      <point x="313" y="698"/>
      <point x="272" y="737"/>
      <point x="281" y="821" type="curve"/>
      <point x="350" y="821" type="line"/>
      <point x="345" y="773"/>
      <point x="362" y="754"/>
      <point x="398" y="754" type="curve" smooth="yes"/>
      <point x="437" y="754"/>
      <point x="455" y="777"/>
    </contour>
  </outline>
</glyph>
<glyph name="ubreve" format="1">
  <advance width="528"/>
  <unicode hex="016D"/>
  <outline>
    <contour>
      <point x="491" y="69" type="line"/>
      <point x="485" y="21" type="line"/>
      <point x="460" y="0" type="line"/>
      <point x="339" y="0" type="line"/>
      <point x="338" y="85" type="line"/>
      <point x="307" y="28"/>
      <point x="260" y="-9"/>
      <point x="191" y="-9" type="curve" smooth="yes"/>
      <point x="108" y="-9"/>
      <point x="49" y="41"/>
      <point x="62" y="156" type="curve"/>
      <point x="89" y="378" type="line"/>
      <point x="19" y="378" type="line"/>
      <point x="25" y="427" type="line"/>
      <point x="49" y="447" type="line"/>
      <point x="181" y="447" type="line"/>
      <point x="150" y="185" type="line"/>
      <point x="138" y="95"/>
      <point x="166" y="60"/>
      <point x="228" y="60" type="curve" smooth="yes"/>
      <point x="295" y="60"/>
      <point x="333" y="112"/>
      <point x="345" y="172" type="curve"/>
      <point x="379" y="447" type="line"/>
      <point x="464" y="447" type="line"/>
      <point x="417" y="69" type="line"/>
    </contour>
    <contour>
      <point x="348" y="654" type="curve"/>
      <point x="418" y="654" type="line"/>
      <point x="409" y="568"/>
      <point x="357" y="527"/>
      <point x="279" y="527" type="curve" smooth="yes"/>
      <point x="200" y="527"/>
      <point x="160" y="570"/>
      <point x="169" y="654" type="curve"/>
      <point x="239" y="654" type="line"/>
      <point x="233" y="606"/>
      <point x="250" y="584"/>
      <point x="286" y="584" type="curve" smooth="yes"/>
      <point x="324" y="584"/>
      <point x="343" y="609"/>
    </contour>
  </outline>
</glyph>
<glyph name="uring" format="1">
  <advance width="528"/>
  <unicode hex="016F"/>
  <outline>
    <contour>
      <point x="491" y="69" type="line"/>
      <point x="485" y="21" type="line"/>
      <point x="460" y="0" type="line"/>
      <point x="339" y="0" type="line"/>
      <point x="338" y="85" type="line"/>
      <point x="307" y="28"/>
      <point x="260" y="-9"/>
      <point x="191" y="-9" type="curve" smooth="yes"/>
      <point x="108" y="-9"/>
      <point x="49" y="41"/>
      <point x="62" y="156" type="curve"/>
      <point x="89" y="378" type="line"/>
      <point x="19" y="378" type="line"/>
      <point x="25" y="427" type="line"/>
      <point x="49" y="447" type="line"/>
      <point x="181" y="447" type="line"/>
      <point x="150" y="185" type="line"/>
      <point x="138" y="95"/>
      <point x="166" y="60"/>
      <point x="228" y="60" type="curve" smooth="yes"/>
      <point x="295" y="60"/>
      <point x="333" y="112"/>
      <point x="345" y="172" type="curve"/>
      <point x="379" y="447" type="line"/>
      <point x="464" y="447" type="line"/>
      <point x="417" y="69" type="line"/>
    </contour>
    <contour>
      <point x="282" y="514" type="curve" smooth="yes"/>
      <point x="355" y="514"/>
      <point x="393" y="562"/>
      <point x="393" y="617" type="curve" smooth="yes"/>
      <point x="393" y="665"/>
      <point x="363" y="698"/>
      <point x="304" y="698" type="curve" smooth="yes"/>
      <point x="234" y="698"/>
      <point x="194" y="656"/>
      <point x="194" y="595" type="curve" smooth="yes"/>
      <point x="194" y="546"/>
      <point x="223" y="514"/>
    </contour>
    <contour>
      <point x="288" y="560" type="curve" smooth="yes"/>
      <point x="261" y="560"/>
      <point x="252" y="574"/>
      <point x="252" y="598" type="curve" smooth="yes"/>
      <point x="252" y="632"/>
      <point x="268" y="652"/>
      <point x="299" y="652" type="curve" smooth="yes"/>
      <point x="327" y="652"/>
      <point x="336" y="635"/>
      <point x="336" y="614" type="curve" smooth="yes"/>
      <point x="336" y="580"/>
      <point x="318" y="560"/>
    </contour>
  </outline>
</glyph>
<glyph name="uhungarumlaut" format="1">
  <advance width="528"/>
  <unicode hex="0171"/>
  <outline>
    <contour>
      <point x="491" y="69" type="line"/>
      <point x="485" y="21" type="line"/>
      <point x="460" y="0" type="line"/>
      <point x="339" y="0" type="line"/>
      <point x="338" y="85" type="line"/>
      <point x="307" y="28"/>
      <point x="260" y="-9"/>
      <point x="191" y="-9" type="curve" smooth="yes"/>
      <point x="108" y="-9"/>
      <point x="49" y="41"/>
      <point x="62" y="156" type="curve"/>
      <point x="89" y="378" type="line"/>
      <point x="19" y="378" type="line"/>
      <point x="25" y="427" type="line"/>
      <point x="49" y="447" type="line"/>
      <point x="181" y="447" type="line"/>
      <point x="150" y="185" type="line"/>
      <point x="138" y="95"/>
      <point x="166" y="60"/>
      <point x="228" y="60" type="curve" smooth="yes"/>
      <point x="295" y="60"/>
      <point x="333" y="112"/>
      <point x="345" y="172" type="curve"/>
      <point x="379" y="447" type="line"/>
      <point x="464" y="447" type="line"/>
      <point x="417" y="69" type="line"/>
    </contour>
    <contour>
      <point x="504" y="617" type="line"/>
      <point x="464" y="688" type="line"/>
      <point x="296" y="553" type="line"/>
      <point x="317" y="516" type="line"/>
    </contour>
    <contour>
      <point x="354" y="673" type="line"/>
      <point x="291" y="722" type="line"/>
      <point x="174" y="541" type="line"/>
      <point x="207" y="516" type="line"/>
    </contour>
  </outline>
</glyph>
<glyph name="Uogonek" format="1">
  <advance width="695"/>
  <unicode hex="0172"/>
  <outline>
    <contour>
      <point x="72" y="650" type="line"/>
      <point x="306" y="650" type="line"/>
      <point x="297" y="571" type="line"/>
      <point x="214" y="571" type="line"/>
      <point x="181" y="259" type="line"/>
      <point x="170" y="143"/>
      <point x="214" y="71"/>
      <point x="332" y="71" type="curve" smooth="yes"/>
      <point x="443" y="71"/>
      <point x="505" y="141"/>
      <point x="519" y="267" type="curve"/>
      <point x="550" y="571" type="line"/>
      <point x="467" y="571" type="line"/>
      <point x="475" y="650" type="line"/>
      <point x="701" y="650" type="line"/>
      <point x="693" y="571" type="line"/>
      <point x="632" y="571" type="line"/>
      <point x="601" y="267" type="line" smooth="yes"/>
      <point x="588" y="145"/>
      <point x="535" y="23"/>
      <point x="389" y="-4" type="curve"/>
      <point x="340" y="-35"/>
      <point x="329" y="-70"/>
      <point x="329" y="-98" type="curve" smooth="yes"/>
      <point x="329" y="-134"/>
      <point x="347" y="-144"/>
      <point x="377" y="-144" type="curve" smooth="yes"/>
      <point x="393" y="-144"/>
      <point x="411" y="-140"/>
      <point x="429" y="-130" type="curve"/>
      <point x="431" y="-189" type="line"/>
      <point x="408" y="-200"/>
      <point x="380" y="-209"/>
      <point x="348" y="-209" type="curve" smooth="yes"/>
      <point x="290" y="-209"/>
      <point x="251" y="-181"/>
      <point x="251" y="-126" type="curve" smooth="yes"/>
      <point x="251" y="-79"/>
      <point x="280" y="-37"/>
      <point x="319" y="-10" type="curve"/>
      <point x="134" y="-8"/>
      <point x="78" y="117"/>
      <point x="93" y="256" type="curve" smooth="yes"/>
      <point x="126" y="571" type="line"/>
      <point x="64" y="571" type="line"/>
    </contour>
  </outline>
</glyph>
<glyph name="wcircumflex" format="1">
  <advance width="720"/>
  <unicode hex="0175"/>
  <outline>
    <contour>
      <point x="495" y="102" type="line"/>
      <point x="499" y="102" type="line"/>
      <point x="574" y="195"/>
      <point x="605" y="268"/>
      <point x="605" y="354" type="curve" smooth="yes"/>
      <point x="605" y="387"/>
      <point x="601" y="416"/>
      <point x="588" y="447" type="curve"/>
      <point x="684" y="447" type="line"/>
      <point x="702" y="358"/>
      <point x="687" y="269"/>
      <point x="628" y="177" type="curve" smooth="yes"/>
      <point x="596" y="127"/>
      <point x="534" y="51"/>
      <point x="481" y="0" type="curve"/>
      <point x="440" y="0" type="line"/>
      <point x="368" y="313" type="line"/>
      <point x="363" y="313" type="line"/>
      <point x="209" y="0" type="line"/>
      <point x="161" y="0" type="line"/>
      <point x="61" y="378" type="line"/>
      <point x="12" y="378" type="line"/>
      <point x="19" y="425" type="line"/>
      <point x="43" y="447" type="line"/>
      <point x="236" y="447" type="line"/>
      <point x="230" y="398" type="line"/>
      <point x="206" y="378" type="line"/>
      <point x="150" y="378" type="line"/>
      <point x="205" y="127" type="line"/>
      <point x="210" y="127" type="line"/>
      <point x="362" y="447" type="line"/>
      <point x="417" y="447" type="line"/>
    </contour>
    <contour>
      <point x="420" y="674" type="line"/>
      <point x="392" y="674" type="line"/>
      <point x="256" y="552" type="line"/>
      <point x="281" y="515" type="line"/>
      <point x="395" y="597" type="line"/>
      <point x="499" y="516" type="line"/>
      <point x="531" y="552" type="line"/>
    </contour>
  </outline>
</glyph>
<glyph name="Ydieresis" format="1">
  <advance width="604"/>
  <unicode hex="0178"/>
  <outline>
    <contour>
      <point x="630" y="571" type="line"/>
      <point x="570" y="571" type="line"/>
      <point x="344" y="251" type="line"/>
      <point x="326" y="79" type="line"/>
      <point x="435" y="79" type="line"/>
      <point x="426" y="0" type="line"/>
      <point x="126" y="0" type="line"/>
      <point x="134" y="79" type="line"/>
      <point x="239" y="79" type="line"/>
      <point x="257" y="251" type="line"/>
      <point x="91" y="571" type="line"/>
      <point x="30" y="571" type="line"/>
      <point x="39" y="650" type="line"/>
      <point x="276" y="650" type="line"/>
      <point x="268" y="571" type="line"/>
      <point x="191" y="571" type="line"/>
      <point x="311" y="332" type="line"/>
      <point x="316" y="332" type="line"/>
      <point x="480" y="571" type="line"/>
      <point x="402" y="571" type="line"/>
      <point x="410" y="650" type="line"/>
      <point x="638" y="650" type="line"/>
    </contour>
    <contour>
      <point x="386" y="715" type="line"/>
      <point x="480" y="715" type="line"/>
      <point x="490" y="813" type="line"/>
      <point x="397" y="813" type="line"/>
    </contour>
    <contour>
      <point x="215" y="715" type="line"/>
      <point x="308" y="715" type="line"/>
      <point x="318" y="813" type="line"/>
      <point x="225" y="813" type="line"/>
    </contour>
  </outline>
</glyph>
<glyph name="zdotaccent" format="1">
  <advance width="449"/>
  <unicode hex="017C"/>
  <outline>
    <contour>
      <point x="377" y="0" type="line"/>
      <point x="416" y="144" type="line"/>
      <point x="349" y="153" type="line"/>
      <point x="317" y="69" type="line"/>
      <point x="118" y="69" type="line"/>
      <point x="420" y="397" type="line"/>
      <point x="406" y="447" type="line"/>
      <point x="69" y="447" type="line"/>
      <point x="40" y="302" type="line"/>
      <point x="106" y="294" type="line"/>
      <point x="129" y="378" type="line"/>
      <point x="309" y="378" type="line"/>
      <point x="4" y="50" type="line"/>
      <point x="13" y="0" type="line"/>
    </contour>
    <contour>
      <point x="212" y="547" type="line"/>
      <point x="302" y="547" type="line"/>
      <point x="312" y="650" type="line"/>
      <point x="223" y="650" type="line"/>
    </contour>
  </outline>
</glyph>
<glyph name="uni018F" format="1">
  <advance width="672"/>
  <unicode hex="018F"/>
  <outline>
    <contour>
      <point x="143" y="436" type="line"/>
      <point x="167" y="534" type="line"/>
      <point x="220" y="562"/>
      <point x="284" y="578"/>
      <point x="341" y="578" type="curve" smooth="yes"/>
      <point x="474" y="578"/>
      <point x="549" y="494"/>
      <point x="547" y="352" type="curve"/>
      <point x="46" y="352" type="line"/>
      <point x="39" y="279" type="line" smooth="yes"/>
      <point x="21" y="96"/>
      <point x="127" y="-10"/>
      <point x="301" y="-10" type="curve" smooth="yes"/>
      <point x="527" y="-10"/>
      <point x="644" y="171"/>
      <point x="644" y="363" type="curve" smooth="yes"/>
      <point x="644" y="527"/>
      <point x="553" y="660"/>
      <point x="350" y="660" type="curve" smooth="yes"/>
      <point x="257" y="660"/>
      <point x="171" y="631"/>
      <point x="102" y="590" type="curve"/>
      <point x="74" y="444" type="line"/>
    </contour>
    <contour>
      <point x="542" y="285" type="line"/>
      <point x="524" y="170"/>
      <point x="460" y="71"/>
      <point x="313" y="71" type="curve" smooth="yes"/>
      <point x="156" y="71"/>
      <point x="123" y="185"/>
      <point x="135" y="279" type="curve" smooth="yes"/>
      <point x="136" y="285" type="line"/>
    </contour>
  </outline>
</glyph>
<glyph name="florin" format="1">
  <advance width="371"/>
  <unicode hex="0192"/>
  <outline>
    <contour>
      <point x="44" y="277" type="line"/>
      <point x="118" y="277" type="line"/>
      <point x="135" y="381" type="line" smooth="yes"/>
      <point x="151" y="478"/>
      <point x="218" y="529"/>
      <point x="313" y="529" type="curve" smooth="yes"/>
      <point x="329" y="529"/>
      <point x="358" y="528"/>
      <point x="378" y="525" type="curve"/>
      <point x="371" y="463" type="line"/>
      <point x="350" y="466"/>
      <point x="331" y="469"/>
      <point x="314" y="469" type="curve" smooth="yes"/>
      <point x="262" y="469"/>
      <point x="230" y="449"/>
      <point x="220" y="379" type="curve"/>
      <point x="204" y="277" type="line"/>
      <point x="312" y="277" type="line"/>
      <point x="307" y="222" type="line"/>
      <point x="195" y="222" type="line"/>
      <point x="162" y="18" type="line" smooth="yes"/>
      <point x="152" y="-47"/>
      <point x="120" y="-112"/>
      <point x="12" y="-112" type="curve" smooth="yes"/>
      <point x="1" y="-112"/>
      <point x="-9" y="-111"/>
      <point x="-31" y="-108" type="curve"/>
      <point x="-25" y="-48" type="line"/>
      <point x="-8" y="-52"/>
      <point x="4" y="-52"/>
      <point x="15" y="-52" type="curve" smooth="yes"/>
      <point x="53" y="-52"/>
      <point x="68" y="-36"/>
      <point x="79" y="33" type="curve" smooth="yes"/>
      <point x="109" y="222" type="line"/>
      <point x="38" y="222" type="line"/>
    </contour>
  </outline>
</glyph>
<glyph name="uni01C8" format="1">
  <advance width="777"/>
  <unicode hex="01C8"/>
  <outline>
    <contour>
      <point x="472" y="0" type="line"/>
      <point x="514" y="214" type="line"/>
      <point x="438" y="221" type="line"/>
      <point x="404" y="79" type="line"/>
      <point x="183" y="79" type="line"/>
      <point x="235" y="571" type="line"/>
      <point x="337" y="571" type="line"/>
      <point x="345" y="650" type="line"/>
      <point x="78" y="650" type="line"/>
      <point x="70" y="571" type="line"/>
      <point x="147" y="571" type="line"/>
      <point x="95" y="79" type="line"/>
      <point x="18" y="79" type="line"/>
      <point x="10" y="0" type="line"/>
    </contour>
    <contour>
      <point x="553" y="425" type="line"/>
      <point x="577" y="447" type="line"/>
      <point x="731" y="447" type="line"/>
      <point x="675" y="-8" type="line"/>
      <point x="658" y="-140"/>
      <point x="611" y="-220"/>
      <point x="532" y="-223" type="curve"/>
      <point x="499" y="-223"/>
      <point x="471" y="-214"/>
      <point x="447" y="-201" type="curve"/>
      <point x="450" y="-141" type="line"/>
      <point x="519" y="-169"/>
      <point x="573" y="-152"/>
      <point x="591" y="-8" type="curve" smooth="yes"/>
      <point x="638" y="378" type="line"/>
      <point x="547" y="378" type="line"/>
    </contour>
    <contour>
      <point x="652" y="552" type="line"/>
      <point x="739" y="552" type="line"/>
      <point x="750" y="655" type="line"/>
      <point x="663" y="655" type="line"/>
    </contour>
  </outline>
</glyph>
<glyph name="uni01CB" format="1">
  <advance width="968"/>
  <unicode hex="01CB"/>
  <outline>
    <contour>
      <point x="24" y="79" type="line"/>
      <point x="97" y="79" type="line"/>
      <point x="149" y="571" type="line"/>
      <point x="67" y="571" type="line"/>
      <point x="75" y="650" type="line"/>
      <point x="219" y="650" type="line"/>
      <point x="518" y="182" type="line"/>
      <point x="521" y="182" type="line"/>
      <point x="561" y="571" type="line"/>
      <point x="468" y="571" type="line"/>
      <point x="477" y="650" type="line"/>
      <point x="729" y="650" type="line"/>
      <point x="721" y="571" type="line"/>
      <point x="644" y="571" type="line"/>
      <point x="585" y="0" type="line"/>
      <point x="532" y="0" type="line"/>
      <point x="224" y="483" type="line"/>
      <point x="221" y="483" type="line"/>
      <point x="178" y="79" type="line"/>
      <point x="276" y="79" type="line"/>
      <point x="268" y="0" type="line"/>
      <point x="16" y="0" type="line"/>
    </contour>
    <contour>
      <point x="744" y="425" type="line"/>
      <point x="768" y="447" type="line"/>
      <point x="922" y="447" type="line"/>
      <point x="866" y="-8" type="line"/>
      <point x="849" y="-140"/>
      <point x="802" y="-220"/>
      <point x="723" y="-223" type="curve"/>
      <point x="690" y="-223"/>
      <point x="662" y="-214"/>
      <point x="638" y="-201" type="curve"/>
      <point x="641" y="-141" type="line"/>
      <point x="710" y="-169"/>
      <point x="764" y="-152"/>
      <point x="782" y="-8" type="curve" smooth="yes"/>
      <point x="829" y="378" type="line"/>
      <point x="738" y="378" type="line"/>
    </contour>
    <contour>
      <point x="843" y="552" type="line"/>
      <point x="930" y="552" type="line"/>
      <point x="941" y="655" type="line"/>
      <point x="854" y="655" type="line"/>
    </contour>
  </outline>
</glyph>
<glyph name="uni01CC" format="1">
  <advance width="775"/>
  <unicode hex="01CC"/>
  <outline>
    <contour>
      <point x="57" y="447" type="line"/>
      <point x="178" y="447" type="line"/>
      <point x="179" y="361" type="line"/>
      <point x="211" y="418"/>
      <point x="259" y="456"/>
      <point x="328" y="456" type="curve" smooth="yes"/>
      <point x="411" y="456"/>
      <point x="470" y="405"/>
      <point x="456" y="291" type="curve" smooth="yes"/>
      <point x="429" y="69" type="line"/>
      <point x="499" y="69" type="line"/>
      <point x="493" y="19" type="line"/>
      <point x="469" y="0" type="line"/>
      <point x="338" y="0" type="line"/>
      <point x="369" y="261" type="line" smooth="yes"/>
      <point x="380" y="352"/>
      <point x="351" y="387"/>
      <point x="291" y="387" type="curve" smooth="yes"/>
      <point x="222" y="387"/>
      <point x="181" y="331"/>
      <point x="170" y="268" type="curve"/>
      <point x="138" y="0" type="line"/>
      <point x="54" y="0" type="line"/>
      <point x="99" y="378" type="line"/>
      <point x="26" y="378" type="line"/>
      <point x="32" y="425" type="line"/>
    </contour>
    <contour>
      <point x="552" y="425" type="line"/>
      <point x="576" y="447" type="line"/>
      <point x="730" y="447" type="line"/>
      <point x="674" y="-8" type="line"/>
      <point x="657" y="-140"/>
      <point x="610" y="-220"/>
      <point x="531" y="-223" type="curve"/>
      <point x="498" y="-223"/>
      <point x="470" y="-214"/>
      <point x="446" y="-201" type="curve"/>
      <point x="449" y="-141" type="line"/>
      <point x="518" y="-169"/>
      <point x="572" y="-152"/>
      <point x="590" y="-8" type="curve" smooth="yes"/>
      <point x="637" y="378" type="line"/>
      <point x="546" y="378" type="line"/>
    </contour>
    <contour>
      <point x="651" y="552" type="line"/>
      <point x="738" y="552" type="line"/>
      <point x="749" y="655" type="line"/>
      <point x="662" y="655" type="line"/>
    </contour>
  </outline>
</glyph>
<glyph name="uni01D3" format="1">
  <advance width="694"/>
  <unicode hex="01D3"/>
  <outline>
    <contour>
      <point x="474" y="650" type="line"/>
      <point x="700" y="650" type="line"/>
      <point x="692" y="571" type="line"/>
      <point x="631" y="571" type="line"/>
      <point x="600" y="267" type="line"/>
      <point x="585" y="129"/>
      <point x="519" y="-10"/>
      <point x="323" y="-10" type="curve" smooth="yes"/>
      <point x="134" y="-10"/>
      <point x="77" y="116"/>
      <point x="92" y="256" type="curve" smooth="yes"/>
      <point x="125" y="571" type="line"/>
      <point x="63" y="571" type="line"/>
      <point x="71" y="650" type="line"/>
      <point x="305" y="650" type="line"/>
      <point x="296" y="571" type="line"/>
      <point x="213" y="571" type="line"/>
      <point x="180" y="259" type="line"/>
      <point x="169" y="143"/>
      <point x="213" y="71"/>
      <point x="331" y="71" type="curve" smooth="yes"/>
      <point x="442" y="71"/>
      <point x="504" y="141"/>
      <point x="518" y="267" type="curve"/>
      <point x="549" y="571" type="line"/>
      <point x="466" y="571" type="line"/>
    </contour>
    <contour>
      <point x="377" y="696" type="line"/>
      <point x="405" y="696" type="line"/>
      <point x="542" y="792" type="line"/>
      <point x="523" y="831" type="line"/>
      <point x="400" y="767" type="line"/>
      <point x="285" y="829" type="line"/>
      <point x="261" y="790" type="line"/>
    </contour>
  </outline>
</glyph>
<glyph name="aemacron" format="1">
  <advance width="707"/>
  <unicode hex="01E3"/>
  <outline>
    <contour>
      <point x="226" y="392" type="curve" smooth="yes"/>
      <point x="301" y="392"/>
      <point x="309" y="342"/>
      <point x="303" y="282" type="curve" smooth="yes"/>
      <point x="299" y="249" type="line"/>
      <point x="299" y="248" type="line"/>
      <point x="277" y="249"/>
      <point x="250" y="251"/>
      <point x="228" y="251" type="curve" smooth="yes"/>
      <point x="124" y="251"/>
      <point x="19" y="217"/>
      <point x="19" y="108" type="curve" smooth="yes"/>
      <point x="19" y="20"/>
      <point x="87" y="-10"/>
      <point x="151" y="-10" type="curve" smooth="yes"/>
      <point x="230" y="-10"/>
      <point x="282" y="36"/>
      <point x="312" y="84" type="curve"/>
      <point x="340" y="21"/>
      <point x="396" y="-10"/>
      <point x="471" y="-10" type="curve" smooth="yes"/>
      <point x="579" y="-10"/>
      <point x="646" y="54"/>
      <point x="664" y="129" type="curve"/>
      <point x="595" y="144" type="line"/>
      <point x="579" y="99"/>
      <point x="549" y="59"/>
      <point x="484" y="59" type="curve" smooth="yes"/>
      <point x="413" y="59"/>
      <point x="387" y="105"/>
      <point x="385" y="182" type="curve"/>
      <point x="433" y="189"/>
      <point x="479" y="196"/>
      <point x="515" y="203" type="curve"/>
      <point x="630" y="228"/>
      <point x="673" y="276"/>
      <point x="673" y="338" type="curve" smooth="yes"/>
      <point x="673" y="413"/>
      <point x="608" y="456"/>
      <point x="524" y="456" type="curve" smooth="yes"/>
      <point x="464" y="456"/>
      <point x="413" y="434"/>
      <point x="374" y="397" type="curve"/>
      <point x="350" y="434"/>
      <point x="305" y="456"/>
      <point x="240" y="456" type="curve" smooth="yes"/>
      <point x="190" y="456"/>
      <point x="134" y="445"/>
      <point x="84" y="413" type="curve"/>
      <point x="56" y="306" type="line"/>
      <point x="124" y="298" type="line"/>
      <point x="149" y="371" type="line"/>
      <point x="175" y="383"/>
      <point x="198" y="392"/>
    </contour>
    <contour>
      <point x="175" y="56" type="curve" smooth="yes"/>
      <point x="139" y="56"/>
      <point x="112" y="74"/>
      <point x="112" y="120" type="curve" smooth="yes"/>
      <point x="112" y="183"/>
      <point x="160" y="206"/>
      <point x="225" y="206" type="curve" smooth="yes"/>
      <point x="244" y="206"/>
      <point x="271" y="203"/>
      <point x="294" y="200" type="curve"/>
      <point x="294" y="165" type="line"/>
      <point x="280" y="101"/>
      <point x="232" y="56"/>
    </contour>
    <contour>
      <point x="515" y="391" type="curve" smooth="yes"/>
      <point x="553" y="391"/>
      <point x="585" y="376"/>
      <point x="585" y="334" type="curve" smooth="yes"/>
      <point x="585" y="304"/>
      <point x="568" y="271"/>
      <point x="472" y="252" type="curve"/>
      <point x="456" y="248"/>
      <point x="425" y="243"/>
      <point x="387" y="238" type="curve"/>
      <point x="397" y="315"/>
      <point x="432" y="391"/>
    </contour>
    <contour>
      <point x="277" y="625" type="line"/>
      <point x="524" y="625" type="line"/>
      <point x="517" y="556" type="line"/>
      <point x="270" y="556" type="line"/>
    </contour>
  </outline>
</glyph>
<glyph name="uni01F2" format="1">
  <advance width="1130"/>
  <unicode hex="01F2"/>
  <outline>
    <contour>
      <point x="362" y="650" type="line" smooth="yes"/>
      <point x="555" y="650"/>
      <point x="654" y="534"/>
      <point x="654" y="361" type="curve" smooth="yes"/>
      <point x="654" y="154"/>
      <point x="515" y="0"/>
      <point x="299" y="0" type="curve" smooth="yes"/>
      <point x="11" y="0" type="line"/>
      <point x="20" y="78" type="line"/>
      <point x="96" y="78" type="line"/>
      <point x="148" y="572" type="line"/>
      <point x="71" y="572" type="line"/>
      <point x="79" y="650" type="line"/>
    </contour>
    <contour>
      <point x="302" y="78" type="line" smooth="yes"/>
      <point x="463" y="78"/>
      <point x="561" y="187"/>
      <point x="561" y="353" type="curve" smooth="yes"/>
      <point x="561" y="491"/>
      <point x="491" y="572"/>
      <point x="353" y="572" type="curve" smooth="yes"/>
      <point x="234" y="572" type="line"/>
      <point x="182" y="78" type="line"/>
    </contour>
    <contour>
      <point x="1059" y="0" type="line"/>
      <point x="1098" y="144" type="line"/>
      <point x="1031" y="153" type="line"/>
      <point x="999" y="69" type="line"/>
      <point x="800" y="69" type="line"/>
      <point x="1102" y="397" type="line"/>
      <point x="1088" y="447" type="line"/>
      <point x="751" y="447" type="line"/>
      <point x="722" y="302" type="line"/>
      <point x="788" y="294" type="line"/>
      <point x="811" y="378" type="line"/>
      <point x="991" y="378" type="line"/>
      <point x="686" y="50" type="line"/>
      <point x="695" y="0" type="line"/>
    </contour>
  </outline>
</glyph>
<glyph name="schwa" format="1">
  <advance width="439"/>
  <unicode hex="0259"/>
  <outline>
    <contour>
      <point x="210" y="387" type="curve" smooth="yes"/>
      <point x="147" y="387"/>
      <point x="116" y="347"/>
      <point x="99" y="302" type="curve"/>
      <point x="31" y="317" type="line"/>
      <point x="48" y="392"/>
      <point x="116" y="456"/>
      <point x="223" y="456" type="curve" smooth="yes"/>
      <point x="331" y="456"/>
      <point x="401" y="390"/>
      <point x="401" y="260" type="curve" smooth="yes"/>
      <point x="401" y="111"/>
      <point x="312" y="-10"/>
      <point x="171" y="-10" type="curve" smooth="yes"/>
      <point x="86" y="-10"/>
      <point x="21" y="35"/>
      <point x="21" y="105" type="curve" smooth="yes"/>
      <point x="21" y="171"/>
      <point x="65" y="218"/>
      <point x="181" y="243" type="curve" smooth="yes"/>
      <point x="219" y="251"/>
      <point x="262" y="258"/>
      <point x="310" y="264" type="curve"/>
      <point x="308" y="341"/>
      <point x="281" y="387"/>
    </contour>
    <contour>
      <point x="220" y="194" type="curve"/>
      <point x="125" y="173"/>
      <point x="111" y="142"/>
      <point x="111" y="111" type="curve" smooth="yes"/>
      <point x="111" y="70"/>
      <point x="140" y="55"/>
      <point x="180" y="55" type="curve" smooth="yes"/>
      <point x="262" y="55"/>
      <point x="298" y="130"/>
      <point x="307" y="207" type="curve"/>
      <point x="271" y="203"/>
      <point x="242" y="198"/>
    </contour>
  </outline>
</glyph>
<glyph name="circumflex" format="1">
  <advance width="331"/>
  <unicode hex="02C6"/>
  <outline>
    <contour>
      <point x="274" y="674" type="line"/>
      <point x="246" y="674" type="line"/>
      <point x="110" y="552" type="line"/>
      <point x="135" y="515" type="line"/>
      <point x="249" y="597" type="line"/>
      <point x="353" y="516" type="line"/>
      <point x="385" y="552" type="line"/>
    </contour>
  </outline>
</glyph>
<glyph name="caron" format="1">
  <advance width="331"/>
  <unicode hex="02C7"/>
  <outline>
    <contour>
      <point x="230" y="515" type="line"/>
      <point x="258" y="515" type="line"/>
      <point x="394" y="636" type="line"/>
      <point x="369" y="674" type="line"/>
      <point x="254" y="593" type="line"/>
      <point x="152" y="672" type="line"/>
      <point x="120" y="636" type="line"/>
    </contour>
  </outline>
</glyph>
<glyph name="breve" format="1">
  <advance width="391"/>
  <unicode hex="02D8"/>
  <outline>
    <contour>
      <point x="317" y="654" type="curve"/>
      <point x="387" y="654" type="line"/>
      <point x="378" y="568"/>
      <point x="326" y="527"/>
      <point x="248" y="527" type="curve" smooth="yes"/>
      <point x="169" y="527"/>
      <point x="129" y="570"/>
      <point x="138" y="654" type="curve"/>
      <point x="208" y="654" type="line"/>
      <point x="202" y="606"/>
      <point x="219" y="584"/>
      <point x="255" y="584" type="curve" smooth="yes"/>
      <point x="293" y="584"/>
      <point x="312" y="609"/>
    </contour>
  </outline>
</glyph>
<glyph name="dotaccent" format="1">
  <advance width="210"/>
  <unicode hex="02D9"/>
  <outline>
    <contour>
      <point x="114" y="547" type="line"/>
      <point x="204" y="547" type="line"/>
      <point x="214" y="650" type="line"/>
      <point x="125" y="650" type="line"/>
    </contour>
  </outline>
</glyph>
<glyph name="ring" format="1">
  <advance width="255"/>
  <unicode hex="02DA"/>
  <outline>
    <contour>
      <point x="180" y="514" type="curve" smooth="yes"/>
      <point x="253" y="514"/>
      <point x="291" y="562"/>
      <point x="291" y="617" type="curve" smooth="yes"/>
      <point x="291" y="665"/>
      <point x="261" y="698"/>
      <point x="202" y="698" type="curve" smooth="yes"/>
      <point x="132" y="698"/>
      <point x="92" y="656"/>
      <point x="92" y="595" type="curve" smooth="yes"/>
      <point x="92" y="546"/>
      <point x="121" y="514"/>
    </contour>
    <contour>
      <point x="186" y="560" type="curve"/>
      <point x="159" y="560"/>
      <point x="150" y="574"/>
      <point x="150" y="598" type="curve" smooth="yes"/>
      <point x="150" y="632"/>
      <point x="166" y="652"/>
      <point x="197" y="652" type="curve" smooth="yes"/>
      <point x="225" y="652"/>
      <point x="234" y="635"/>
      <point x="234" y="614" type="curve" smooth="yes"/>
      <point x="234" y="580"/>
      <point x="216" y="560"/>
    </contour>
  </outline>
</glyph>
<glyph name="tilde" format="1">
  <advance width="367"/>
  <unicode hex="02DC"/>
  <outline>
    <contour>
      <point x="129" y="539" type="line"/>
      <point x="142" y="570"/>
      <point x="162" y="582"/>
      <point x="182" y="582" type="curve" smooth="yes"/>
      <point x="219" y="582"/>
      <point x="248" y="543"/>
      <point x="299" y="543" type="curve" smooth="yes"/>
      <point x="350" y="543"/>
      <point x="374" y="591"/>
      <point x="386" y="646" type="curve"/>
      <point x="346" y="656" type="line"/>
      <point x="334" y="622"/>
      <point x="315" y="614"/>
      <point x="297" y="614" type="curve" smooth="yes"/>
      <point x="254" y="614"/>
      <point x="228" y="651"/>
      <point x="185" y="651" type="curve" smooth="yes"/>
      <point x="131" y="651"/>
      <point x="99" y="588"/>
      <point x="93" y="552" type="curve"/>
    </contour>
  </outline>
</glyph>
<glyph name="hungarumlaut" format="1">
  <advance width="421"/>
  <unicode hex="02DD"/>
  <outline>
    <contour>
      <point x="446" y="617" type="line"/>
      <point x="406" y="688" type="line"/>
      <point x="238" y="553" type="line"/>
      <point x="259" y="516" type="line"/>
    </contour>
    <contour>
      <point x="296" y="673" type="line"/>
      <point x="233" y="722" type="line"/>
      <point x="116" y="541" type="line"/>
      <point x="149" y="516" type="line"/>
    </contour>
  </outline>
</glyph>
<glyph name="dotbelowcmb" format="1">
  <advance width="816"/>
  <unicode hex="0323"/>
  <outline>
    <contour>
      <point x="67" y="-181" type="line"/>
      <point x="157" y="-181" type="line"/>
      <point x="168" y="-78" type="line"/>
      <point x="78" y="-78" type="line"/>
    </contour>
  </outline>
</glyph>
<glyph name="Sigma" format="1">
  <advance width="534"/>
  <unicode hex="03A3"/>
  <outline>
    <contour>
      <point x="4" y="0" type="line"/>
      <point x="476" y="0" type="line"/>
      <point x="484" y="78" type="line"/>
      <point x="114" y="78" type="line"/>
      <point x="317" y="310" type="line"/>
      <point x="320" y="337" type="line"/>
      <point x="166" y="572" type="line"/>
      <point x="536" y="572" type="line"/>
      <point x="544" y="650" type="line"/>
      <point x="72" y="650" type="line"/>
      <point x="64" y="572" type="line"/>
      <point x="228" y="321" type="line"/>
      <point x="13" y="78" type="line"/>
    </contour>
  </outline>
</glyph>
<glyph name="pi" format="1">
  <advance width="575"/>
  <unicode hex="03C0"/>
  <outline>
    <contour>
      <point x="8" y="69" type="line"/>
      <point x="78" y="69" type="line"/>
      <point x="111" y="378" type="line"/>
      <point x="38" y="378" type="line"/>
      <point x="45" y="447" type="line"/>
      <point x="568" y="447" type="line"/>
      <point x="561" y="378" type="line"/>
      <point x="485" y="378" type="line"/>
      <point x="453" y="69" type="line"/>
      <point x="524" y="69" type="line"/>
      <point x="517" y="0" type="line"/>
      <point x="289" y="0" type="line"/>
      <point x="296" y="69" type="line"/>
      <point x="367" y="69" type="line"/>
      <point x="400" y="378" type="line"/>
      <point x="198" y="378" type="line"/>
      <point x="165" y="69" type="line"/>
      <point x="236" y="69" type="line"/>
      <point x="229" y="0" type="line"/>
      <point x="1" y="0" type="line"/>
    </contour>
  </outline>
</glyph>
<glyph name="Wgrave" format="1">
  <advance width="921"/>
  <unicode hex="1E80"/>
  <outline>
    <contour>
      <point x="945" y="571" type="line"/>
      <point x="891" y="571" type="line"/>
      <point x="662" y="0" type="line"/>
      <point x="595" y="0" type="line"/>
      <point x="487" y="491" type="line"/>
      <point x="483" y="491" type="line"/>
      <point x="276" y="0" type="line"/>
      <point x="207" y="0" type="line"/>
      <point x="87" y="571" type="line"/>
      <point x="33" y="571" type="line"/>
      <point x="41" y="650" type="line"/>
      <point x="268" y="650" type="line"/>
      <point x="259" y="571" type="line"/>
      <point x="179" y="571" type="line"/>
      <point x="257" y="150" type="line"/>
      <point x="262" y="150" type="line"/>
      <point x="443" y="571" type="line"/>
      <point x="382" y="571" type="line"/>
      <point x="391" y="650" type="line"/>
      <point x="618" y="650" type="line"/>
      <point x="609" y="571" type="line"/>
      <point x="551" y="571" type="line"/>
      <point x="643" y="146" type="line"/>
      <point x="648" y="146" type="line"/>
      <point x="803" y="571" type="line"/>
      <point x="719" y="571" type="line"/>
      <point x="728" y="650" type="line"/>
      <point x="953" y="650" type="line"/>
    </contour>
    <contour>
      <point x="588" y="699" type="line"/>
      <point x="598" y="742" type="line"/>
      <point x="398" y="819" type="line"/>
      <point x="379" y="737" type="line"/>
    </contour>
  </outline>
</glyph>
<glyph name="Wacute" format="1">
  <advance width="921"/>
  <unicode hex="1E82"/>
  <outline>
    <contour>
      <point x="945" y="571" type="line"/>
      <point x="891" y="571" type="line"/>
      <point x="662" y="0" type="line"/>
      <point x="595" y="0" type="line"/>
      <point x="487" y="491" type="line"/>
      <point x="483" y="491" type="line"/>
      <point x="276" y="0" type="line"/>
      <point x="207" y="0" type="line"/>
      <point x="87" y="571" type="line"/>
      <point x="33" y="571" type="line"/>
      <point x="41" y="650" type="line"/>
      <point x="268" y="650" type="line"/>
      <point x="259" y="571" type="line"/>
      <point x="179" y="571" type="line"/>
      <point x="257" y="150" type="line"/>
      <point x="262" y="150" type="line"/>
      <point x="443" y="571" type="line"/>
      <point x="382" y="571" type="line"/>
      <point x="391" y="650" type="line"/>
      <point x="618" y="650" type="line"/>
      <point x="609" y="571" type="line"/>
      <point x="551" y="571" type="line"/>
      <point x="643" y="146" type="line"/>
      <point x="648" y="146" type="line"/>
      <point x="803" y="571" type="line"/>
      <point x="719" y="571" type="line"/>
      <point x="728" y="650" type="line"/>
      <point x="953" y="650" type="line"/>
    </contour>
    <contour>
      <point x="653" y="737" type="line"/>
      <point x="634" y="819" type="line"/>
      <point x="435" y="742" type="line"/>
      <point x="445" y="699" type="line"/>
    </contour>
  </outline>
</glyph>
<glyph name="wacute" format="1">
  <advance width="720"/>
  <unicode hex="1E83"/>
  <outline>
    <contour>
      <point x="495" y="102" type="line"/>
      <point x="499" y="102" type="line"/>
      <point x="574" y="195"/>
      <point x="605" y="268"/>
      <point x="605" y="354" type="curve" smooth="yes"/>
      <point x="605" y="387"/>
      <point x="601" y="416"/>
      <point x="588" y="447" type="curve"/>
      <point x="684" y="447" type="line"/>
      <point x="702" y="358"/>
      <point x="687" y="269"/>
      <point x="628" y="177" type="curve" smooth="yes"/>
      <point x="596" y="127"/>
      <point x="534" y="51"/>
      <point x="481" y="0" type="curve"/>
      <point x="440" y="0" type="line"/>
      <point x="368" y="313" type="line"/>
      <point x="363" y="313" type="line"/>
      <point x="209" y="0" type="line"/>
      <point x="161" y="0" type="line"/>
      <point x="61" y="378" type="line"/>
      <point x="12" y="378" type="line"/>
      <point x="19" y="425" type="line"/>
      <point x="43" y="447" type="line"/>
      <point x="236" y="447" type="line"/>
      <point x="230" y="398" type="line"/>
      <point x="206" y="378" type="line"/>
      <point x="150" y="378" type="line"/>
      <point x="205" y="127" type="line"/>
      <point x="210" y="127" type="line"/>
      <point x="362" y="447" type="line"/>
      <point x="417" y="447" type="line"/>
    </contour>
    <contour>
      <point x="570" y="617" type="line"/>
      <point x="527" y="688" type="line"/>
      <point x="360" y="553" type="line"/>
      <point x="381" y="516" type="line"/>
    </contour>
  </outline>
</glyph>
<glyph name="Ygrave" format="1">
  <advance width="604"/>
  <unicode hex="1EF2"/>
  <outline>
    <contour>
      <point x="630" y="571" type="line"/>
      <point x="570" y="571" type="line"/>
      <point x="344" y="251" type="line"/>
      <point x="326" y="79" type="line"/>
      <point x="435" y="79" type="line"/>
      <point x="426" y="0" type="line"/>
      <point x="126" y="0" type="line"/>
      <point x="134" y="79" type="line"/>
      <point x="239" y="79" type="line"/>
      <point x="257" y="251" type="line"/>
      <point x="91" y="571" type="line"/>
      <point x="30" y="571" type="line"/>
      <point x="39" y="650" type="line"/>
      <point x="276" y="650" type="line"/>
      <point x="268" y="571" type="line"/>
      <point x="191" y="571" type="line"/>
      <point x="311" y="332" type="line"/>
      <point x="316" y="332" type="line"/>
      <point x="480" y="571" type="line"/>
      <point x="402" y="571" type="line"/>
      <point x="410" y="650" type="line"/>
      <point x="638" y="650" type="line"/>
    </contour>
    <contour>
      <point x="397" y="699" type="line"/>
      <point x="407" y="742" type="line"/>
      <point x="207" y="819" type="line"/>
      <point x="188" y="737" type="line"/>
    </contour>
  </outline>
</glyph>
<glyph name="endash" format="1">
  <advance width="601"/>
  <unicode hex="2013"/>
  <outline>
    <contour>
      <point x="53" y="263" type="line"/>
      <point x="545" y="263" type="line"/>
      <point x="538" y="202" type="line"/>
      <point x="46" y="202" type="line"/>
    </contour>
  </outline>
</glyph>
<glyph name="emdash" format="1">
  <advance width="1041"/>
  <unicode hex="2014"/>
  <outline>
    <contour>
      <point x="62" y="263" type="line"/>
      <point x="983" y="263" type="line"/>
      <point x="976" y="202" type="line"/>
      <point x="55" y="202" type="line"/>
    </contour>
  </outline>
</glyph>
<glyph name="quoteleft" format="1">
  <advance width="211"/>
  <unicode hex="2018"/>
  <outline>
    <contour>
      <point x="218" y="651" type="line"/>
      <point x="133" y="651" type="line"/>
      <point x="56" y="430" type="line"/>
      <point x="140" y="430" type="line"/>
    </contour>
  </outline>
</glyph>
<glyph name="quoteright" format="1">
  <advance width="206"/>
  <unicode hex="2019"/>
  <outline>
    <contour>
      <point x="59" y="484" type="line"/>
      <point x="144" y="484" type="line"/>
      <point x="221" y="705" type="line"/>
      <point x="137" y="705" type="line"/>
    </contour>
  </outline>
</glyph>
<glyph name="quotedblright" format="1">
  <advance width="367"/>
  <unicode hex="201D"/>
  <outline>
    <contour>
      <point x="49" y="449" type="line"/>
      <point x="134" y="449" type="line"/>
      <point x="211" y="670" type="line"/>
      <point x="127" y="670" type="line"/>
    </contour>
    <contour>
      <point x="213" y="449" type="line"/>
      <point x="298" y="449" type="line"/>
      <point x="375" y="670" type="line"/>
      <point x="291" y="670" type="line"/>
    </contour>
  </outline>
</glyph>
<glyph name="quotedblbase" format="1">
  <advance width="372"/>
  <unicode hex="201E"/>
  <outline>
    <contour>
      <point x="-21" y="-97" type="line"/>
      <point x="64" y="-97" type="line"/>
      <point x="141" y="124" type="line"/>
      <point x="57" y="124" type="line"/>
    </contour>
    <contour>
      <point x="146" y="-97" type="line"/>
      <point x="231" y="-97" type="line"/>
      <point x="308" y="124" type="line"/>
      <point x="224" y="124" type="line"/>
    </contour>
  </outline>
</glyph>
<glyph name="dagger" format="1">
  <advance width="455"/>
  <unicode hex="2020"/>
  <outline>
    <contour>
      <point x="43" y="432" type="line"/>
      <point x="206" y="432" type="line"/>
      <point x="229" y="650" type="line"/>
      <point x="304" y="650" type="line"/>
      <point x="281" y="432" type="line"/>
      <point x="444" y="432" type="line"/>
      <point x="437" y="356" type="line"/>
      <point x="273" y="356" type="line"/>
      <point x="221" y="-141" type="line"/>
      <point x="146" y="-141" type="line"/>
      <point x="198" y="356" type="line"/>
      <point x="36" y="356" type="line"/>
    </contour>
  </outline>
</glyph>
<glyph name="daggerdbl" format="1">
  <advance width="493"/>
  <unicode hex="2021"/>
  <outline>
    <contour>
      <point x="32" y="131" type="line"/>
      <point x="195" y="131" type="line"/>
      <point x="219" y="356" type="line"/>
      <point x="55" y="356" type="line"/>
      <point x="64" y="432" type="line"/>
      <point x="227" y="432" type="line"/>
      <point x="250" y="650" type="line"/>
      <point x="325" y="650" type="line"/>
      <point x="302" y="432" type="line"/>
      <point x="465" y="432" type="line"/>
      <point x="456" y="356" type="line"/>
      <point x="294" y="356" type="line"/>
      <point x="270" y="131" type="line"/>
      <point x="433" y="131" type="line"/>
      <point x="425" y="55" type="line"/>
      <point x="262" y="55" type="line"/>
      <point x="242" y="-141" type="line"/>
      <point x="167" y="-141" type="line"/>
      <point x="187" y="55" type="line"/>
      <point x="24" y="55" type="line"/>
    </contour>
  </outline>
</glyph>
<glyph name="perthousand" format="1">
  <advance width="993"/>
  <unicode hex="2030"/>
  <outline>
    <contour>
      <point x="611" y="521" type="line"/>
      <point x="385" y="265" type="line"/>
      <point x="161" y="0" type="line"/>
      <point x="70" y="0" type="line"/>
      <point x="327" y="286" type="line"/>
      <point x="521" y="521" type="line"/>
    </contour>
    <contour>
      <point x="172" y="243" type="curve" smooth="yes"/>
      <point x="274" y="243"/>
      <point x="335" y="311"/>
      <point x="335" y="404" type="curve" smooth="yes"/>
      <point x="335" y="486"/>
      <point x="288" y="530"/>
      <point x="209" y="530" type="curve" smooth="yes"/>
      <point x="112" y="530"/>
      <point x="44" y="466"/>
      <point x="44" y="368" type="curve" smooth="yes"/>
      <point x="44" y="286"/>
      <point x="91" y="243"/>
    </contour>
    <contour>
      <point x="178" y="302" type="curve" smooth="yes"/>
      <point x="137" y="302"/>
      <point x="115" y="322"/>
      <point x="115" y="374" type="curve" smooth="yes"/>
      <point x="115" y="440"/>
      <point x="151" y="470"/>
      <point x="201" y="470" type="curve" smooth="yes"/>
      <point x="243" y="470"/>
      <point x="263" y="449"/>
      <point x="263" y="399" type="curve" smooth="yes"/>
      <point x="263" y="340"/>
      <point x="235" y="302"/>
    </contour>
    <contour>
      <point x="480" y="-10" type="curve" smooth="yes"/>
      <point x="582" y="-10"/>
      <point x="644" y="59"/>
      <point x="644" y="152" type="curve" smooth="yes"/>
      <point x="644" y="234"/>
      <point x="596" y="278"/>
      <point x="517" y="278" type="curve" smooth="yes"/>
      <point x="421" y="278"/>
      <point x="352" y="215"/>
      <point x="352" y="117" type="curve" smooth="yes"/>
      <point x="352" y="33"/>
      <point x="400" y="-10"/>
    </contour>
    <contour>
      <point x="487" y="50" type="curve" smooth="yes"/>
      <point x="446" y="50"/>
      <point x="424" y="70"/>
      <point x="424" y="122" type="curve" smooth="yes"/>
      <point x="424" y="187"/>
      <point x="459" y="219"/>
      <point x="510" y="219" type="curve" smooth="yes"/>
      <point x="552" y="219"/>
      <point x="572" y="197"/>
      <point x="572" y="147" type="curve" smooth="yes"/>
      <point x="572" y="87"/>
      <point x="543" y="50"/>
    </contour>
    <contour>
      <point x="787" y="-10" type="curve" smooth="yes"/>
      <point x="889" y="-10"/>
      <point x="950" y="59"/>
      <point x="950" y="152" type="curve" smooth="yes"/>
      <point x="950" y="234"/>
      <point x="902" y="278"/>
      <point x="823" y="278" type="curve" smooth="yes"/>
      <point x="728" y="278"/>
      <point x="659" y="215"/>
      <point x="659" y="116" type="curve" smooth="yes"/>
      <point x="659" y="33"/>
      <point x="707" y="-10"/>
    </contour>
    <contour>
      <point x="794" y="50" type="curve" smooth="yes"/>
      <point x="750" y="50"/>
      <point x="731" y="71"/>
      <point x="731" y="121" type="curve" smooth="yes"/>
      <point x="731" y="187"/>
      <point x="764" y="219"/>
      <point x="816" y="219" type="curve" smooth="yes"/>
      <point x="858" y="219"/>
      <point x="878" y="197"/>
      <point x="878" y="147" type="curve" smooth="yes"/>
      <point x="878" y="87"/>
      <point x="849" y="50"/>
    </contour>
  </outline>
</glyph>
<glyph name="guilsinglright" format="1">
  <advance width="285"/>
  <unicode hex="203A"/>
  <outline>
    <contour>
      <point x="88" y="25" type="line"/>
      <point x="249" y="271" type="line"/>
      <point x="139" y="511" type="line"/>
      <point x="66" y="511" type="line"/>
      <point x="164" y="271" type="line"/>
      <point x="15" y="25" type="line"/>
    </contour>
  </outline>
</glyph>
<glyph name="zerosuperior" format="1">
  <advance width="376"/>
  <unicode hex="2070"/>
  <outline>
    <contour>
      <point x="66" y="566" type="curve" smooth="yes"/>
      <point x="66" y="652"/>
      <point x="100" y="785"/>
      <point x="240" y="785" type="curve" smooth="yes"/>
      <point x="349" y="785"/>
      <point x="376" y="706"/>
      <point x="376" y="624" type="curve" smooth="yes"/>
      <point x="376" y="517"/>
      <point x="330" y="409"/>
      <point x="201" y="409" type="curve" smooth="yes"/>
      <point x="100" y="409"/>
      <point x="66" y="477"/>
    </contour>
    <contour>
      <point x="140" y="572" type="curve" smooth="yes"/>
      <point x="140" y="509"/>
      <point x="154" y="465"/>
      <point x="207" y="465" type="curve" smooth="yes"/>
      <point x="275" y="465"/>
      <point x="302" y="536"/>
      <point x="302" y="625" type="curve" smooth="yes"/>
      <point x="302" y="687"/>
      <point x="289" y="729"/>
      <point x="235" y="729" type="curve" smooth="yes"/>
      <point x="170" y="729"/>
      <point x="140" y="667"/>
    </contour>
  </outline>
</glyph>
<glyph name="i.superior" format="1">
  <advance width="191"/>
  <unicode hex="2071"/>
  <outline>
    <contour>
      <point x="63" y="691" type="line"/>
      <point x="80" y="706" type="line"/>
      <point x="176" y="706" type="line"/>
      <point x="145" y="468" type="line"/>
      <point x="189" y="468" type="line"/>
      <point x="185" y="430" type="line"/>
      <point x="167" y="415" type="line"/>
      <point x="75" y="415" type="line"/>
      <point x="105" y="654" type="line"/>
      <point x="58" y="654" type="line"/>
    </contour>
    <contour>
      <point x="120" y="775" type="line"/>
      <point x="187" y="775" type="line"/>
      <point x="195" y="847" type="line"/>
      <point x="127" y="847" type="line"/>
    </contour>
  </outline>
</glyph>
<glyph name="foursuperior" format="1">
  <advance width="353"/>
  <unicode hex="2074"/>
  <outline>
    <contour>
      <point x="213" y="415" type="line"/>
      <point x="281" y="415" type="line"/>
      <point x="290" y="508" type="line"/>
      <point x="346" y="508" type="line"/>
      <point x="357" y="558" type="line"/>
      <point x="296" y="558" type="line"/>
      <point x="319" y="779" type="line"/>
      <point x="193" y="779" type="line"/>
      <point x="49" y="560" type="line"/>
      <point x="50" y="508" type="line"/>
      <point x="223" y="508" type="line"/>
    </contour>
    <contour>
      <point x="218" y="725" type="line"/>
      <point x="246" y="725" type="line"/>
      <point x="228" y="558" type="line"/>
      <point x="109" y="558" type="line"/>
    </contour>
  </outline>
</glyph>
<glyph name="ninesuperior" format="1">
  <advance width="343"/>
  <unicode hex="2079"/>
  <outline>
    <contour>
      <point x="171" y="463" type="curve" smooth="yes"/>
      <point x="150" y="463"/>
      <point x="127" y="470"/>
      <point x="107" y="498" type="curve"/>
      <point x="65" y="458" type="line"/>
      <point x="95" y="421"/>
      <point x="140" y="409"/>
      <point x="178" y="409" type="curve" smooth="yes"/>
      <point x="292" y="409"/>
      <point x="345" y="519"/>
      <point x="345" y="633" type="curve" smooth="yes"/>
      <point x="345" y="727"/>
      <point x="302" y="785"/>
      <point x="217" y="785" type="curve" smooth="yes"/>
      <point x="125" y="785"/>
      <point x="75" y="722"/>
      <point x="75" y="650" type="curve" smooth="yes"/>
      <point x="75" y="592"/>
      <point x="109" y="547"/>
      <point x="175" y="547" type="curve" smooth="yes"/>
      <point x="226" y="547"/>
      <point x="257" y="573"/>
      <point x="273" y="601" type="curve"/>
      <point x="267" y="516"/>
      <point x="239" y="463"/>
    </contour>
    <contour>
      <point x="199" y="599" type="curve" smooth="yes"/>
      <point x="164" y="599"/>
      <point x="147" y="620"/>
      <point x="147" y="655" type="curve" smooth="yes"/>
      <point x="147" y="697"/>
      <point x="164" y="729"/>
      <point x="213" y="729" type="curve" smooth="yes"/>
      <point x="256" y="729"/>
      <point x="270" y="703"/>
      <point x="273" y="658" type="curve"/>
      <point x="268" y="628"/>
      <point x="245" y="599"/>
    </contour>
  </outline>
</glyph>
<glyph name="plussuperior" format="1">
  <advance width="282"/>
  <unicode hex="207A"/>
  <outline>
    <contour>
      <point x="60" y="575" type="line"/>
      <point x="150" y="575" type="line"/>
      <point x="141" y="485" type="line"/>
      <point x="189" y="485" type="line"/>
      <point x="198" y="575" type="line"/>
      <point x="287" y="575" type="line"/>
      <point x="291" y="620" type="line"/>
      <point x="203" y="620" type="line"/>
      <point x="213" y="711" type="line"/>
      <point x="165" y="711" type="line"/>
      <point x="155" y="620" type="line"/>
      <point x="64" y="620" type="line"/>
    </contour>
  </outline>
</glyph>
<glyph name="minussuperior" format="1">
  <advance width="316"/>
  <unicode hex="207B"/>
  <outline>
    <contour>
      <point x="76" y="575" type="line"/>
      <point x="303" y="575" type="line"/>
      <point x="307" y="620" type="line"/>
      <point x="80" y="620" type="line"/>
    </contour>
  </outline>
</glyph>
<glyph name="equalsuperior" format="1">
  <advance width="376"/>
  <unicode hex="207C"/>
  <outline>
    <contour>
      <point x="82" y="640" type="line"/>
      <point x="369" y="640" type="line"/>
      <point x="375" y="687" type="line"/>
      <point x="87" y="687" type="line"/>
    </contour>
    <contour>
      <point x="68" y="508" type="line"/>
      <point x="356" y="508" type="line"/>
      <point x="360" y="554" type="line"/>
      <point x="72" y="554" type="line"/>
    </contour>
  </outline>
</glyph>
<glyph name="n.superior" format="1">
  <advance width="377"/>
  <unicode hex="207F"/>
  <outline>
    <contour>
      <point x="80" y="706" type="line"/>
      <point x="166" y="706" type="line"/>
      <point x="166" y="654" type="line"/>
      <point x="188" y="689"/>
      <point x="220" y="712"/>
      <point x="265" y="712" type="curve" smooth="yes"/>
      <point x="321" y="712"/>
      <point x="361" y="681"/>
      <point x="352" y="607" type="curve" smooth="yes"/>
      <point x="334" y="468" type="line"/>
      <point x="379" y="468" type="line"/>
      <point x="374" y="430" type="line"/>
      <point x="358" y="415" type="line"/>
      <point x="265" y="415" type="line"/>
      <point x="286" y="583" type="line"/>
      <point x="294" y="639"/>
      <point x="275" y="660"/>
      <point x="238" y="660" type="curve" smooth="yes"/>
      <point x="196" y="660"/>
      <point x="171" y="635"/>
      <point x="162" y="599" type="curve"/>
      <point x="139" y="415" type="line"/>
      <point x="75" y="415" type="line"/>
      <point x="105" y="654" type="line"/>
      <point x="58" y="654" type="line"/>
      <point x="63" y="691" type="line"/>
    </contour>
  </outline>
</glyph>
<glyph name="twoinferior" format="1">
  <advance width="346"/>
  <unicode hex="2082"/>
  <outline>
    <contour>
      <point x="89" y="248" type="line"/>
      <point x="107" y="301" type="line"/>
      <point x="125" y="312"/>
      <point x="142" y="316"/>
      <point x="161" y="316" type="curve" smooth="yes"/>
      <point x="203" y="316"/>
      <point x="219" y="297"/>
      <point x="219" y="271" type="curve" smooth="yes"/>
      <point x="219" y="201"/>
      <point x="99" y="119"/>
      <point x="7" y="49" type="curve"/>
      <point x="8" y="0" type="line"/>
      <point x="286" y="0" type="line"/>
      <point x="303" y="99" type="line"/>
      <point x="245" y="106" type="line"/>
      <point x="234" y="54" type="line"/>
      <point x="95" y="54" type="line"/>
      <point x="151" y="95"/>
      <point x="297" y="186"/>
      <point x="297" y="280" type="curve" smooth="yes"/>
      <point x="297" y="326"/>
      <point x="261" y="370"/>
      <point x="177" y="370" type="curve" smooth="yes"/>
      <point x="134" y="370"/>
      <point x="90" y="358"/>
      <point x="57" y="336" type="curve"/>
      <point x="36" y="253" type="line"/>
    </contour>
  </outline>
</glyph>
<glyph name="threeinferior" format="1">
  <advance width="338"/>
  <unicode hex="2083"/>
  <outline>
    <contour>
      <point x="94" y="254" type="line"/>
      <point x="110" y="301" type="line"/>
      <point x="128" y="311"/>
      <point x="145" y="315"/>
      <point x="163" y="315" type="curve" smooth="yes"/>
      <point x="198" y="315"/>
      <point x="215" y="300"/>
      <point x="215" y="273" type="curve" smooth="yes"/>
      <point x="215" y="235"/>
      <point x="185" y="213"/>
      <point x="127" y="210" type="curve"/>
      <point x="123" y="168" type="line"/>
      <point x="185" y="165"/>
      <point x="212" y="150"/>
      <point x="212" y="112" type="curve" smooth="yes"/>
      <point x="212" y="76"/>
      <point x="187" y="47"/>
      <point x="140" y="47" type="curve" smooth="yes"/>
      <point x="93" y="47"/>
      <point x="71" y="75"/>
      <point x="67" y="106" type="curve"/>
      <point x="14" y="91" type="line"/>
      <point x="18" y="25"/>
      <point x="71" y="-7"/>
      <point x="141" y="-7" type="curve" smooth="yes"/>
      <point x="223" y="-7"/>
      <point x="287" y="36"/>
      <point x="287" y="108" type="curve" smooth="yes"/>
      <point x="287" y="148"/>
      <point x="267" y="182"/>
      <point x="213" y="192" type="curve"/>
      <point x="213" y="194" type="line"/>
      <point x="268" y="213"/>
      <point x="291" y="248"/>
      <point x="291" y="285" type="curve" smooth="yes"/>
      <point x="291" y="336"/>
      <point x="247" y="369"/>
      <point x="179" y="369" type="curve" smooth="yes"/>
      <point x="141" y="369"/>
      <point x="93" y="358"/>
      <point x="60" y="336" type="curve"/>
      <point x="42" y="259" type="line"/>
    </contour>
  </outline>
</glyph>
